{
.appVersion = "1271";
DisplayStrings = (
noHO,
"0123456789:;<=>?@",
"ABCDEFGHHI JKLMNOPQRSTUVWXYZ\012HH1H2H3HH4HH5HH6HH7HH8HH9HH0HH2180 3215 2438 14718 2761 2568 23 2141\012HHHHHHHHOHHOHOOOO\012OOOOOOO\012HHHAHOAOO H-H-A-H Atado\012HHBHOBOO feo ACME\012HHCHOCOO C-C Comodo CATARRO\012HHDHODOO HH-HH Dorado\012HHEHOEOO H-E-H MUR\012HHFHOFOO FOSFORO HF-H Fa Fe Fu\012HHGHOGOO\012HHIHOIOO HOLOGRAMA Lamana\012HHJHOJOO Jamon Jo Jumin\012HHKHOKOO HK-H Ka Ko Ku KQ\012HHLHOLOO La Lu\012HHMHOMOO ATAN ATMÓSFERA ATOMO AMTO TOTO\012HHNHONOO Fa Farmaco\012HHPHOPOO HP-H-H Palo Pel Po\012HHQHOQOO H. H, P. F. V. T. W. Y. A?\012P, P; F, F; V, V; W, T, O, O. Y,\012HHRHOROO ARQUOEO HR-H\012HHSHHOSOO ASUSELO H-S-H\012HHTHOTOO TOTO ALTO ALURO AJUAR Ta Tomate\012HHUHOUOO ASADERO AFANADOR\012HHAHHOOAOO\012HHHVHOVOO H-V/emdash H ALWAYS ATADURA Va Voltaje Volumen Ve Vulcano KOLMA Mo\012HHWHOWOO H/endash W/emdash H Walk We Wã OVOIDE AVARO RaRoma AWAY AMAYA HAYACA\012AWARNESS OWO OWNER ALVARO AMAYA\012HHYHOYOO H-H-Y-HPVCZHOZOO H-Z-H\012HHZHHOZOO Za Zu  HHSHOSOO\012VlVlANA MONSALVE HAMACA HAN HENCHO DAÑO\012",
"abcdefghijklmnopqrstuvwxyz\012nnnnnnononooooooooonnnnn \012nnanoaoo\012nnbnndnnoboo\012nncnocoo\012nndnodoo\012nnenoeoo\012nndnnfnofoo afaro feo fosforo falso\012nngnnogoo\012nnhnnohoo\012nn/idotless innoiooa\012nn/idotless nno/idotless ooa\012nnnjnnojoo\012nnknnokoo ka ke kc\012nnlnnoloo an\012nnmnnomoo\012nnpnnopoo\012nnqnnoqoo quien\012nnrnnoroo re rama \012nnsnnosoo fosforo\012nntnnotoo bn toronja\012nnunnouoo aun nun\012nnvnnnovoo\012nnwnnowoo\012nnxnnoxoo \012nnynoyoo\012nnnznnozoo zoologico ozono\012",

glyphs = (
{
glyphname = .notdef;
lastChange = "2019-12-06 19:21:55 +0000";
layers = (
{
background = {
paths = (
{
closed = 1;
nodes = (
"445 0 LINE SMOOTH",
"460 0 OFFCURVE",
"475 12 OFFCURVE",
"475 31 CURVE SMOOTH",
"475 650 LINE SMOOTH",
"475 667 OFFCURVE",
"461 681 OFFCURVE",
"445 681 CURVE SMOOTH",
"51 681 LINE SMOOTH",
"33 681 OFFCURVE",
"20 667 OFFCURVE",
"20 650 CURVE SMOOTH",
"20 31 LINE SMOOTH",
"20 13 OFFCURVE",
"33 0 OFFCURVE",
"51 0 CURVE SMOOTH"
);
},
{
closed = 1;
nodes = (
"246 320 LINE",
"430 21 LINE",
"50 21 LINE"
);
},
{
closed = 1;
nodes = (
"41 655 LINE",
"234 342 LINE",
"41 46 LINE"
);
},
{
closed = 1;
nodes = (
"258 339 LINE",
"455 641 LINE",
"455 21 LINE"
);
},
{
closed = 1;
nodes = (
"62 660 LINE",
"442 660 LINE",
"246 361 LINE"
);
}
);
};
layerId = master01;
paths = (
{
closed = 1;
nodes = (
"445 0 LINE SMOOTH",
"460 0 OFFCURVE",
"475 12 OFFCURVE",
"475 31 CURVE SMOOTH",
"475 650 LINE SMOOTH",
"475 667 OFFCURVE",
"461 681 OFFCURVE",
"445 681 CURVE SMOOTH",
"51 681 LINE SMOOTH",
"33 681 OFFCURVE",
"20 667 OFFCURVE",
"20 650 CURVE SMOOTH",
"20 31 LINE SMOOTH",
"20 13 OFFCURVE",
"33 0 OFFCURVE",
"51 0 CURVE SMOOTH"
);
},
{
closed = 1;
nodes = (
"246 320 LINE",
"430 21 LINE",
"50 21 LINE"
);
},
{
closed = 1;
nodes = (
"41 655 LINE",
"234 342 LINE",
"41 46 LINE"
);
},
{
closed = 1;
nodes = (
"258 339 LINE",
"455 641 LINE",
"455 21 LINE"
);
},
{
closed = 1;
nodes = (
"62 660 LINE",
"442 660 LINE",
"246 361 LINE"
);
}
);
userData = {
com.fontlab.hintData = {
hhints = (
{
position = 0;
width = 21;
},
{
position = 660;
width = 21;
}
);
vhints = (
{
position = 20;
width = 21;
},
{
position = 455;
width = 20;
}
);
};
};
width = 490;
},
{
background = {
paths = (
{
closed = 1;
nodes = (
"440 0 LINE SMOOTH",
"460 0 OFFCURVE",
"480 16 OFFCURVE",
"480 40 CURVE SMOOTH",
"480 641 LINE SMOOTH",
"480 663 OFFCURVE",
"462 681 OFFCURVE",
"440 681 CURVE SMOOTH",
"58 681 LINE SMOOTH",
"36 681 OFFCURVE",
"18 663 OFFCURVE",
"18 641 CURVE SMOOTH",
"18 40 LINE SMOOTH",
"18 18 OFFCURVE",
"36 0 OFFCURVE",
"58 0 CURVE SMOOTH"
);
},
{
closed = 1;
nodes = (
"247 303 LINE",
"409 40 LINE",
"75 40 LINE"
);
},
{
closed = 1;
nodes = (
"58 610 LINE",
"224 341 LINE",
"58 87 LINE"
);
},
{
closed = 1;
nodes = (
"271 340 LINE",
"440 599 LINE",
"440 66 LINE"
);
},
{
closed = 1;
nodes = (
"86 641 LINE",
"420 641 LINE",
"248 378 LINE"
);
}
);
};
layerId = "218416E4-0B36-4DBB-8D0A-D6BB29FB6576";
paths = (
{
closed = 1;
nodes = (
"440 0 LINE SMOOTH",
"460 0 OFFCURVE",
"480 16 OFFCURVE",
"480 40 CURVE SMOOTH",
"480 641 LINE SMOOTH",
"480 663 OFFCURVE",
"462 681 OFFCURVE",
"440 681 CURVE SMOOTH",
"58 681 LINE SMOOTH",
"36 681 OFFCURVE",
"18 663 OFFCURVE",
"18 641 CURVE SMOOTH",
"18 40 LINE SMOOTH",
"18 18 OFFCURVE",
"36 0 OFFCURVE",
"58 0 CURVE SMOOTH"
);
},
{
closed = 1;
nodes = (
"247 303 LINE",
"409 40 LINE",
"75 40 LINE"
);
},
{
closed = 1;
nodes = (
"58 610 LINE",
"224 341 LINE",
"58 87 LINE"
);
},
{
closed = 1;
nodes = (
"271 340 LINE",
"440 599 LINE",
"440 66 LINE"
);
},
{
closed = 1;
nodes = (
"86 641 LINE",
"420 641 LINE",
"248 378 LINE"
);
}
);
userData = {
com.fontlab.hintData = {
hhints = (
{
position = 0;
width = 40;
},
{
position = 641;
width = 40;
}
);
vhints = (
{
position = 18;
width = 40;
},
{
position = 440;
width = 40;
}
);
};
};
width = 500;
},
{
background = {
paths = (
{
closed = 1;
nodes = (
"431 0 LINE SMOOTH",
"461 0 OFFCURVE",
"492 24 OFFCURVE",
"492 61 CURVE SMOOTH",
"492 620 LINE SMOOTH",
"492 654 OFFCURVE",
"465 681 OFFCURVE",
"431 681 CURVE SMOOTH",
"76 681 LINE SMOOTH",
"42 681 OFFCURVE",
"15 654 OFFCURVE",
"15 620 CURVE SMOOTH",
"15 61 LINE SMOOTH",
"15 27 OFFCURVE",
"42 0 OFFCURVE",
"76 0 CURVE SMOOTH"
);
},
{
closed = 1;
nodes = (
"251 263 LINE",
"361 84 LINE",
"135 84 LINE"
);
},
{
closed = 1;
nodes = (
"99 510 LINE",
"202 342 LINE",
"99 183 LINE"
);
},
{
closed = 1;
nodes = (
"301 339 LINE",
"408 502 LINE",
"408 167 LINE"
);
},
{
closed = 1;
nodes = (
"143 597 LINE",
"369 597 LINE",
"253 418 LINE"
);
}
);
};
layerId = "BB1A411A-CAFC-47D3-A925-066104B707B4";
paths = (
{
closed = 1;
nodes = (
"431 0 LINE SMOOTH",
"461 0 OFFCURVE",
"492 24 OFFCURVE",
"492 61 CURVE SMOOTH",
"492 620 LINE SMOOTH",
"492 654 OFFCURVE",
"465 681 OFFCURVE",
"431 681 CURVE SMOOTH",
"76 681 LINE SMOOTH",
"42 681 OFFCURVE",
"15 654 OFFCURVE",
"15 620 CURVE SMOOTH",
"15 61 LINE SMOOTH",
"15 27 OFFCURVE",
"42 0 OFFCURVE",
"76 0 CURVE SMOOTH"
);
},
{
closed = 1;
nodes = (
"251 263 LINE",
"361 84 LINE",
"135 84 LINE"
);
},
{
closed = 1;
nodes = (
"99 510 LINE",
"202 342 LINE",
"99 183 LINE"
);
},
{
closed = 1;
nodes = (
"301 339 LINE",
"408 502 LINE",
"408 167 LINE"
);
},
{
closed = 1;
nodes = (
"143 597 LINE",
"369 597 LINE",
"253 418 LINE"
);
}
);
userData = {
com.fontlab.hintData = {
hhints = (
{
position = 0;
width = 84;
},
{
position = 597;
width = 84;
}
);
vhints = (
{
position = 15;
width = 84;
},
{
position = 408;
width = 84;
}
);
};
};
width = 526;
}
);
},
{
glyphname = exclam;
lastChange = "2019-12-06 19:21:55 +0000";
layers = (
{
background = {
paths = (
{
closed = 1;
nodes = (
"104 158 OFFCURVE",
"113 168 OFFCURVE",
"113 178 CURVE SMOOTH",
"113 680 LINE SMOOTH",
"113 692 OFFCURVE",
"104 701 OFFCURVE",
"93 701 CURVE SMOOTH",
"83 701 OFFCURVE",
"73 692 OFFCURVE",
"73 680 CURVE SMOOTH",
"73 178 LINE SMOOTH",
"73 168 OFFCURVE",
"83 158 OFFCURVE",
"93 158 CURVE SMOOTH"
);
},
{
closed = 1;
nodes = (
"99 0 OFFCURVE",
"115 17 OFFCURVE",
"115 39 CURVE SMOOTH",
"115 53 OFFCURVE",
"106 66 OFFCURVE",
"92 66 CURVE SMOOTH",
"75 66 OFFCURVE",
"61 48 OFFCURVE",
"61 28 CURVE SMOOTH",
"61 13 OFFCURVE",
"70 0 OFFCURVE",
"84 0 CURVE SMOOTH"
);
}
);
};
layerId = master01;
paths = (
{
closed = 1;
nodes = (
"104 158 OFFCURVE",
"113 168 OFFCURVE",
"113 178 CURVE SMOOTH",
"113 680 LINE SMOOTH",
"113 692 OFFCURVE",
"104 701 OFFCURVE",
"93 701 CURVE SMOOTH",
"83 701 OFFCURVE",
"73 692 OFFCURVE",
"73 680 CURVE SMOOTH",
"73 178 LINE SMOOTH",
"73 168 OFFCURVE",
"83 158 OFFCURVE",
"93 158 CURVE SMOOTH"
);
},
{
closed = 1;
nodes = (
"99 0 OFFCURVE",
"115 17 OFFCURVE",
"115 39 CURVE SMOOTH",
"115 53 OFFCURVE",
"106 66 OFFCURVE",
"92 66 CURVE SMOOTH",
"75 66 OFFCURVE",
"61 48 OFFCURVE",
"61 28 CURVE SMOOTH",
"61 13 OFFCURVE",
"70 0 OFFCURVE",
"84 0 CURVE SMOOTH"
);
}
);
userData = {
com.fontlab.hintData = {
hhints = (
{
position = 0;
width = 66;
}
);
vhints = (
{
position = 61;
width = 54;
},
{
position = 73;
width = 40;
}
);
};
};
width = 186;
},
{
background = {
paths = (
{
closed = 1;
nodes = (
"112 152 OFFCURVE",
"125 165 OFFCURVE",
"125 181 CURVE SMOOTH",
"125 663 LINE SMOOTH",
"125 679 OFFCURVE",
"112 693 OFFCURVE",
"96 693 CURVE SMOOTH",
"80 693 OFFCURVE",
"67 679 OFFCURVE",
"67 663 CURVE SMOOTH",
"67 181 LINE SMOOTH",
"67 165 OFFCURVE",
"80 152 OFFCURVE",
"96 152 CURVE SMOOTH"
);
},
{
closed = 1;
nodes = (
"107 0 OFFCURVE",
"127 20 OFFCURVE",
"127 47 CURVE SMOOTH",
"127 66 OFFCURVE",
"114 83 OFFCURVE",
"95 83 CURVE SMOOTH",
"74 83 OFFCURVE",
"55 61 OFFCURVE",
"55 37 CURVE SMOOTH",
"55 16 OFFCURVE",
"68 0 OFFCURVE",
"87 0 CURVE SMOOTH"
);
}
);
};
layerId = "218416E4-0B36-4DBB-8D0A-D6BB29FB6576";
paths = (
{
closed = 1;
nodes = (
"112 152 OFFCURVE",
"125 165 OFFCURVE",
"125 181 CURVE SMOOTH",
"125 663 LINE SMOOTH",
"125 679 OFFCURVE",
"112 693 OFFCURVE",
"96 693 CURVE SMOOTH",
"80 693 OFFCURVE",
"67 679 OFFCURVE",
"67 663 CURVE SMOOTH",
"67 181 LINE SMOOTH",
"67 165 OFFCURVE",
"80 152 OFFCURVE",
"96 152 CURVE SMOOTH"
);
},
{
closed = 1;
nodes = (
"107 0 OFFCURVE",
"127 20 OFFCURVE",
"127 47 CURVE SMOOTH",
"127 66 OFFCURVE",
"114 83 OFFCURVE",
"95 83 CURVE SMOOTH",
"74 83 OFFCURVE",
"55 61 OFFCURVE",
"55 37 CURVE SMOOTH",
"55 16 OFFCURVE",
"68 0 OFFCURVE",
"87 0 CURVE SMOOTH"
);
}
);
userData = {
com.fontlab.hintData = {
hhints = (
{
position = 0;
width = 83;
}
);
vhints = (
{
position = 55;
width = 72;
},
{
position = 67;
width = 58;
}
);
};
};
width = 196;
},
{
background = {
paths = (
{
closed = 1;
nodes = (
"132 168 OFFCURVE",
"153 190 OFFCURVE",
"153 217 CURVE SMOOTH",
"153 625 LINE SMOOTH",
"153 651 OFFCURVE",
"132 675 OFFCURVE",
"104 675 CURVE SMOOTH",
"77 675 OFFCURVE",
"55 651 OFFCURVE",
"55 625 CURVE SMOOTH",
"55 217 LINE SMOOTH",
"55 190 OFFCURVE",
"77 168 OFFCURVE",
"104 168 CURVE SMOOTH"
);
},
{
closed = 1;
nodes = (
"125 0 OFFCURVE",
"155 28 OFFCURVE",
"155 65 CURVE SMOOTH",
"155 94 OFFCURVE",
"134 121 OFFCURVE",
"103 121 CURVE SMOOTH",
"73 121 OFFCURVE",
"44 90 OFFCURVE",
"44 56 CURVE SMOOTH",
"44 25 OFFCURVE",
"65 0 OFFCURVE",
"96 0 CURVE SMOOTH"
);
}
);
};
layerId = "BB1A411A-CAFC-47D3-A925-066104B707B4";
paths = (
{
closed = 1;
nodes = (
"132 168 OFFCURVE",
"153 190 OFFCURVE",
"153 217 CURVE SMOOTH",
"153 625 LINE SMOOTH",
"153 651 OFFCURVE",
"132 675 OFFCURVE",
"104 675 CURVE SMOOTH",
"77 675 OFFCURVE",
"55 651 OFFCURVE",
"55 625 CURVE SMOOTH",
"55 217 LINE SMOOTH",
"55 190 OFFCURVE",
"77 168 OFFCURVE",
"104 168 CURVE SMOOTH"
);
},
{
closed = 1;
nodes = (
"125 0 OFFCURVE",
"155 28 OFFCURVE",
"155 65 CURVE SMOOTH",
"155 94 OFFCURVE",
"134 121 OFFCURVE",
"103 121 CURVE SMOOTH",
"73 121 OFFCURVE",
"44 90 OFFCURVE",
"44 56 CURVE SMOOTH",
"44 25 OFFCURVE",
"65 0 OFFCURVE",
"96 0 CURVE SMOOTH"
);
}
);
userData = {
com.fontlab.hintData = {
hhints = (
{
position = 0;
width = 121;
}
);
vhints = (
{
position = 44;
width = 111;
},
{
position = 55;
width = 98;
}
);
};
};
width = 222;
}
);
unicode = 0021;
},
{
glyphname = quotedbl;
lastChange = "2019-12-06 19:21:55 +0000";
layers = (
{
background = {
paths = (
{
closed = 1;
nodes = (
"227 521 OFFCURVE",
"236 529 OFFCURVE",
"236 540 CURVE SMOOTH",
"236 679 LINE SMOOTH",
"236 690 OFFCURVE",
"227 698 OFFCURVE",
"217 698 CURVE SMOOTH",
"206 698 OFFCURVE",
"198 690 OFFCURVE",
"198 679 CURVE SMOOTH",
"198 540 LINE SMOOTH",
"198 529 OFFCURVE",
"206 521 OFFCURVE",
"217 521 CURVE SMOOTH"
);
},
{
closed = 1;
nodes = (
"103 521 OFFCURVE",
"112 529 OFFCURVE",
"112 540 CURVE SMOOTH",
"112 679 LINE SMOOTH",
"112 690 OFFCURVE",
"103 698 OFFCURVE",
"93 698 CURVE SMOOTH",
"82 698 OFFCURVE",
"74 690 OFFCURVE",
"74 679 CURVE SMOOTH",
"74 540 LINE SMOOTH",
"74 529 OFFCURVE",
"82 521 OFFCURVE",
"93 521 CURVE SMOOTH"
);
}
);
};
layerId = master01;
paths = (
{
closed = 1;
nodes = (
"227 521 OFFCURVE",
"236 529 OFFCURVE",
"236 540 CURVE SMOOTH",
"236 679 LINE SMOOTH",
"236 690 OFFCURVE",
"227 698 OFFCURVE",
"217 698 CURVE SMOOTH",
"206 698 OFFCURVE",
"198 690 OFFCURVE",
"198 679 CURVE SMOOTH",
"198 540 LINE SMOOTH",
"198 529 OFFCURVE",
"206 521 OFFCURVE",
"217 521 CURVE SMOOTH"
);
},
{
closed = 1;
nodes = (
"103 521 OFFCURVE",
"112 529 OFFCURVE",
"112 540 CURVE SMOOTH",
"112 679 LINE SMOOTH",
"112 690 OFFCURVE",
"103 698 OFFCURVE",
"93 698 CURVE SMOOTH",
"82 698 OFFCURVE",
"74 690 OFFCURVE",
"74 679 CURVE SMOOTH",
"74 540 LINE SMOOTH",
"74 529 OFFCURVE",
"82 521 OFFCURVE",
"93 521 CURVE SMOOTH"
);
}
);
userData = {
com.fontlab.hintData = {
hhints = (
{
position = 521;
width = 177;
}
);
vhints = (
{
position = 74;
width = 38;
},
{
position = 198;
width = 38;
}
);
};
};
width = 303;
},
{
background = {
paths = (
{
closed = 1;
nodes = (
"231 500 OFFCURVE",
"244 512 OFFCURVE",
"244 528 CURVE SMOOTH",
"244 662 LINE SMOOTH",
"244 677 OFFCURVE",
"231 690 OFFCURVE",
"216 690 CURVE SMOOTH",
"200 690 OFFCURVE",
"188 677 OFFCURVE",
"188 662 CURVE SMOOTH",
"188 528 LINE SMOOTH",
"188 512 OFFCURVE",
"200 500 OFFCURVE",
"216 500 CURVE SMOOTH"
);
},
{
closed = 1;
nodes = (
"112 500 OFFCURVE",
"125 512 OFFCURVE",
"125 528 CURVE SMOOTH",
"125 662 LINE SMOOTH",
"125 677 OFFCURVE",
"112 690 OFFCURVE",
"97 690 CURVE SMOOTH",
"81 690 OFFCURVE",
"69 677 OFFCURVE",
"69 662 CURVE SMOOTH",
"69 528 LINE SMOOTH",
"69 512 OFFCURVE",
"81 500 OFFCURVE",
"97 500 CURVE SMOOTH"
);
}
);
};
layerId = "218416E4-0B36-4DBB-8D0A-D6BB29FB6576";
paths = (
{
closed = 1;
nodes = (
"231 500 OFFCURVE",
"244 512 OFFCURVE",
"244 528 CURVE SMOOTH",
"244 662 LINE SMOOTH",
"244 677 OFFCURVE",
"231 690 OFFCURVE",
"216 690 CURVE SMOOTH",
"200 690 OFFCURVE",
"188 677 OFFCURVE",
"188 662 CURVE SMOOTH",
"188 528 LINE SMOOTH",
"188 512 OFFCURVE",
"200 500 OFFCURVE",
"216 500 CURVE SMOOTH"
);
},
{
closed = 1;
nodes = (
"112 500 OFFCURVE",
"125 512 OFFCURVE",
"125 528 CURVE SMOOTH",
"125 662 LINE SMOOTH",
"125 677 OFFCURVE",
"112 690 OFFCURVE",
"97 690 CURVE SMOOTH",
"81 690 OFFCURVE",
"69 677 OFFCURVE",
"69 662 CURVE SMOOTH",
"69 528 LINE SMOOTH",
"69 512 OFFCURVE",
"81 500 OFFCURVE",
"97 500 CURVE SMOOTH"
);
}
);
userData = {
com.fontlab.hintData = {
hhints = (
{
position = 500;
width = 190;
}
);
vhints = (
{
position = 69;
width = 56;
},
{
position = 188;
width = 56;
}
);
};
};
width = 313;
},
{
background = {
paths = (
{
closed = 1;
nodes = (
"267 454 OFFCURVE",
"290 475 OFFCURVE",
"290 502 CURVE SMOOTH",
"290 624 LINE SMOOTH",
"290 650 OFFCURVE",
"267 672 OFFCURVE",
"241 672 CURVE SMOOTH",
"214 672 OFFCURVE",
"193 650 OFFCURVE",
"193 624 CURVE SMOOTH",
"193 502 LINE SMOOTH",
"193 475 OFFCURVE",
"214 454 OFFCURVE",
"241 454 CURVE SMOOTH"
);
},
{
closed = 1;
nodes = (
"119 454 OFFCURVE",
"141 475 OFFCURVE",
"141 502 CURVE SMOOTH",
"141 624 LINE SMOOTH",
"141 650 OFFCURVE",
"119 672 OFFCURVE",
"93 672 CURVE SMOOTH",
"66 672 OFFCURVE",
"45 650 OFFCURVE",
"45 624 CURVE SMOOTH",
"45 502 LINE SMOOTH",
"45 475 OFFCURVE",
"66 454 OFFCURVE",
"93 454 CURVE SMOOTH"
);
}
);
};
layerId = "BB1A411A-CAFC-47D3-A925-066104B707B4";
paths = (
{
closed = 1;
nodes = (
"267 454 OFFCURVE",
"290 475 OFFCURVE",
"290 502 CURVE SMOOTH",
"290 624 LINE SMOOTH",
"290 650 OFFCURVE",
"267 672 OFFCURVE",
"241 672 CURVE SMOOTH",
"214 672 OFFCURVE",
"193 650 OFFCURVE",
"193 624 CURVE SMOOTH",
"193 502 LINE SMOOTH",
"193 475 OFFCURVE",
"214 454 OFFCURVE",
"241 454 CURVE SMOOTH"
);
},
{
closed = 1;
nodes = (
"119 454 OFFCURVE",
"141 475 OFFCURVE",
"141 502 CURVE SMOOTH",
"141 624 LINE SMOOTH",
"141 650 OFFCURVE",
"119 672 OFFCURVE",
"93 672 CURVE SMOOTH",
"66 672 OFFCURVE",
"45 650 OFFCURVE",
"45 624 CURVE SMOOTH",
"45 502 LINE SMOOTH",
"45 475 OFFCURVE",
"66 454 OFFCURVE",
"93 454 CURVE SMOOTH"
);
}
);
userData = {
com.fontlab.hintData = {
hhints = (
{
position = 454;
width = 218;
}
);
vhints = (
{
position = 45;
width = 96;
},
{
position = 193;
width = 97;
}
);
};
};
width = 339;
}
);
unicode = 0022;
},
{
glyphname = numbersign;
lastChange = "2019-12-06 19:21:55 +0000";
layers = (
{
background = {
paths = (
{
closed = 1;
nodes = (
"185 0 OFFCURVE",
"192 5 OFFCURVE",
"195 14 CURVE SMOOTH",
"254 219 LINE",
"436 219 LINE",
"381 34 LINE SMOOTH",
"379 27 OFFCURVE",
"378 22 OFFCURVE",
"378 19 CURVE SMOOTH",
"378 8 OFFCURVE",
"385 0 OFFCURVE",
"397 0 CURVE SMOOTH",
"405 0 OFFCURVE",
"411 5 OFFCURVE",
"414 14 CURVE SMOOTH",
"474 219 LINE",
"624 219 LINE SMOOTH",
"634 219 OFFCURVE",
"643 227 OFFCURVE",
"643 238 CURVE SMOOTH",
"643 248 OFFCURVE",
"634 256 OFFCURVE",
"624 256 CURVE SMOOTH",
"484 256 LINE",
"540 447 LINE",
"671 447 LINE SMOOTH",
"681 447 OFFCURVE",
"690 455 OFFCURVE",
"690 466 CURVE SMOOTH",
"690 476 OFFCURVE",
"681 485 OFFCURVE",
"671 485 CURVE SMOOTH",
"551 485 LINE",
"604 666 LINE SMOOTH",
"606 672 OFFCURVE",
"607 677 OFFCURVE",
"607 681 CURVE SMOOTH",
"607 688 OFFCURVE",
"600 697 OFFCURVE",
"588 697 CURVE SMOOTH",
"580 697 OFFCURVE",
"573 692 OFFCURVE",
"571 684 CURVE SMOOTH",
"513 485 LINE",
"331 485 LINE",
"384 665 LINE SMOOTH",
"386 671 OFFCURVE",
"387 675 OFFCURVE",
"387 679 CURVE SMOOTH",
"387 689 OFFCURVE",
"380 697 OFFCURVE",
"369 697 CURVE SMOOTH",
"360 697 OFFCURVE",
"353 692 OFFCURVE",
"351 684 CURVE SMOOTH",
"294 485 LINE",
"127 485 LINE SMOOTH",
"116 485 OFFCURVE",
"108 476 OFFCURVE",
"108 466 CURVE SMOOTH",
"108 455 OFFCURVE",
"116 447 OFFCURVE",
"127 447 CURVE SMOOTH",
"282 447 LINE",
"227 256 LINE",
"80 256 LINE SMOOTH",
"70 256 OFFCURVE",
"61 248 OFFCURVE",
"61 238 CURVE SMOOTH",
"61 227 OFFCURVE",
"70 219 OFFCURVE",
"80 219 CURVE SMOOTH",
"216 219 LINE",
"161 33 LINE SMOOTH",
"159 26 OFFCURVE",
"158 22 OFFCURVE",
"158 17 CURVE SMOOTH",
"158 8 OFFCURVE",
"165 0 OFFCURVE",
"177 0 CURVE SMOOTH"
);
},
{
closed = 1;
nodes = (
"321 447 LINE",
"502 447 LINE",
"447 256 LINE",
"264 256 LINE"
);
}
);
};
layerId = master01;
paths = (
{
closed = 1;
nodes = (
"185 0 OFFCURVE",
"192 5 OFFCURVE",
"195 14 CURVE SMOOTH",
"254 219 LINE",
"436 219 LINE",
"381 34 LINE SMOOTH",
"379 27 OFFCURVE",
"378 22 OFFCURVE",
"378 19 CURVE SMOOTH",
"378 8 OFFCURVE",
"385 0 OFFCURVE",
"397 0 CURVE SMOOTH",
"405 0 OFFCURVE",
"411 5 OFFCURVE",
"414 14 CURVE SMOOTH",
"474 219 LINE",
"624 219 LINE SMOOTH",
"634 219 OFFCURVE",
"643 227 OFFCURVE",
"643 238 CURVE SMOOTH",
"643 248 OFFCURVE",
"634 256 OFFCURVE",
"624 256 CURVE SMOOTH",
"484 256 LINE",
"540 447 LINE",
"671 447 LINE SMOOTH",
"681 447 OFFCURVE",
"690 455 OFFCURVE",
"690 466 CURVE SMOOTH",
"690 476 OFFCURVE",
"681 485 OFFCURVE",
"671 485 CURVE SMOOTH",
"551 485 LINE",
"604 666 LINE SMOOTH",
"606 672 OFFCURVE",
"607 677 OFFCURVE",
"607 681 CURVE SMOOTH",
"607 688 OFFCURVE",
"600 697 OFFCURVE",
"588 697 CURVE SMOOTH",
"580 697 OFFCURVE",
"573 692 OFFCURVE",
"571 684 CURVE SMOOTH",
"513 485 LINE",
"331 485 LINE",
"384 665 LINE SMOOTH",
"386 671 OFFCURVE",
"387 675 OFFCURVE",
"387 679 CURVE SMOOTH",
"387 689 OFFCURVE",
"380 697 OFFCURVE",
"369 697 CURVE SMOOTH",
"360 697 OFFCURVE",
"353 692 OFFCURVE",
"351 684 CURVE SMOOTH",
"294 485 LINE",
"127 485 LINE SMOOTH",
"116 485 OFFCURVE",
"108 476 OFFCURVE",
"108 466 CURVE SMOOTH",
"108 455 OFFCURVE",
"116 447 OFFCURVE",
"127 447 CURVE SMOOTH",
"282 447 LINE",
"227 256 LINE",
"80 256 LINE SMOOTH",
"70 256 OFFCURVE",
"61 248 OFFCURVE",
"61 238 CURVE SMOOTH",
"61 227 OFFCURVE",
"70 219 OFFCURVE",
"80 219 CURVE SMOOTH",
"216 219 LINE",
"161 33 LINE SMOOTH",
"159 26 OFFCURVE",
"158 22 OFFCURVE",
"158 17 CURVE SMOOTH",
"158 8 OFFCURVE",
"165 0 OFFCURVE",
"177 0 CURVE SMOOTH"
);
},
{
closed = 1;
nodes = (
"321 447 LINE",
"502 447 LINE",
"447 256 LINE",
"264 256 LINE"
);
}
);
userData = {
com.fontlab.hintData = {
hhints = (
{
position = 0;
width = 21;
},
{
position = 219;
width = 37;
},
{
position = 447;
width = 38;
}
);
vhints = (
{
position = 158;
width = 37;
},
{
position = 351;
width = 36;
},
{
position = 378;
width = 36;
},
{
position = 571;
width = 36;
}
);
};
};
width = 736;
},
{
background = {
paths = (
{
closed = 1;
nodes = (
"193 0 OFFCURVE",
"205 8 OFFCURVE",
"209 20 CURVE SMOOTH",
"264 210 LINE",
"417 210 LINE",
"369 46 LINE SMOOTH",
"366 37 OFFCURVE",
"365 31 OFFCURVE",
"365 28 CURVE SMOOTH",
"365 13 OFFCURVE",
"376 0 OFFCURVE",
"393 0 CURVE SMOOTH",
"404 0 OFFCURVE",
"416 8 OFFCURVE",
"420 20 CURVE SMOOTH",
"475 210 LINE",
"611 210 LINE SMOOTH",
"626 210 OFFCURVE",
"639 222 OFFCURVE",
"639 238 CURVE SMOOTH",
"639 253 OFFCURVE",
"626 266 OFFCURVE",
"611 266 CURVE SMOOTH",
"491 266 LINE",
"539 429 LINE",
"656 429 LINE SMOOTH",
"671 429 OFFCURVE",
"684 441 OFFCURVE",
"684 457 CURVE SMOOTH",
"684 472 OFFCURVE",
"671 485 OFFCURVE",
"656 485 CURVE SMOOTH",
"555 485 LINE",
"602 646 LINE SMOOTH",
"604 653 OFFCURVE",
"605 658 OFFCURVE",
"605 661 CURVE SMOOTH",
"605 675 OFFCURVE",
"594 689 OFFCURVE",
"577 689 CURVE SMOOTH",
"565 689 OFFCURVE",
"553 681 OFFCURVE",
"550 669 CURVE SMOOTH",
"497 485 LINE",
"344 485 LINE",
"391 645 LINE SMOOTH",
"393 651 OFFCURVE",
"394 656 OFFCURVE",
"394 662 CURVE SMOOTH",
"394 676 OFFCURVE",
"383 689 OFFCURVE",
"366 689 CURVE SMOOTH",
"354 689 OFFCURVE",
"342 681 OFFCURVE",
"339 669 CURVE SMOOTH",
"286 485 LINE",
"134 485 LINE SMOOTH",
"118 485 OFFCURVE",
"106 472 OFFCURVE",
"106 457 CURVE SMOOTH",
"106 441 OFFCURVE",
"118 429 OFFCURVE",
"134 429 CURVE SMOOTH",
"269 429 LINE",
"222 266 LINE",
"89 266 LINE SMOOTH",
"73 266 OFFCURVE",
"61 253 OFFCURVE",
"61 238 CURVE SMOOTH",
"61 222 OFFCURVE",
"73 210 OFFCURVE",
"89 210 CURVE SMOOTH",
"206 210 LINE",
"158 45 LINE SMOOTH",
"155 36 OFFCURVE",
"154 31 OFFCURVE",
"154 26 CURVE SMOOTH",
"154 13 OFFCURVE",
"165 0 OFFCURVE",
"182 0 CURVE SMOOTH"
);
},
{
closed = 1;
nodes = (
"328 429 LINE",
"480 429 LINE",
"433 266 LINE",
"280 266 LINE"
);
}
);
};
layerId = "218416E4-0B36-4DBB-8D0A-D6BB29FB6576";
paths = (
{
closed = 1;
nodes = (
"193 0 OFFCURVE",
"205 8 OFFCURVE",
"209 20 CURVE SMOOTH",
"264 210 LINE",
"417 210 LINE",
"369 46 LINE SMOOTH",
"366 37 OFFCURVE",
"365 31 OFFCURVE",
"365 28 CURVE SMOOTH",
"365 13 OFFCURVE",
"376 0 OFFCURVE",
"393 0 CURVE SMOOTH",
"404 0 OFFCURVE",
"416 8 OFFCURVE",
"420 20 CURVE SMOOTH",
"475 210 LINE",
"611 210 LINE SMOOTH",
"626 210 OFFCURVE",
"639 222 OFFCURVE",
"639 238 CURVE SMOOTH",
"639 253 OFFCURVE",
"626 266 OFFCURVE",
"611 266 CURVE SMOOTH",
"491 266 LINE",
"539 429 LINE",
"656 429 LINE SMOOTH",
"671 429 OFFCURVE",
"684 441 OFFCURVE",
"684 457 CURVE SMOOTH",
"684 472 OFFCURVE",
"671 485 OFFCURVE",
"656 485 CURVE SMOOTH",
"555 485 LINE",
"602 646 LINE SMOOTH",
"604 653 OFFCURVE",
"605 658 OFFCURVE",
"605 661 CURVE SMOOTH",
"605 675 OFFCURVE",
"594 689 OFFCURVE",
"577 689 CURVE SMOOTH",
"565 689 OFFCURVE",
"553 681 OFFCURVE",
"550 669 CURVE SMOOTH",
"497 485 LINE",
"344 485 LINE",
"391 645 LINE SMOOTH",
"393 651 OFFCURVE",
"394 656 OFFCURVE",
"394 662 CURVE SMOOTH",
"394 676 OFFCURVE",
"383 689 OFFCURVE",
"366 689 CURVE SMOOTH",
"354 689 OFFCURVE",
"342 681 OFFCURVE",
"339 669 CURVE SMOOTH",
"286 485 LINE",
"134 485 LINE SMOOTH",
"118 485 OFFCURVE",
"106 472 OFFCURVE",
"106 457 CURVE SMOOTH",
"106 441 OFFCURVE",
"118 429 OFFCURVE",
"134 429 CURVE SMOOTH",
"269 429 LINE",
"222 266 LINE",
"89 266 LINE SMOOTH",
"73 266 OFFCURVE",
"61 253 OFFCURVE",
"61 238 CURVE SMOOTH",
"61 222 OFFCURVE",
"73 210 OFFCURVE",
"89 210 CURVE SMOOTH",
"206 210 LINE",
"158 45 LINE SMOOTH",
"155 36 OFFCURVE",
"154 31 OFFCURVE",
"154 26 CURVE SMOOTH",
"154 13 OFFCURVE",
"165 0 OFFCURVE",
"182 0 CURVE SMOOTH"
);
},
{
closed = 1;
nodes = (
"328 429 LINE",
"480 429 LINE",
"433 266 LINE",
"280 266 LINE"
);
}
);
userData = {
com.fontlab.hintData = {
hhints = (
{
position = 0;
width = 21;
},
{
position = 210;
width = 56;
},
{
position = 429;
width = 56;
},
{
position = 669;
width = 20;
}
);
vhints = (
{
position = 154;
width = 55;
},
{
position = 339;
width = 55;
},
{
position = 365;
width = 55;
},
{
position = 550;
width = 55;
}
);
};
};
width = 746;
},
{
background = {
paths = (
{
closed = 1;
nodes = (
"214 0 OFFCURVE",
"235 11 OFFCURVE",
"242 34 CURVE SMOOTH",
"287 191 LINE",
"378 191 LINE",
"343 72 LINE SMOOTH",
"340 62 OFFCURVE",
"339 53 OFFCURVE",
"339 48 CURVE SMOOTH",
"339 23 OFFCURVE",
"358 0 OFFCURVE",
"387 0 CURVE SMOOTH",
"406 0 OFFCURVE",
"426 10 OFFCURVE",
"433 34 CURVE SMOOTH",
"479 191 LINE",
"585 191 LINE SMOOTH",
"611 191 OFFCURVE",
"633 212 OFFCURVE",
"633 239 CURVE SMOOTH",
"633 264 OFFCURVE",
"611 287 OFFCURVE",
"585 287 CURVE SMOOTH",
"507 287 LINE",
"536 390 LINE",
"626 390 LINE SMOOTH",
"651 390 OFFCURVE",
"674 411 OFFCURVE",
"674 438 CURVE SMOOTH",
"674 463 OFFCURVE",
"651 486 OFFCURVE",
"626 486 CURVE SMOOTH",
"564 486 LINE",
"599 603 LINE SMOOTH",
"601 610 OFFCURVE",
"602 619 OFFCURVE",
"602 623 CURVE SMOOTH",
"602 647 OFFCURVE",
"583 671 OFFCURVE",
"554 671 CURVE SMOOTH",
"534 671 OFFCURVE",
"514 658 OFFCURVE",
"508 637 CURVE SMOOTH",
"464 486 LINE",
"373 486 LINE",
"407 602 LINE SMOOTH",
"409 610 OFFCURVE",
"411 615 OFFCURVE",
"411 624 CURVE SMOOTH",
"411 649 OFFCURVE",
"392 671 OFFCURVE",
"363 671 CURVE SMOOTH",
"343 671 OFFCURVE",
"322 658 OFFCURVE",
"316 637 CURVE SMOOTH",
"273 486 LINE",
"152 486 LINE SMOOTH",
"125 486 OFFCURVE",
"104 463 OFFCURVE",
"104 438 CURVE SMOOTH",
"104 411 OFFCURVE",
"125 390 OFFCURVE",
"152 390 CURVE SMOOTH",
"244 390 LINE",
"214 287 LINE",
"111 287 LINE SMOOTH",
"84 287 OFFCURVE",
"63 264 OFFCURVE",
"63 239 CURVE SMOOTH",
"63 212 OFFCURVE",
"84 191 OFFCURVE",
"111 191 CURVE SMOOTH",
"186 191 LINE",
"152 71 LINE SMOOTH",
"149 61 OFFCURVE",
"147 55 OFFCURVE",
"147 46 CURVE SMOOTH",
"147 23 OFFCURVE",
"166 0 OFFCURVE",
"195 0 CURVE SMOOTH"
);
},
{
closed = 1;
nodes = (
"344 390 LINE",
"436 390 LINE",
"406 287 LINE",
"315 287 LINE"
);
}
);
};
layerId = "BB1A411A-CAFC-47D3-A925-066104B707B4";
paths = (
{
closed = 1;
nodes = (
"214 0 OFFCURVE",
"235 11 OFFCURVE",
"242 34 CURVE SMOOTH",
"287 191 LINE",
"378 191 LINE",
"343 72 LINE SMOOTH",
"340 62 OFFCURVE",
"339 53 OFFCURVE",
"339 48 CURVE SMOOTH",
"339 23 OFFCURVE",
"358 0 OFFCURVE",
"387 0 CURVE SMOOTH",
"406 0 OFFCURVE",
"426 10 OFFCURVE",
"433 34 CURVE SMOOTH",
"479 191 LINE",
"585 191 LINE SMOOTH",
"611 191 OFFCURVE",
"633 212 OFFCURVE",
"633 239 CURVE SMOOTH",
"633 264 OFFCURVE",
"611 287 OFFCURVE",
"585 287 CURVE SMOOTH",
"507 287 LINE",
"536 390 LINE",
"626 390 LINE SMOOTH",
"651 390 OFFCURVE",
"674 411 OFFCURVE",
"674 438 CURVE SMOOTH",
"674 463 OFFCURVE",
"651 486 OFFCURVE",
"626 486 CURVE SMOOTH",
"564 486 LINE",
"599 603 LINE SMOOTH",
"601 610 OFFCURVE",
"602 619 OFFCURVE",
"602 623 CURVE SMOOTH",
"602 647 OFFCURVE",
"583 671 OFFCURVE",
"554 671 CURVE SMOOTH",
"534 671 OFFCURVE",
"514 658 OFFCURVE",
"508 637 CURVE SMOOTH",
"464 486 LINE",
"373 486 LINE",
"407 602 LINE SMOOTH",
"409 610 OFFCURVE",
"411 615 OFFCURVE",
"411 624 CURVE SMOOTH",
"411 649 OFFCURVE",
"392 671 OFFCURVE",
"363 671 CURVE SMOOTH",
"343 671 OFFCURVE",
"322 658 OFFCURVE",
"316 637 CURVE SMOOTH",
"273 486 LINE",
"152 486 LINE SMOOTH",
"125 486 OFFCURVE",
"104 463 OFFCURVE",
"104 438 CURVE SMOOTH",
"104 411 OFFCURVE",
"125 390 OFFCURVE",
"152 390 CURVE SMOOTH",
"244 390 LINE",
"214 287 LINE",
"111 287 LINE SMOOTH",
"84 287 OFFCURVE",
"63 264 OFFCURVE",
"63 239 CURVE SMOOTH",
"63 212 OFFCURVE",
"84 191 OFFCURVE",
"111 191 CURVE SMOOTH",
"186 191 LINE",
"152 71 LINE SMOOTH",
"149 61 OFFCURVE",
"147 55 OFFCURVE",
"147 46 CURVE SMOOTH",
"147 23 OFFCURVE",
"166 0 OFFCURVE",
"195 0 CURVE SMOOTH"
);
},
{
closed = 1;
nodes = (
"344 390 LINE",
"436 390 LINE",
"406 287 LINE",
"315 287 LINE"
);
}
);
userData = {
com.fontlab.hintData = {
hhints = (
{
position = 0;
width = 21;
},
{
position = 191;
width = 96;
},
{
position = 390;
width = 96;
}
);
vhints = (
{
position = 147;
width = 95;
},
{
position = 316;
width = 95;
},
{
position = 339;
width = 94;
},
{
position = 508;
width = 94;
}
);
};
};
width = 772;
}
);
unicode = 0023;
},
{
glyphname = dollar;
lastChange = "2019-12-19 04:18:24 +0000";
layers = (
{
background = {
paths = (
{
closed = 1;
nodes = (
"292 -77 OFFCURVE",
"300 -69 OFFCURVE",
"300 -58 CURVE SMOOTH",
"300 0 LINE",
"425 16 OFFCURVE",
"512 83 OFFCURVE",
"512 189 CURVE SMOOTH",
"512 275 OFFCURVE",
"437 341 OFFCURVE",
"300 380 CURVE",
"300 658 LINE",
"350 658 OFFCURVE",
"458 637 OFFCURVE",
"473 554 CURVE SMOOTH",
"474 546 OFFCURVE",
"483 539 OFFCURVE",
"493 539 CURVE SMOOTH",
"503 539 OFFCURVE",
"510 546 OFFCURVE",
"510 554 CURVE SMOOTH",
"510 654 OFFCURVE",
"392 688 OFFCURVE",
"300 688 CURVE",
"300 743 LINE SMOOTH",
"300 753 OFFCURVE",
"292 762 OFFCURVE",
"282 762 CURVE SMOOTH",
"272 762 OFFCURVE",
"264 753 OFFCURVE",
"264 743 CURVE SMOOTH",
"264 687 LINE",
"171 679 OFFCURVE",
"73 633 OFFCURVE",
"73 521 CURVE SMOOTH",
"73 431 OFFCURVE",
"170 379 OFFCURVE",
"264 349 CURVE",
"264 34 LINE",
"186 43 OFFCURVE",
"106 80 OFFCURVE",
"80 154 CURVE",
"75 165 OFFCURVE",
"67 172 OFFCURVE",
"58 172 CURVE SMOOTH",
"44 172 OFFCURVE",
"36 160 OFFCURVE",
"36 154 CURVE SMOOTH",
"36 150 OFFCURVE",
"37 146 OFFCURVE",
"38 142 CURVE SMOOTH",
"68 61 OFFCURVE",
"156 7 OFFCURVE",
"264 -1 CURVE",
"264 -58 LINE SMOOTH",
"264 -69 OFFCURVE",
"272 -77 OFFCURVE",
"282 -77 CURVE SMOOTH"
);
},
{
closed = 1;
nodes = (
"300 339 LINE",
"457 289 OFFCURVE",
"468 226 OFFCURVE",
"468 195 CURVE SMOOTH",
"468 83 OFFCURVE",
"378 41 OFFCURVE",
"300 34 CURVE"
);
},
{
closed = 1;
nodes = (
"167 425 OFFCURVE",
"118 467 OFFCURVE",
"118 518 CURVE SMOOTH",
"118 573 OFFCURVE",
"143 638 OFFCURVE",
"264 655 CURVE",
"264 391 LINE"
);
}
);
};
layerId = master01;
paths = (
{
closed = 1;
nodes = (
"292 -77 OFFCURVE",
"300 -69 OFFCURVE",
"300 -58 CURVE SMOOTH",
"300 0 LINE",
"425 16 OFFCURVE",
"512 83 OFFCURVE",
"512 189 CURVE SMOOTH",
"512 275 OFFCURVE",
"437 341 OFFCURVE",
"300 380 CURVE",
"300 658 LINE",
"350 658 OFFCURVE",
"458 637 OFFCURVE",
"473 554 CURVE SMOOTH",
"474 546 OFFCURVE",
"483 539 OFFCURVE",
"493 539 CURVE SMOOTH",
"503 539 OFFCURVE",
"510 546 OFFCURVE",
"510 554 CURVE SMOOTH",
"510 654 OFFCURVE",
"392 688 OFFCURVE",
"300 688 CURVE",
"300 743 LINE SMOOTH",
"300 753 OFFCURVE",
"292 762 OFFCURVE",
"282 762 CURVE SMOOTH",
"272 762 OFFCURVE",
"264 753 OFFCURVE",
"264 743 CURVE SMOOTH",
"264 687 LINE",
"171 679 OFFCURVE",
"73 633 OFFCURVE",
"73 521 CURVE SMOOTH",
"73 431 OFFCURVE",
"170 379 OFFCURVE",
"264 349 CURVE",
"264 34 LINE",
"186 43 OFFCURVE",
"106 80 OFFCURVE",
"80 154 CURVE",
"75 165 OFFCURVE",
"67 172 OFFCURVE",
"58 172 CURVE SMOOTH",
"44 172 OFFCURVE",
"36 160 OFFCURVE",
"36 154 CURVE SMOOTH",
"36 150 OFFCURVE",
"37 146 OFFCURVE",
"38 142 CURVE SMOOTH",
"68 61 OFFCURVE",
"156 7 OFFCURVE",
"264 -1 CURVE",
"264 -58 LINE SMOOTH",
"264 -69 OFFCURVE",
"272 -77 OFFCURVE",
"282 -77 CURVE SMOOTH"
);
},
{
closed = 1;
nodes = (
"300 339 LINE",
"457 289 OFFCURVE",
"468 226 OFFCURVE",
"468 195 CURVE SMOOTH",
"468 83 OFFCURVE",
"378 41 OFFCURVE",
"300 34 CURVE"
);
},
{
closed = 1;
nodes = (
"167 425 OFFCURVE",
"118 467 OFFCURVE",
"118 518 CURVE SMOOTH",
"118 573 OFFCURVE",
"143 638 OFFCURVE",
"264 655 CURVE",
"264 391 LINE"
);
}
);
userData = {
com.fontlab.hintData = {
hhints = (
{
position = -1;
width = 35;
},
{
position = 339;
width = 41;
},
{
position = 658;
width = 30;
}
);
vhints = (
{
position = 66;
width = 44;
},
{
position = 103;
width = 45;
},
{
position = 294;
width = 36;
},
{
position = 498;
width = 44;
}
);
};
};
width = 574;
},
{
background = {
paths = (
{
closed = 1;
nodes = (
"290 -74 OFFCURVE",
"303 -61 OFFCURVE",
"303 -46 CURVE SMOOTH",
"303 1 LINE",
"423 16 OFFCURVE",
"506 84 OFFCURVE",
"506 191 CURVE SMOOTH",
"506 279 OFFCURVE",
"440 342 OFFCURVE",
"303 382 CURVE",
"303 631 LINE",
"321 629 OFFCURVE",
"439 623 OFFCURVE",
"449 541 CURVE SMOOTH",
"451 527 OFFCURVE",
"462 517 OFFCURVE",
"478 517 CURVE SMOOTH",
"492 517 OFFCURVE",
"504 528 OFFCURVE",
"504 542 CURVE SMOOTH",
"504 646 OFFCURVE",
"391 680 OFFCURVE",
"303 680 CURVE",
"303 723 LINE SMOOTH",
"303 738 OFFCURVE",
"290 751 OFFCURVE",
"275 751 CURVE SMOOTH",
"260 751 OFFCURVE",
"248 738 OFFCURVE",
"248 723 CURVE SMOOTH",
"248 678 LINE",
"159 671 OFFCURVE",
"65 624 OFFCURVE",
"65 510 CURVE SMOOTH",
"65 418 OFFCURVE",
"158 366 OFFCURVE",
"248 337 CURVE",
"248 54 LINE",
"182 61 OFFCURVE",
"113 95 OFFCURVE",
"90 162 CURVE SMOOTH",
"85 175 OFFCURVE",
"74 185 OFFCURVE",
"60 185 CURVE SMOOTH",
"41 185 OFFCURVE",
"29 168 OFFCURVE",
"29 158 CURVE SMOOTH",
"29 149 OFFCURVE",
"31 145 OFFCURVE",
"32 142 CURVE SMOOTH",
"62 62 OFFCURVE",
"146 8 OFFCURVE",
"248 0 CURVE",
"248 -46 LINE SMOOTH",
"248 -61 OFFCURVE",
"260 -74 OFFCURVE",
"275 -74 CURVE SMOOTH"
);
},
{
closed = 1;
nodes = (
"303 321 LINE",
"434 279 OFFCURVE",
"444 225 OFFCURVE",
"444 197 CURVE SMOOTH",
"444 109 OFFCURVE",
"381 67 OFFCURVE",
"303 55 CURVE"
);
},
{
closed = 1;
nodes = (
"168 427 OFFCURVE",
"128 463 OFFCURVE",
"128 507 CURVE SMOOTH",
"128 556 OFFCURVE",
"149 612 OFFCURVE",
"248 627 CURVE",
"248 399 LINE"
);
}
);
};
layerId = "218416E4-0B36-4DBB-8D0A-D6BB29FB6576";
paths = (
{
closed = 1;
nodes = (
"290 -74 OFFCURVE",
"303 -61 OFFCURVE",
"303 -46 CURVE SMOOTH",
"303 1 LINE",
"423 16 OFFCURVE",
"506 84 OFFCURVE",
"506 191 CURVE SMOOTH",
"506 279 OFFCURVE",
"440 342 OFFCURVE",
"303 382 CURVE",
"303 631 LINE",
"321 629 OFFCURVE",
"439 623 OFFCURVE",
"449 541 CURVE SMOOTH",
"451 527 OFFCURVE",
"462 517 OFFCURVE",
"478 517 CURVE SMOOTH",
"492 517 OFFCURVE",
"504 528 OFFCURVE",
"504 542 CURVE SMOOTH",
"504 646 OFFCURVE",
"391 680 OFFCURVE",
"303 680 CURVE",
"303 723 LINE SMOOTH",
"303 738 OFFCURVE",
"290 751 OFFCURVE",
"275 751 CURVE SMOOTH",
"260 751 OFFCURVE",
"248 738 OFFCURVE",
"248 723 CURVE SMOOTH",
"248 678 LINE",
"159 671 OFFCURVE",
"65 624 OFFCURVE",
"65 510 CURVE SMOOTH",
"65 418 OFFCURVE",
"158 366 OFFCURVE",
"248 337 CURVE",
"248 54 LINE",
"182 61 OFFCURVE",
"113 95 OFFCURVE",
"90 162 CURVE SMOOTH",
"85 175 OFFCURVE",
"74 185 OFFCURVE",
"60 185 CURVE SMOOTH",
"41 185 OFFCURVE",
"29 168 OFFCURVE",
"29 158 CURVE SMOOTH",
"29 149 OFFCURVE",
"31 145 OFFCURVE",
"32 142 CURVE SMOOTH",
"62 62 OFFCURVE",
"146 8 OFFCURVE",
"248 0 CURVE",
"248 -46 LINE SMOOTH",
"248 -61 OFFCURVE",
"260 -74 OFFCURVE",
"275 -74 CURVE SMOOTH"
);
},
{
closed = 1;
nodes = (
"303 321 LINE",
"434 279 OFFCURVE",
"444 225 OFFCURVE",
"444 197 CURVE SMOOTH",
"444 109 OFFCURVE",
"381 67 OFFCURVE",
"303 55 CURVE"
);
},
{
closed = 1;
nodes = (
"168 427 OFFCURVE",
"128 463 OFFCURVE",
"128 507 CURVE SMOOTH",
"128 556 OFFCURVE",
"149 612 OFFCURVE",
"248 627 CURVE",
"248 399 LINE"
);
}
);
userData = {
com.fontlab.hintData = {
hhints = (
{
position = 0;
width = 54;
},
{
position = 321;
width = 61;
},
{
position = 631;
width = 49;
}
);
vhints = (
{
position = 64;
width = 61;
},
{
position = 100;
width = 63;
},
{
position = 283;
width = 55;
},
{
position = 479;
width = 62;
}
);
};
};
width = 569;
},
{
background = {
paths = (
{
closed = 1;
nodes = (
"309 -67 OFFCURVE",
"332 -45 OFFCURVE",
"332 -19 CURVE SMOOTH",
"332 4 LINE",
"442 24 OFFCURVE",
"516 92 OFFCURVE",
"516 196 CURVE SMOOTH",
"516 283 OFFCURVE",
"456 346 OFFCURVE",
"332 386 CURVE",
"332 570 LINE",
"364 565 OFFCURVE",
"414 551 OFFCURVE",
"419 511 CURVE SMOOTH",
"422 487 OFFCURVE",
"441 470 OFFCURVE",
"468 470 CURVE SMOOTH",
"492 470 OFFCURVE",
"514 490 OFFCURVE",
"514 515 CURVE SMOOTH",
"514 618 OFFCURVE",
"417 657 OFFCURVE",
"332 662 CURVE",
"332 680 LINE SMOOTH",
"332 705 OFFCURVE",
"309 728 OFFCURVE",
"283 728 CURVE SMOOTH",
"257 728 OFFCURVE",
"236 705 OFFCURVE",
"236 680 CURVE SMOOTH",
"236 659 LINE",
"150 648 OFFCURVE",
"70 599 OFFCURVE",
"70 486 CURVE SMOOTH",
"70 394 OFFCURVE",
"152 341 OFFCURVE",
"236 312 CURVE",
"236 98 LINE",
"191 108 OFFCURVE",
"151 134 OFFCURVE",
"136 177 CURVE SMOOTH",
"129 198 OFFCURVE",
"111 213 OFFCURVE",
"88 213 CURVE SMOOTH",
"57 213 OFFCURVE",
"37 184 OFFCURVE",
"37 166 CURVE SMOOTH",
"37 152 OFFCURVE",
"40 148 OFFCURVE",
"41 144 CURVE SMOOTH",
"70 68 OFFCURVE",
"144 16 OFFCURVE",
"236 3 CURVE",
"236 -19 LINE SMOOTH",
"236 -45 OFFCURVE",
"257 -67 OFFCURVE",
"283 -67 CURVE SMOOTH"
);
},
{
closed = 1;
nodes = (
"332 282 LINE",
"407 251 OFFCURVE",
"414 219 OFFCURVE",
"414 202 CURVE SMOOTH",
"414 145 OFFCURVE",
"379 114 OFFCURVE",
"332 101 CURVE"
);
},
{
closed = 1;
nodes = (
"194 438 OFFCURVE",
"173 460 OFFCURVE",
"173 483 CURVE SMOOTH",
"173 513 OFFCURVE",
"183 549 OFFCURVE",
"236 564 CURVE",
"236 419 LINE"
);
}
);
};
layerId = "BB1A411A-CAFC-47D3-A925-066104B707B4";
paths = (
{
closed = 1;
nodes = (
"309 -67 OFFCURVE",
"332 -45 OFFCURVE",
"332 -19 CURVE SMOOTH",
"332 4 LINE",
"442 24 OFFCURVE",
"516 92 OFFCURVE",
"516 196 CURVE SMOOTH",
"516 283 OFFCURVE",
"456 346 OFFCURVE",
"332 386 CURVE",
"332 570 LINE",
"364 565 OFFCURVE",
"414 551 OFFCURVE",
"419 511 CURVE SMOOTH",
"422 487 OFFCURVE",
"441 470 OFFCURVE",
"468 470 CURVE SMOOTH",
"492 470 OFFCURVE",
"514 490 OFFCURVE",
"514 515 CURVE SMOOTH",
"514 618 OFFCURVE",
"417 657 OFFCURVE",
"332 662 CURVE",
"332 680 LINE SMOOTH",
"332 705 OFFCURVE",
"309 728 OFFCURVE",
"283 728 CURVE SMOOTH",
"257 728 OFFCURVE",
"236 705 OFFCURVE",
"236 680 CURVE SMOOTH",
"236 659 LINE",
"150 648 OFFCURVE",
"70 599 OFFCURVE",
"70 486 CURVE SMOOTH",
"70 394 OFFCURVE",
"152 341 OFFCURVE",
"236 312 CURVE",
"236 98 LINE",
"191 108 OFFCURVE",
"151 134 OFFCURVE",
"136 177 CURVE SMOOTH",
"129 198 OFFCURVE",
"111 213 OFFCURVE",
"88 213 CURVE SMOOTH",
"57 213 OFFCURVE",
"37 184 OFFCURVE",
"37 166 CURVE SMOOTH",
"37 152 OFFCURVE",
"40 148 OFFCURVE",
"41 144 CURVE SMOOTH",
"70 68 OFFCURVE",
"144 16 OFFCURVE",
"236 3 CURVE",
"236 -19 LINE SMOOTH",
"236 -45 OFFCURVE",
"257 -67 OFFCURVE",
"283 -67 CURVE SMOOTH"
);
},
{
closed = 1;
nodes = (
"332 282 LINE",
"407 251 OFFCURVE",
"414 219 OFFCURVE",
"414 202 CURVE SMOOTH",
"414 145 OFFCURVE",
"379 114 OFFCURVE",
"332 101 CURVE"
);
},
{
closed = 1;
nodes = (
"194 438 OFFCURVE",
"173 460 OFFCURVE",
"173 483 CURVE SMOOTH",
"173 513 OFFCURVE",
"183 549 OFFCURVE",
"236 564 CURVE",
"236 419 LINE"
);
}
);
userData = {
com.fontlab.hintData = {
hhints = (
{
position = 3;
width = 95;
},
{
position = 570;
width = 92;
}
);
vhints = (
{
position = 95;
width = 103;
},
{
position = 261;
width = 96;
},
{
position = 439;
width = 102;
}
);
};
};
width = 575;
}
);
unicode = 0024;
},
{
glyphname = percent;
lastChange = "2019-12-06 19:21:55 +0000";
layers = (
{
background = {
paths = (
{
closed = 1;
nodes = (
"186 0 OFFCURVE",
"192 3 OFFCURVE",
"195 8 CURVE SMOOTH",
"564 674 LINE SMOOTH",
"565 676 OFFCURVE",
"566 679 OFFCURVE",
"566 682 CURVE SMOOTH",
"566 691 OFFCURVE",
"558 698 OFFCURVE",
"549 698 CURVE SMOOTH",
"543 698 OFFCURVE",
"539 696 OFFCURVE",
"536 690 CURVE SMOOTH",
"169 27 LINE SMOOTH",
"166 22 OFFCURVE",
"165 17 OFFCURVE",
"165 15 CURVE SMOOTH",
"165 7 OFFCURVE",
"171 0 OFFCURVE",
"180 0 CURVE SMOOTH"
);
},
{
closed = 1;
nodes = (
"604 -8 OFFCURVE",
"664 51 OFFCURVE",
"664 123 CURVE SMOOTH",
"664 195 OFFCURVE",
"604 254 OFFCURVE",
"532 254 CURVE SMOOTH",
"461 254 OFFCURVE",
"401 195 OFFCURVE",
"401 123 CURVE SMOOTH",
"401 51 OFFCURVE",
"461 -8 OFFCURVE",
"532 -8 CURVE SMOOTH"
);
},
{
closed = 1;
nodes = (
"480 27 OFFCURVE",
"437 69 OFFCURVE",
"437 123 CURVE SMOOTH",
"437 175 OFFCURVE",
"480 219 OFFCURVE",
"532 219 CURVE SMOOTH",
"585 219 OFFCURVE",
"628 175 OFFCURVE",
"628 123 CURVE SMOOTH",
"628 69 OFFCURVE",
"585 27 OFFCURVE",
"532 27 CURVE SMOOTH"
);
},
{
closed = 1;
nodes = (
"265 440 OFFCURVE",
"324 499 OFFCURVE",
"324 571 CURVE SMOOTH",
"324 643 OFFCURVE",
"265 702 OFFCURVE",
"193 702 CURVE SMOOTH",
"121 702 OFFCURVE",
"61 643 OFFCURVE",
"61 571 CURVE SMOOTH",
"61 499 OFFCURVE",
"121 440 OFFCURVE",
"193 440 CURVE SMOOTH"
);
},
{
closed = 1;
nodes = (
"141 475 OFFCURVE",
"97 517 OFFCURVE",
"97 571 CURVE SMOOTH",
"97 623 OFFCURVE",
"141 667 OFFCURVE",
"193 667 CURVE SMOOTH",
"245 667 OFFCURVE",
"289 623 OFFCURVE",
"289 571 CURVE SMOOTH",
"289 517 OFFCURVE",
"245 475 OFFCURVE",
"193 475 CURVE SMOOTH"
);
}
);
};
layerId = master01;
paths = (
{
closed = 1;
nodes = (
"186 0 OFFCURVE",
"192 3 OFFCURVE",
"195 8 CURVE SMOOTH",
"564 674 LINE SMOOTH",
"565 676 OFFCURVE",
"566 679 OFFCURVE",
"566 682 CURVE SMOOTH",
"566 691 OFFCURVE",
"558 698 OFFCURVE",
"549 698 CURVE SMOOTH",
"543 698 OFFCURVE",
"539 696 OFFCURVE",
"536 690 CURVE SMOOTH",
"169 27 LINE SMOOTH",
"166 22 OFFCURVE",
"165 17 OFFCURVE",
"165 15 CURVE SMOOTH",
"165 7 OFFCURVE",
"171 0 OFFCURVE",
"180 0 CURVE SMOOTH"
);
},
{
closed = 1;
nodes = (
"604 -8 OFFCURVE",
"664 51 OFFCURVE",
"664 123 CURVE SMOOTH",
"664 195 OFFCURVE",
"604 254 OFFCURVE",
"532 254 CURVE SMOOTH",
"461 254 OFFCURVE",
"401 195 OFFCURVE",
"401 123 CURVE SMOOTH",
"401 51 OFFCURVE",
"461 -8 OFFCURVE",
"532 -8 CURVE SMOOTH"
);
},
{
closed = 1;
nodes = (
"480 27 OFFCURVE",
"437 69 OFFCURVE",
"437 123 CURVE SMOOTH",
"437 175 OFFCURVE",
"480 219 OFFCURVE",
"532 219 CURVE SMOOTH",
"585 219 OFFCURVE",
"628 175 OFFCURVE",
"628 123 CURVE SMOOTH",
"628 69 OFFCURVE",
"585 27 OFFCURVE",
"532 27 CURVE SMOOTH"
);
},
{
closed = 1;
nodes = (
"265 440 OFFCURVE",
"324 499 OFFCURVE",
"324 571 CURVE SMOOTH",
"324 643 OFFCURVE",
"265 702 OFFCURVE",
"193 702 CURVE SMOOTH",
"121 702 OFFCURVE",
"61 643 OFFCURVE",
"61 571 CURVE SMOOTH",
"61 499 OFFCURVE",
"121 440 OFFCURVE",
"193 440 CURVE SMOOTH"
);
},
{
closed = 1;
nodes = (
"141 475 OFFCURVE",
"97 517 OFFCURVE",
"97 571 CURVE SMOOTH",
"97 623 OFFCURVE",
"141 667 OFFCURVE",
"193 667 CURVE SMOOTH",
"245 667 OFFCURVE",
"289 623 OFFCURVE",
"289 571 CURVE SMOOTH",
"289 517 OFFCURVE",
"245 475 OFFCURVE",
"193 475 CURVE SMOOTH"
);
}
);
userData = {
com.fontlab.hintData = {
hhints = (
{
position = -8;
width = 35;
},
{
position = 0;
width = 21;
},
{
position = 219;
width = 35;
},
{
position = 440;
width = 35;
},
{
position = 667;
width = 35;
}
);
vhints = (
{
position = 61;
width = 36;
},
{
position = 289;
width = 35;
},
{
position = 401;
width = 36;
},
{
position = 628;
width = 36;
}
);
};
};
width = 718;
},
{
background = {
paths = (
{
closed = 1;
nodes = (
"194 0 OFFCURVE",
"203 4 OFFCURVE",
"208 13 CURVE SMOOTH",
"562 652 LINE SMOOTH",
"564 656 OFFCURVE",
"565 660 OFFCURVE",
"565 664 CURVE SMOOTH",
"565 677 OFFCURVE",
"554 690 OFFCURVE",
"539 690 CURVE SMOOTH",
"530 690 OFFCURVE",
"522 685 OFFCURVE",
"517 677 CURVE SMOOTH",
"165 41 LINE SMOOTH",
"161 34 OFFCURVE",
"160 28 OFFCURVE",
"160 24 CURVE SMOOTH",
"160 12 OFFCURVE",
"170 0 OFFCURVE",
"185 0 CURVE SMOOTH"
);
},
{
closed = 1;
nodes = (
"598 -8 OFFCURVE",
"659 53 OFFCURVE",
"659 128 CURVE SMOOTH",
"659 203 OFFCURVE",
"598 264 OFFCURVE",
"523 264 CURVE SMOOTH",
"448 264 OFFCURVE",
"387 203 OFFCURVE",
"387 128 CURVE SMOOTH",
"387 53 OFFCURVE",
"448 -8 OFFCURVE",
"523 -8 CURVE SMOOTH"
);
},
{
closed = 1;
nodes = (
"478 46 OFFCURVE",
"441 82 OFFCURVE",
"441 128 CURVE SMOOTH",
"441 173 OFFCURVE",
"478 210 OFFCURVE",
"523 210 CURVE SMOOTH",
"568 210 OFFCURVE",
"605 173 OFFCURVE",
"605 128 CURVE SMOOTH",
"605 82 OFFCURVE",
"568 46 OFFCURVE",
"523 46 CURVE SMOOTH"
);
},
{
closed = 1;
nodes = (
"272 422 OFFCURVE",
"333 483 OFFCURVE",
"333 558 CURVE SMOOTH",
"333 633 OFFCURVE",
"272 694 OFFCURVE",
"197 694 CURVE SMOOTH",
"122 694 OFFCURVE",
"61 633 OFFCURVE",
"61 558 CURVE SMOOTH",
"61 483 OFFCURVE",
"122 422 OFFCURVE",
"197 422 CURVE SMOOTH"
);
},
{
closed = 1;
nodes = (
"152 476 OFFCURVE",
"115 512 OFFCURVE",
"115 558 CURVE SMOOTH",
"115 603 OFFCURVE",
"152 640 OFFCURVE",
"197 640 CURVE SMOOTH",
"242 640 OFFCURVE",
"279 603 OFFCURVE",
"279 558 CURVE SMOOTH",
"279 512 OFFCURVE",
"242 476 OFFCURVE",
"197 476 CURVE SMOOTH"
);
}
);
};
layerId = "218416E4-0B36-4DBB-8D0A-D6BB29FB6576";
paths = (
{
closed = 1;
nodes = (
"194 0 OFFCURVE",
"203 4 OFFCURVE",
"208 13 CURVE SMOOTH",
"562 652 LINE SMOOTH",
"564 656 OFFCURVE",
"565 660 OFFCURVE",
"565 664 CURVE SMOOTH",
"565 677 OFFCURVE",
"554 690 OFFCURVE",
"539 690 CURVE SMOOTH",
"530 690 OFFCURVE",
"522 685 OFFCURVE",
"517 677 CURVE SMOOTH",
"165 41 LINE SMOOTH",
"161 34 OFFCURVE",
"160 28 OFFCURVE",
"160 24 CURVE SMOOTH",
"160 12 OFFCURVE",
"170 0 OFFCURVE",
"185 0 CURVE SMOOTH"
);
},
{
closed = 1;
nodes = (
"598 -8 OFFCURVE",
"659 53 OFFCURVE",
"659 128 CURVE SMOOTH",
"659 203 OFFCURVE",
"598 264 OFFCURVE",
"523 264 CURVE SMOOTH",
"448 264 OFFCURVE",
"387 203 OFFCURVE",
"387 128 CURVE SMOOTH",
"387 53 OFFCURVE",
"448 -8 OFFCURVE",
"523 -8 CURVE SMOOTH"
);
},
{
closed = 1;
nodes = (
"478 46 OFFCURVE",
"441 82 OFFCURVE",
"441 128 CURVE SMOOTH",
"441 173 OFFCURVE",
"478 210 OFFCURVE",
"523 210 CURVE SMOOTH",
"568 210 OFFCURVE",
"605 173 OFFCURVE",
"605 128 CURVE SMOOTH",
"605 82 OFFCURVE",
"568 46 OFFCURVE",
"523 46 CURVE SMOOTH"
);
},
{
closed = 1;
nodes = (
"272 422 OFFCURVE",
"333 483 OFFCURVE",
"333 558 CURVE SMOOTH",
"333 633 OFFCURVE",
"272 694 OFFCURVE",
"197 694 CURVE SMOOTH",
"122 694 OFFCURVE",
"61 633 OFFCURVE",
"61 558 CURVE SMOOTH",
"61 483 OFFCURVE",
"122 422 OFFCURVE",
"197 422 CURVE SMOOTH"
);
},
{
closed = 1;
nodes = (
"152 476 OFFCURVE",
"115 512 OFFCURVE",
"115 558 CURVE SMOOTH",
"115 603 OFFCURVE",
"152 640 OFFCURVE",
"197 640 CURVE SMOOTH",
"242 640 OFFCURVE",
"279 603 OFFCURVE",
"279 558 CURVE SMOOTH",
"279 512 OFFCURVE",
"242 476 OFFCURVE",
"197 476 CURVE SMOOTH"
);
}
);
userData = {
com.fontlab.hintData = {
hhints = (
{
position = -8;
width = 54;
},
{
position = 0;
width = 21;
},
{
position = 210;
width = 54;
},
{
position = 422;
width = 54;
},
{
position = 640;
width = 54;
},
{
position = 670;
width = 20;
}
);
vhints = (
{
position = 61;
width = 54;
},
{
position = 279;
width = 54;
},
{
position = 387;
width = 54;
},
{
position = 605;
width = 54;
}
);
};
};
width = 728;
},
{
background = {
paths = (
{
closed = 1;
nodes = (
"213 0 OFFCURVE",
"229 7 OFFCURVE",
"238 24 CURVE SMOOTH",
"560 604 LINE SMOOTH",
"564 611 OFFCURVE",
"565 619 OFFCURVE",
"565 626 CURVE SMOOTH",
"565 649 OFFCURVE",
"545 672 OFFCURVE",
"519 672 CURVE SMOOTH",
"503 672 OFFCURVE",
"487 664 OFFCURVE",
"479 649 CURVE SMOOTH",
"159 71 LINE SMOOTH",
"154 61 OFFCURVE",
"152 51 OFFCURVE",
"152 45 CURVE SMOOTH",
"152 22 OFFCURVE",
"170 0 OFFCURVE",
"198 0 CURVE SMOOTH"
);
},
{
closed = 1;
nodes = (
"585 -7 OFFCURVE",
"651 58 OFFCURVE",
"651 139 CURVE SMOOTH",
"651 220 OFFCURVE",
"585 285 OFFCURVE",
"505 285 CURVE SMOOTH",
"424 285 OFFCURVE",
"358 220 OFFCURVE",
"358 139 CURVE SMOOTH",
"358 58 OFFCURVE",
"424 -7 OFFCURVE",
"505 -7 CURVE SMOOTH"
);
},
{
closed = 1;
nodes = (
"476 87 OFFCURVE",
"453 110 OFFCURVE",
"453 139 CURVE SMOOTH",
"453 167 OFFCURVE",
"476 191 OFFCURVE",
"505 191 CURVE SMOOTH",
"533 191 OFFCURVE",
"556 167 OFFCURVE",
"556 139 CURVE SMOOTH",
"556 110 OFFCURVE",
"533 87 OFFCURVE",
"505 87 CURVE SMOOTH"
);
},
{
closed = 1;
nodes = (
"289 383 OFFCURVE",
"355 449 OFFCURVE",
"355 530 CURVE SMOOTH",
"355 610 OFFCURVE",
"289 676 OFFCURVE",
"208 676 CURVE SMOOTH",
"128 676 OFFCURVE",
"62 610 OFFCURVE",
"62 530 CURVE SMOOTH",
"62 449 OFFCURVE",
"128 383 OFFCURVE",
"208 383 CURVE SMOOTH"
);
},
{
closed = 1;
nodes = (
"180 478 OFFCURVE",
"157 501 OFFCURVE",
"157 530 CURVE SMOOTH",
"157 558 OFFCURVE",
"180 581 OFFCURVE",
"208 581 CURVE SMOOTH",
"237 581 OFFCURVE",
"260 558 OFFCURVE",
"260 530 CURVE SMOOTH",
"260 501 OFFCURVE",
"237 478 OFFCURVE",
"208 478 CURVE SMOOTH"
);
}
);
};
layerId = "BB1A411A-CAFC-47D3-A925-066104B707B4";
paths = (
{
closed = 1;
nodes = (
"213 0 OFFCURVE",
"229 7 OFFCURVE",
"238 24 CURVE SMOOTH",
"560 604 LINE SMOOTH",
"564 611 OFFCURVE",
"565 619 OFFCURVE",
"565 626 CURVE SMOOTH",
"565 649 OFFCURVE",
"545 672 OFFCURVE",
"519 672 CURVE SMOOTH",
"503 672 OFFCURVE",
"487 664 OFFCURVE",
"479 649 CURVE SMOOTH",
"159 71 LINE SMOOTH",
"154 61 OFFCURVE",
"152 51 OFFCURVE",
"152 45 CURVE SMOOTH",
"152 22 OFFCURVE",
"170 0 OFFCURVE",
"198 0 CURVE SMOOTH"
);
},
{
closed = 1;
nodes = (
"585 -7 OFFCURVE",
"651 58 OFFCURVE",
"651 139 CURVE SMOOTH",
"651 220 OFFCURVE",
"585 285 OFFCURVE",
"505 285 CURVE SMOOTH",
"424 285 OFFCURVE",
"358 220 OFFCURVE",
"358 139 CURVE SMOOTH",
"358 58 OFFCURVE",
"424 -7 OFFCURVE",
"505 -7 CURVE SMOOTH"
);
},
{
closed = 1;
nodes = (
"476 87 OFFCURVE",
"453 110 OFFCURVE",
"453 139 CURVE SMOOTH",
"453 167 OFFCURVE",
"476 191 OFFCURVE",
"505 191 CURVE SMOOTH",
"533 191 OFFCURVE",
"556 167 OFFCURVE",
"556 139 CURVE SMOOTH",
"556 110 OFFCURVE",
"533 87 OFFCURVE",
"505 87 CURVE SMOOTH"
);
},
{
closed = 1;
nodes = (
"289 383 OFFCURVE",
"355 449 OFFCURVE",
"355 530 CURVE SMOOTH",
"355 610 OFFCURVE",
"289 676 OFFCURVE",
"208 676 CURVE SMOOTH",
"128 676 OFFCURVE",
"62 610 OFFCURVE",
"62 530 CURVE SMOOTH",
"62 449 OFFCURVE",
"128 383 OFFCURVE",
"208 383 CURVE SMOOTH"
);
},
{
closed = 1;
nodes = (
"180 478 OFFCURVE",
"157 501 OFFCURVE",
"157 530 CURVE SMOOTH",
"157 558 OFFCURVE",
"180 581 OFFCURVE",
"208 581 CURVE SMOOTH",
"237 581 OFFCURVE",
"260 558 OFFCURVE",
"260 530 CURVE SMOOTH",
"260 501 OFFCURVE",
"237 478 OFFCURVE",
"208 478 CURVE SMOOTH"
);
}
);
userData = {
com.fontlab.hintData = {
hhints = (
{
position = -7;
width = 94;
},
{
position = 0;
width = 21;
},
{
position = 191;
width = 94;
},
{
position = 383;
width = 95;
},
{
position = 581;
width = 95;
}
);
vhints = (
{
position = 62;
width = 95;
},
{
position = 260;
width = 95;
},
{
position = 358;
width = 95;
},
{
position = 556;
width = 95;
}
);
};
};
width = 754;
}
);
unicode = 0025;
},
{
color = 4;
glyphname = ampersand;
lastChange = "2019-12-06 19:23:04 +0000";
layers = (
{
background = {
paths = (
{
closed = 1;
nodes = (
"288 -4 OFFCURVE",
"384 3 OFFCURVE",
"468 121 CURVE",
"565 6 LINE SMOOTH",
"569 2 OFFCURVE",
"574 0 OFFCURVE",
"579 0 CURVE SMOOTH",
"588 0 OFFCURVE",
"597 8 OFFCURVE",
"597 18 CURVE SMOOTH",
"597 22 OFFCURVE",
"595 25 OFFCURVE",
"592 29 CURVE SMOOTH",
"488 154 LINE",
"505 185 OFFCURVE",
"520 223 OFFCURVE",
"531 262 CURVE SMOOTH",
"534 273 OFFCURVE",
"535 278 OFFCURVE",
"535 279 CURVE SMOOTH",
"535 289 OFFCURVE",
"528 296 OFFCURVE",
"519 296 CURVE SMOOTH",
"506 296 OFFCURVE",
"503 290 OFFCURVE",
"497 270 CURVE SMOOTH",
"488 243 OFFCURVE",
"482 219 OFFCURVE",
"463 183 CURVE",
"294 385 LINE",
"392 438 OFFCURVE",
"438 485 OFFCURVE",
"438 564 CURVE SMOOTH",
"438 633 OFFCURVE",
"370 698 OFFCURVE",
"296 698 CURVE SMOOTH",
"222 698 OFFCURVE",
"153 634 OFFCURVE",
"153 561 CURVE SMOOTH",
"153 498 OFFCURVE",
"205 431 OFFCURVE",
"238 393 CURVE",
"150 345 OFFCURVE",
"62 292 OFFCURVE",
"62 178 CURVE SMOOTH",
"62 66 OFFCURVE",
"167 -4 OFFCURVE",
"263 -4 CURVE SMOOTH"
);
},
{
closed = 1;
nodes = (
"197 31 OFFCURVE",
"98 77 OFFCURVE",
"98 178 CURVE SMOOTH",
"98 278 OFFCURVE",
"170 319 OFFCURVE",
"263 368 CURVE",
"445 150 LINE",
"372 39 OFFCURVE",
"286 31 OFFCURVE",
"263 31 CURVE SMOOTH"
);
},
{
closed = 1;
nodes = (
"238 444 OFFCURVE",
"188 507 OFFCURVE",
"188 561 CURVE SMOOTH",
"188 619 OFFCURVE",
"246 663 OFFCURVE",
"296 663 CURVE SMOOTH",
"351 663 OFFCURVE",
"404 612 OFFCURVE",
"404 562 CURVE SMOOTH",
"404 522 OFFCURVE",
"403 477 OFFCURVE",
"271 412 CURVE"
);
}
);
};
layerId = master01;
paths = (
{
closed = 1;
nodes = (
"288 -4 OFFCURVE",
"384 3 OFFCURVE",
"468 121 CURVE",
"565 6 LINE SMOOTH",
"569 2 OFFCURVE",
"574 0 OFFCURVE",
"579 0 CURVE SMOOTH",
"588 0 OFFCURVE",
"597 8 OFFCURVE",
"597 18 CURVE SMOOTH",
"597 22 OFFCURVE",
"595 25 OFFCURVE",
"592 29 CURVE SMOOTH",
"488 154 LINE",
"502 180 OFFCURVE",
"535 261 OFFCURVE",
"535 279 CURVE SMOOTH",
"535 289 OFFCURVE",
"528 296 OFFCURVE",
"519 296 CURVE SMOOTH",
"506 296 OFFCURVE",
"503 290 OFFCURVE",
"497 270 CURVE SMOOTH",
"488 243 OFFCURVE",
"482 219 OFFCURVE",
"463 183 CURVE",
"294 385 LINE",
"392 438 OFFCURVE",
"438 485 OFFCURVE",
"438 564 CURVE SMOOTH",
"438 633 OFFCURVE",
"370 698 OFFCURVE",
"296 698 CURVE SMOOTH",
"222 698 OFFCURVE",
"153 634 OFFCURVE",
"153 561 CURVE SMOOTH",
"153 498 OFFCURVE",
"205 431 OFFCURVE",
"238 393 CURVE",
"150 345 OFFCURVE",
"62 292 OFFCURVE",
"62 178 CURVE SMOOTH",
"62 66 OFFCURVE",
"167 -4 OFFCURVE",
"263 -4 CURVE SMOOTH"
);
},
{
closed = 1;
nodes = (
"197 31 OFFCURVE",
"98 77 OFFCURVE",
"98 178 CURVE SMOOTH",
"98 278 OFFCURVE",
"170 319 OFFCURVE",
"263 368 CURVE",
"445 150 LINE",
"372 39 OFFCURVE",
"286 31 OFFCURVE",
"263 31 CURVE SMOOTH"
);
},
{
closed = 1;
nodes = (
"238 444 OFFCURVE",
"188 507 OFFCURVE",
"188 561 CURVE SMOOTH",
"188 619 OFFCURVE",
"246 663 OFFCURVE",
"296 663 CURVE SMOOTH",
"351 663 OFFCURVE",
"404 612 OFFCURVE",
"404 562 CURVE SMOOTH",
"404 522 OFFCURVE",
"403 477 OFFCURVE",
"271 412 CURVE"
);
}
);
userData = {
com.fontlab.hintData = {
hhints = (
{
position = -4;
width = 35;
},
{
position = 0;
width = 21;
},
{
position = 663;
width = 35;
}
);
vhints = (
{
position = 62;
width = 36;
},
{
position = 153;
width = 35;
},
{
position = 404;
width = 34;
},
{
position = 497;
width = 38;
}
);
};
};
width = 650;
},
{
layerId = "218416E4-0B36-4DBB-8D0A-D6BB29FB6576";
paths = (
{
closed = 1;
nodes = (
"289 -4 OFFCURVE",
"385 3 OFFCURVE",
"462 110 CURVE",
"546 10 LINE SMOOTH",
"551 4 OFFCURVE",
"559 0 OFFCURVE",
"567 0 CURVE SMOOTH",
"582 0 OFFCURVE",
"594 12 OFFCURVE",
"594 27 CURVE SMOOTH",
"594 33 OFFCURVE",
"591 40 OFFCURVE",
"588 44 CURVE SMOOTH",
"492 159 LINE",
"506 184 OFFCURVE",
"535 258 OFFCURVE",
"535 278 CURVE SMOOTH",
"535 293 OFFCURVE",
"524 304 OFFCURVE",
"509 304 CURVE SMOOTH",
"492 304 OFFCURVE",
"487 296 OFFCURVE",
"479 272 CURVE SMOOTH",
"471 246 OFFCURVE",
"464 223 OFFCURVE",
"454 204 CURVE",
"310 376 LINE",
"400 424 OFFCURVE",
"442 470 OFFCURVE",
"442 551 CURVE SMOOTH",
"442 622 OFFCURVE",
"371 690 OFFCURVE",
"295 690 CURVE SMOOTH",
"219 690 OFFCURVE",
"148 623 OFFCURVE",
"148 548 CURVE SMOOTH",
"148 485 OFFCURVE",
"194 424 OFFCURVE",
"224 390 CURVE",
"142 346 OFFCURVE",
"61 297 OFFCURVE",
"61 181 CURVE SMOOTH",
"61 67 OFFCURVE",
"167 -4 OFFCURVE",
"264 -4 CURVE SMOOTH"
);
},
{
closed = 1;
nodes = (
"204 50 OFFCURVE",
"115 91 OFFCURVE",
"115 181 CURVE SMOOTH",
"115 270 OFFCURVE",
"180 306 OFFCURVE",
"262 350 CURVE",
"426 153 LINE",
"363 56 OFFCURVE",
"285 50 OFFCURVE",
"264 50 CURVE SMOOTH"
);
},
{
closed = 1;
nodes = (
"245 445 OFFCURVE",
"202 500 OFFCURVE",
"202 548 CURVE SMOOTH",
"202 598 OFFCURVE",
"252 636 OFFCURVE",
"295 636 CURVE SMOOTH",
"343 636 OFFCURVE",
"389 592 OFFCURVE",
"389 549 CURVE SMOOTH",
"389 514 OFFCURVE",
"388 474 OFFCURVE",
"273 417 CURVE"
);
}
);
userData = {
com.fontlab.hintData = {
hhints = (
{
position = -4;
width = 54;
},
{
position = 0;
width = 21;
},
{
position = 636;
width = 54;
}
);
vhints = (
{
position = 61;
width = 54;
},
{
position = 148;
width = 54;
},
{
position = 389;
width = 53;
}
);
};
};
width = 660;
},
{
layerId = "BB1A411A-CAFC-47D3-A925-066104B707B4";
paths = (
{
closed = 1;
nodes = (
"343 -4 OFFCURVE",
"405 34 OFFCURVE",
"449 87 CURVE",
"507 17 LINE SMOOTH",
"516 6 OFFCURVE",
"529 0 OFFCURVE",
"543 0 CURVE SMOOTH",
"569 0 OFFCURVE",
"590 21 OFFCURVE",
"590 47 CURVE SMOOTH",
"590 57 OFFCURVE",
"585 69 OFFCURVE",
"579 76 CURVE SMOOTH",
"502 170 LINE",
"517 201 OFFCURVE",
"537 250 OFFCURVE",
"537 275 CURVE SMOOTH",
"537 302 OFFCURVE",
"517 322 OFFCURVE",
"490 322 CURVE SMOOTH",
"460 322 OFFCURVE",
"452 310 OFFCURVE",
"441 276 CURVE SMOOTH",
"438 268 OFFCURVE",
"436 259 OFFCURVE",
"433 251 CURVE",
"345 358 LINE",
"416 401 OFFCURVE",
"452 448 OFFCURVE",
"452 523 CURVE SMOOTH",
"452 600 OFFCURVE",
"377 672 OFFCURVE",
"296 672 CURVE SMOOTH",
"215 672 OFFCURVE",
"140 600 OFFCURVE",
"140 521 CURVE SMOOTH",
"140 466 OFFCURVE",
"168 419 OFFCURVE",
"195 384 CURVE",
"126 344 OFFCURVE",
"61 291 OFFCURVE",
"61 187 CURVE SMOOTH",
"61 70 OFFCURVE",
"169 -4 OFFCURVE",
"268 -4 CURVE SMOOTH"
);
},
{
closed = 1;
nodes = (
"222 91 OFFCURVE",
"155 121 OFFCURVE",
"155 187 CURVE SMOOTH",
"155 247 OFFCURVE",
"203 280 OFFCURVE",
"261 312 CURVE",
"387 161 LINE",
"359 122 OFFCURVE",
"318 91 OFFCURVE",
"268 91 CURVE SMOOTH"
);
},
{
closed = 1;
nodes = (
"260 454 OFFCURVE",
"234 491 OFFCURVE",
"234 521 CURVE SMOOTH",
"234 553 OFFCURVE",
"268 578 OFFCURVE",
"296 578 CURVE SMOOTH",
"328 578 OFFCURVE",
"359 550 OFFCURVE",
"359 521 CURVE SMOOTH",
"359 498 OFFCURVE",
"357 471 OFFCURVE",
"281 430 CURVE"
);
}
);
userData = {
com.fontlab.hintData = {
hhints = (
{
position = -4;
width = 95;
},
{
position = 0;
width = 21;
},
{
position = 578;
width = 94;
}
);
vhints = (
{
position = 61;
width = 94;
},
{
position = 140;
width = 94;
},
{
position = 359;
width = 93;
},
{
position = 441;
width = 96;
}
);
};
};
width = 686;
}
);
unicode = 0026;
},
{
glyphname = quotesingle;
lastChange = "2019-12-06 19:21:55 +0000";
layers = (
{
background = {
paths = (
{
closed = 1;
nodes = (
"103 521 OFFCURVE",
"112 529 OFFCURVE",
"112 540 CURVE SMOOTH",
"112 679 LINE SMOOTH",
"112 690 OFFCURVE",
"103 698 OFFCURVE",
"93 698 CURVE SMOOTH",
"83 698 OFFCURVE",
"74 690 OFFCURVE",
"74 679 CURVE SMOOTH",
"74 540 LINE SMOOTH",
"74 529 OFFCURVE",
"83 521 OFFCURVE",
"93 521 CURVE SMOOTH"
);
}
);
};
layerId = master01;
paths = (
{
closed = 1;
nodes = (
"103 521 OFFCURVE",
"112 529 OFFCURVE",
"112 540 CURVE SMOOTH",
"112 679 LINE SMOOTH",
"112 690 OFFCURVE",
"103 698 OFFCURVE",
"93 698 CURVE SMOOTH",
"83 698 OFFCURVE",
"74 690 OFFCURVE",
"74 679 CURVE SMOOTH",
"74 540 LINE SMOOTH",
"74 529 OFFCURVE",
"83 521 OFFCURVE",
"93 521 CURVE SMOOTH"
);
}
);
userData = {
com.fontlab.hintData = {
hhints = (
{
position = 521;
width = 177;
}
);
vhints = (
{
position = 74;
width = 38;
}
);
};
};
width = 179;
},
{
background = {
paths = (
{
closed = 1;
nodes = (
"112 500 OFFCURVE",
"125 512 OFFCURVE",
"125 528 CURVE SMOOTH",
"125 662 LINE SMOOTH",
"125 677 OFFCURVE",
"112 690 OFFCURVE",
"97 690 CURVE SMOOTH",
"81 690 OFFCURVE",
"69 677 OFFCURVE",
"69 662 CURVE SMOOTH",
"69 528 LINE SMOOTH",
"69 512 OFFCURVE",
"81 500 OFFCURVE",
"97 500 CURVE SMOOTH"
);
}
);
};
layerId = "218416E4-0B36-4DBB-8D0A-D6BB29FB6576";
paths = (
{
closed = 1;
nodes = (
"112 500 OFFCURVE",
"125 512 OFFCURVE",
"125 528 CURVE SMOOTH",
"125 662 LINE SMOOTH",
"125 677 OFFCURVE",
"112 690 OFFCURVE",
"97 690 CURVE SMOOTH",
"81 690 OFFCURVE",
"69 677 OFFCURVE",
"69 662 CURVE SMOOTH",
"69 528 LINE SMOOTH",
"69 512 OFFCURVE",
"81 500 OFFCURVE",
"97 500 CURVE SMOOTH"
);
}
);
userData = {
com.fontlab.hintData = {
hhints = (
{
position = 500;
width = 190;
}
);
vhints = (
{
position = 69;
width = 56;
}
);
};
};
width = 194;
},
{
background = {
paths = (
{
closed = 1;
nodes = (
"133 454 OFFCURVE",
"156 475 OFFCURVE",
"156 502 CURVE SMOOTH",
"156 624 LINE SMOOTH",
"156 650 OFFCURVE",
"133 672 OFFCURVE",
"108 672 CURVE SMOOTH",
"81 672 OFFCURVE",
"60 650 OFFCURVE",
"60 624 CURVE SMOOTH",
"60 502 LINE SMOOTH",
"60 475 OFFCURVE",
"81 454 OFFCURVE",
"108 454 CURVE SMOOTH"
);
}
);
};
layerId = "BB1A411A-CAFC-47D3-A925-066104B707B4";
paths = (
{
closed = 1;
nodes = (
"133 454 OFFCURVE",
"156 475 OFFCURVE",
"156 502 CURVE SMOOTH",
"156 624 LINE SMOOTH",
"156 650 OFFCURVE",
"133 672 OFFCURVE",
"108 672 CURVE SMOOTH",
"81 672 OFFCURVE",
"60 650 OFFCURVE",
"60 624 CURVE SMOOTH",
"60 502 LINE SMOOTH",
"60 475 OFFCURVE",
"81 454 OFFCURVE",
"108 454 CURVE SMOOTH"
);
}
);
userData = {
com.fontlab.hintData = {
hhints = (
{
position = 454;
width = 218;
}
);
vhints = (
{
position = 60;
width = 96;
}
);
};
};
width = 230;
}
);
unicode = 0027;
},
{
color = 4;
glyphname = parenleft;
lastChange = "2019-12-19 04:14:07 +0000";
layers = (
{
background = {
paths = (
{
closed = 1;
nodes = (
"275 -113 OFFCURVE",
"284 -104 OFFCURVE",
"284 -95 CURVE SMOOTH",
"284 -90 OFFCURVE",
"282 -84 OFFCURVE",
"278 -80 CURVE SMOOTH",
"275 -77 OFFCURVE",
"108 97 OFFCURVE",
"108 355 CURVE SMOOTH",
"108 612 OFFCURVE",
"288 771 OFFCURVE",
"292 775 CURVE SMOOTH",
"296 779 OFFCURVE",
"298 784 OFFCURVE",
"298 789 CURVE SMOOTH",
"298 799 OFFCURVE",
"290 808 OFFCURVE",
"280 808 CURVE SMOOTH",
"274 808 OFFCURVE",
"267 802 OFFCURVE",
"263 798 CURVE SMOOTH",
"152 687 OFFCURVE",
"70 522 OFFCURVE",
"70 355 CURVE SMOOTH",
"70 109 OFFCURVE",
"213 -62 OFFCURVE",
"248 -104 CURVE SMOOTH",
"252 -108 OFFCURVE",
"259 -113 OFFCURVE",
"266 -113 CURVE SMOOTH"
);
}
);
};
layerId = master01;
paths = (
{
closed = 1;
nodes = (
"275 -113 OFFCURVE",
"284 -104 OFFCURVE",
"284 -95 CURVE SMOOTH",
"284 -90 OFFCURVE",
"282 -84 OFFCURVE",
"278 -80 CURVE SMOOTH",
"205 -2 OFFCURVE",
"108 163 OFFCURVE",
"108 355 CURVE SMOOTH",
"108 536 OFFCURVE",
"199 687 OFFCURVE",
"292 775 CURVE SMOOTH",
"296 779 OFFCURVE",
"298 784 OFFCURVE",
"298 789 CURVE SMOOTH",
"298 799 OFFCURVE",
"290 808 OFFCURVE",
"280 808 CURVE SMOOTH",
"274 808 OFFCURVE",
"267 802 OFFCURVE",
"263 798 CURVE SMOOTH",
"152 687 OFFCURVE",
"70 522 OFFCURVE",
"70 355 CURVE SMOOTH",
"70 143 OFFCURVE",
"174 -16 OFFCURVE",
"248 -104 CURVE SMOOTH",
"252 -108 OFFCURVE",
"259 -113 OFFCURVE",
"266 -113 CURVE SMOOTH"
);
}
);
userData = {
com.fontlab.hintData = {
vhints = (
{
position = 69;
width = 38;
}
);
};
};
width = 358;
},
{
background = {
paths = (
{
closed = 1;
nodes = (
"271 -108 OFFCURVE",
"285 -96 OFFCURVE",
"285 -81 CURVE SMOOTH",
"285 -73 OFFCURVE",
"282 -66 OFFCURVE",
"276 -60 CURVE SMOOTH",
"273 -57 OFFCURVE",
"116 107 OFFCURVE",
"116 351 CURVE SMOOTH",
"116 592 OFFCURVE",
"285 743 OFFCURVE",
"289 746 CURVE SMOOTH",
"295 752 OFFCURVE",
"299 759 OFFCURVE",
"299 767 CURVE SMOOTH",
"299 782 OFFCURVE",
"286 795 OFFCURVE",
"271 795 CURVE SMOOTH",
"265 795 OFFCURVE",
"258 792 OFFCURVE",
"248 783 CURVE SMOOTH",
"136 678 OFFCURVE",
"60 522 OFFCURVE",
"60 351 CURVE SMOOTH",
"60 91 OFFCURVE",
"216 -74 OFFCURVE",
"233 -96 CURVE SMOOTH",
"238 -102 OFFCURVE",
"246 -108 OFFCURVE",
"258 -108 CURVE SMOOTH"
);
}
);
};
layerId = "218416E4-0B36-4DBB-8D0A-D6BB29FB6576";
paths = (
{
closed = 1;
nodes = (
"271 -108 OFFCURVE",
"285 -96 OFFCURVE",
"285 -81 CURVE SMOOTH",
"285 -73 OFFCURVE",
"282 -66 OFFCURVE",
"276 -60 CURVE SMOOTH",
"188 40 OFFCURVE",
"116 184 OFFCURVE",
"116 351 CURVE SMOOTH",
"116 547 OFFCURVE",
"229 689 OFFCURVE",
"289 746 CURVE SMOOTH",
"296 752 OFFCURVE",
"299 759 OFFCURVE",
"299 767 CURVE SMOOTH",
"299 782 OFFCURVE",
"286 795 OFFCURVE",
"271 795 CURVE SMOOTH",
"265 795 OFFCURVE",
"258 792 OFFCURVE",
"248 783 CURVE SMOOTH",
"136 678 OFFCURVE",
"60 522 OFFCURVE",
"60 351 CURVE SMOOTH",
"60 139 OFFCURVE",
"159 -8 OFFCURVE",
"233 -96 CURVE SMOOTH",
"238 -102 OFFCURVE",
"246 -108 OFFCURVE",
"258 -108 CURVE SMOOTH"
);
}
);
userData = {
com.fontlab.hintData = {
vhints = (
{
position = 65;
width = 56;
}
);
};
};
width = 354;
},
{
background = {
paths = (
{
closed = 1;
nodes = (
"285 -98 OFFCURVE",
"310 -77 OFFCURVE",
"310 -51 CURVE SMOOTH",
"310 -37 OFFCURVE",
"305 -25 OFFCURVE",
"295 -15 CURVE SMOOTH",
"230 53 OFFCURVE",
"156 190 OFFCURVE",
"156 342 CURVE SMOOTH",
"156 477 OFFCURVE",
"221 615 OFFCURVE",
"304 682 CURVE SMOOTH",
"317 692 OFFCURVE",
"322 705 OFFCURVE",
"322 719 CURVE SMOOTH",
"322 745 OFFCURVE",
"300 768 OFFCURVE",
"274 768 CURVE SMOOTH",
"264 768 OFFCURVE",
"252 763 OFFCURVE",
"238 750 CURVE SMOOTH",
"132 650 OFFCURVE",
"60 503 OFFCURVE",
"60 342 CURVE SMOOTH",
"60 116 OFFCURVE",
"189 -39 OFFCURVE",
"221 -78 CURVE SMOOTH",
"230 -88 OFFCURVE",
"242 -98 OFFCURVE",
"262 -98 CURVE SMOOTH"
);
}
);
};
layerId = "BB1A411A-CAFC-47D3-A925-066104B707B4";
paths = (
{
closed = 1;
nodes = (
"285 -98 OFFCURVE",
"310 -77 OFFCURVE",
"310 -51 CURVE SMOOTH",
"310 -37 OFFCURVE",
"305 -25 OFFCURVE",
"295 -15 CURVE SMOOTH",
"230 53 OFFCURVE",
"156 190 OFFCURVE",
"156 342 CURVE SMOOTH",
"156 477 OFFCURVE",
"221 615 OFFCURVE",
"304 682 CURVE SMOOTH",
"317 692 OFFCURVE",
"322 705 OFFCURVE",
"322 719 CURVE SMOOTH",
"322 745 OFFCURVE",
"300 768 OFFCURVE",
"274 768 CURVE SMOOTH",
"264 768 OFFCURVE",
"252 763 OFFCURVE",
"238 750 CURVE SMOOTH",
"132 650 OFFCURVE",
"60 503 OFFCURVE",
"60 342 CURVE SMOOTH",
"60 116 OFFCURVE",
"189 -39 OFFCURVE",
"221 -78 CURVE SMOOTH",
"230 -88 OFFCURVE",
"242 -98 OFFCURVE",
"262 -98 CURVE SMOOTH"
);
}
);
userData = {
com.fontlab.hintData = {
vhints = (
{
position = 58;
width = 96;
}
);
};
};
width = 367;
}
);
unicode = 0028;
},
{
color = 4;
glyphname = parenright;
lastChange = "2019-12-19 04:14:07 +0000";
layers = (
{
background = {
paths = (
{
closed = 1;
nodes = (
"99 -113 OFFCURVE",
"106 -108 OFFCURVE",
"110 -104 CURVE SMOOTH",
"145 -62 OFFCURVE",
"288 109 OFFCURVE",
"288 355 CURVE SMOOTH",
"288 522 OFFCURVE",
"206 687 OFFCURVE",
"95 798 CURVE SMOOTH",
"91 802 OFFCURVE",
"84 808 OFFCURVE",
"78 808 CURVE SMOOTH",
"68 808 OFFCURVE",
"60 799 OFFCURVE",
"60 789 CURVE SMOOTH",
"60 784 OFFCURVE",
"62 779 OFFCURVE",
"66 775 CURVE SMOOTH",
"70 771 OFFCURVE",
"250 612 OFFCURVE",
"250 355 CURVE SMOOTH",
"250 97 OFFCURVE",
"83 -77 OFFCURVE",
"80 -80 CURVE SMOOTH",
"76 -84 OFFCURVE",
"74 -90 OFFCURVE",
"74 -95 CURVE SMOOTH",
"74 -104 OFFCURVE",
"83 -113 OFFCURVE",
"92 -113 CURVE SMOOTH"
);
}
);
};
layerId = master01;
paths = (
{
closed = 1;
nodes = (
"99 -113 OFFCURVE",
"106 -108 OFFCURVE",
"110 -104 CURVE SMOOTH",
"200 2 OFFCURVE",
"288 160 OFFCURVE",
"288 355 CURVE SMOOTH",
"288 522 OFFCURVE",
"206 687 OFFCURVE",
"95 798 CURVE SMOOTH",
"91 802 OFFCURVE",
"84 808 OFFCURVE",
"78 808 CURVE SMOOTH",
"68 808 OFFCURVE",
"60 799 OFFCURVE",
"60 789 CURVE SMOOTH",
"60 784 OFFCURVE",
"62 779 OFFCURVE",
"66 775 CURVE SMOOTH",
"170 673 OFFCURVE",
"250 529 OFFCURVE",
"250 355 CURVE SMOOTH",
"250 157 OFFCURVE",
"149 -6 OFFCURVE",
"80 -80 CURVE SMOOTH",
"76 -84 OFFCURVE",
"74 -90 OFFCURVE",
"74 -95 CURVE SMOOTH",
"74 -104 OFFCURVE",
"83 -113 OFFCURVE",
"92 -113 CURVE SMOOTH"
);
}
);
userData = {
com.fontlab.hintData = {
vhints = (
{
position = 259;
width = 38;
}
);
};
};
width = 358;
},
{
background = {
paths = (
{
closed = 1;
nodes = (
"108 -108 OFFCURVE",
"116 -102 OFFCURVE",
"121 -96 CURVE SMOOTH",
"138 -74 OFFCURVE",
"294 91 OFFCURVE",
"294 351 CURVE SMOOTH",
"294 522 OFFCURVE",
"218 678 OFFCURVE",
"106 783 CURVE SMOOTH",
"96 792 OFFCURVE",
"89 795 OFFCURVE",
"83 795 CURVE SMOOTH",
"68 795 OFFCURVE",
"55 782 OFFCURVE",
"55 767 CURVE SMOOTH",
"55 759 OFFCURVE",
"59 752 OFFCURVE",
"65 746 CURVE SMOOTH",
"69 743 OFFCURVE",
"238 592 OFFCURVE",
"238 351 CURVE SMOOTH",
"238 107 OFFCURVE",
"81 -57 OFFCURVE",
"78 -60 CURVE SMOOTH",
"72 -66 OFFCURVE",
"69 -73 OFFCURVE",
"69 -81 CURVE SMOOTH",
"69 -96 OFFCURVE",
"83 -108 OFFCURVE",
"96 -108 CURVE SMOOTH"
);
}
);
};
layerId = "218416E4-0B36-4DBB-8D0A-D6BB29FB6576";
paths = (
{
closed = 1;
nodes = (
"108 -108 OFFCURVE",
"116 -102 OFFCURVE",
"121 -96 CURVE SMOOTH",
"219 17 OFFCURVE",
"294 167 OFFCURVE",
"294 351 CURVE SMOOTH",
"294 522 OFFCURVE",
"218 678 OFFCURVE",
"106 783 CURVE SMOOTH",
"96 792 OFFCURVE",
"89 795 OFFCURVE",
"83 795 CURVE SMOOTH",
"68 795 OFFCURVE",
"55 782 OFFCURVE",
"55 767 CURVE SMOOTH",
"55 759 OFFCURVE",
"59 752 OFFCURVE",
"65 746 CURVE SMOOTH",
"148 665 OFFCURVE",
"238 526 OFFCURVE",
"238 351 CURVE SMOOTH",
"238 181 OFFCURVE",
"156 23 OFFCURVE",
"78 -60 CURVE SMOOTH",
"72 -66 OFFCURVE",
"69 -73 OFFCURVE",
"69 -81 CURVE SMOOTH",
"69 -96 OFFCURVE",
"83 -108 OFFCURVE",
"96 -108 CURVE SMOOTH"
);
}
);
userData = {
com.fontlab.hintData = {
vhints = (
{
position = 247;
width = 56;
}
);
};
};
width = 354;
},
{
background = {
paths = (
{
closed = 1;
nodes = (
"125 -98 OFFCURVE",
"137 -88 OFFCURVE",
"146 -78 CURVE SMOOTH",
"178 -39 OFFCURVE",
"307 116 OFFCURVE",
"307 342 CURVE SMOOTH",
"307 503 OFFCURVE",
"235 650 OFFCURVE",
"129 750 CURVE SMOOTH",
"115 763 OFFCURVE",
"103 768 OFFCURVE",
"93 768 CURVE SMOOTH",
"67 768 OFFCURVE",
"45 745 OFFCURVE",
"45 719 CURVE SMOOTH",
"45 705 OFFCURVE",
"50 692 OFFCURVE",
"63 682 CURVE SMOOTH",
"146 615 OFFCURVE",
"211 477 OFFCURVE",
"211 342 CURVE SMOOTH",
"211 190 OFFCURVE",
"137 53 OFFCURVE",
"72 -15 CURVE SMOOTH",
"62 -25 OFFCURVE",
"57 -37 OFFCURVE",
"57 -51 CURVE SMOOTH",
"57 -77 OFFCURVE",
"82 -98 OFFCURVE",
"105 -98 CURVE SMOOTH"
);
}
);
};
layerId = "BB1A411A-CAFC-47D3-A925-066104B707B4";
paths = (
{
closed = 1;
nodes = (
"125 -98 OFFCURVE",
"137 -88 OFFCURVE",
"146 -78 CURVE SMOOTH",
"178 -39 OFFCURVE",
"307 116 OFFCURVE",
"307 342 CURVE SMOOTH",
"307 503 OFFCURVE",
"235 650 OFFCURVE",
"129 750 CURVE SMOOTH",
"115 763 OFFCURVE",
"103 768 OFFCURVE",
"93 768 CURVE SMOOTH",
"67 768 OFFCURVE",
"45 745 OFFCURVE",
"45 719 CURVE SMOOTH",
"45 705 OFFCURVE",
"50 692 OFFCURVE",
"63 682 CURVE SMOOTH",
"146 615 OFFCURVE",
"211 477 OFFCURVE",
"211 342 CURVE SMOOTH",
"211 190 OFFCURVE",
"137 53 OFFCURVE",
"72 -15 CURVE SMOOTH",
"62 -25 OFFCURVE",
"57 -37 OFFCURVE",
"57 -51 CURVE SMOOTH",
"57 -77 OFFCURVE",
"82 -98 OFFCURVE",
"105 -98 CURVE SMOOTH"
);
}
);
userData = {
com.fontlab.hintData = {
vhints = (
{
position = 224;
width = 96;
}
);
};
};
width = 367;
}
);
unicode = 0029;
},
{
color = 1;
glyphname = asterisk;
lastChange = "2019-12-19 04:08:19 +0000";
layers = (
{
background = {
paths = (
{
closed = 1;
nodes = (
"378 669 OFFCURVE",
"385 676 OFFCURVE",
"385 686 CURVE SMOOTH",
"385 696 OFFCURVE",
"378 703 OFFCURVE",
"368 703 CURVE SMOOTH",
"358 703 OFFCURVE",
"351 696 OFFCURVE",
"351 686 CURVE SMOOTH",
"351 676 OFFCURVE",
"358 669 OFFCURVE",
"368 669 CURVE SMOOTH"
);
},
{
closed = 1;
nodes = (
"-185 457 OFFCURVE",
"-181 460 OFFCURVE",
"-178 463 CURVE SMOOTH",
"-140 503 LINE SMOOTH",
"-131 513 OFFCURVE",
"-103 564 OFFCURVE",
"-103 564 CURVE",
"-103 564 OFFCURVE",
"-77 514 OFFCURVE",
"-67 503 CURVE SMOOTH",
"-31 463 LINE SMOOTH",
"-28 460 OFFCURVE",
"-24 457 OFFCURVE",
"-18 457 CURVE SMOOTH",
"-10 457 OFFCURVE",
"-2 465 OFFCURVE",
"-2 475 CURVE SMOOTH",
"-2 480 OFFCURVE",
"-3 485 OFFCURVE",
"-6 489 CURVE SMOOTH",
"-40 525 LINE SMOOTH",
"-57 543 OFFCURVE",
"-94 569 OFFCURVE",
"-97 570 CURVE",
"-92 570 OFFCURVE",
"-38 580 OFFCURVE",
"-26 588 CURVE",
"10 605 LINE",
"9 605 LINE",
"15 609 OFFCURVE",
"18 615 OFFCURVE",
"18 621 CURVE SMOOTH",
"18 628 OFFCURVE",
"11 638 OFFCURVE",
"1 638 CURVE SMOOTH",
"-4 638 OFFCURVE",
"-6 637 OFFCURVE",
"-9 636 CURVE SMOOTH",
"-38 621 LINE",
"-37 621 LINE",
"-54 612 OFFCURVE",
"-99 577 OFFCURVE",
"-99 577 CURVE",
"-99 577 OFFCURVE",
"-86 638 OFFCURVE",
"-86 652 CURVE SMOOTH",
"-86 680 LINE SMOOTH",
"-86 690 OFFCURVE",
"-94 698 OFFCURVE",
"-104 698 CURVE SMOOTH",
"-113 698 OFFCURVE",
"-122 690 OFFCURVE",
"-122 680 CURVE SMOOTH",
"-122 652 LINE SMOOTH",
"-122 638 OFFCURVE",
"-109 577 OFFCURVE",
"-109 577 CURVE",
"-109 577 OFFCURVE",
"-154 612 OFFCURVE",
"-171 621 CURVE",
"-170 621 LINE",
"-199 636 LINE SMOOTH",
"-202 637 OFFCURVE",
"-205 638 OFFCURVE",
"-209 638 CURVE SMOOTH",
"-218 638 OFFCURVE",
"-226 628 OFFCURVE",
"-226 621 CURVE SMOOTH",
"-226 615 OFFCURVE",
"-223 609 OFFCURVE",
"-216 605 CURVE",
"-217 605 LINE",
"-206 600 OFFCURVE",
"-195 593 OFFCURVE",
"-183 588 CURVE",
"-172 581 OFFCURVE",
"-115 570 OFFCURVE",
"-112 570 CURVE",
"-115 567 OFFCURVE",
"-155 541 OFFCURVE",
"-168 525 CURVE",
"-202 489 LINE SMOOTH",
"-205 485 OFFCURVE",
"-206 480 OFFCURVE",
"-206 475 CURVE SMOOTH",
"-206 465 OFFCURVE",
"-198 457 OFFCURVE",
"-189 457 CURVE SMOOTH"
);
},
{
closed = 1;
nodes = (
"525 458 OFFCURVE",
"529 464 OFFCURVE",
"535 471 CURVE SMOOTH",
"565 503 LINE SMOOTH",
"574 513 OFFCURVE",
"589 541 OFFCURVE",
"602 564 CURVE",
"602 564 OFFCURVE",
"628 513 OFFCURVE",
"638 503 CURVE SMOOTH",
"672 466 LINE SMOOTH",
"677 460 OFFCURVE",
"681 458 OFFCURVE",
"687 458 CURVE SMOOTH",
"697 458 OFFCURVE",
"704 465 OFFCURVE",
"704 475 CURVE SMOOTH",
"704 481 OFFCURVE",
"702 486 OFFCURVE",
"697 491 CURVE SMOOTH",
"665 525 LINE SMOOTH",
"648 543 OFFCURVE",
"611 569 OFFCURVE",
"608 570 CURVE",
"613 570 OFFCURVE",
"666 582 OFFCURVE",
"679 588 CURVE SMOOTH",
"711 604 LINE SMOOTH",
"720 608 OFFCURVE",
"723 614 OFFCURVE",
"723 621 CURVE SMOOTH",
"723 632 OFFCURVE",
"715 638 OFFCURVE",
"706 638 CURVE SMOOTH",
"701 638 OFFCURVE",
"695 636 OFFCURVE",
"688 632 CURVE SMOOTH",
"668 621 LINE SMOOTH",
"651 612 OFFCURVE",
"606 577 OFFCURVE",
"606 577 CURVE",
"606 577 OFFCURVE",
"618 638 OFFCURVE",
"618 652 CURVE SMOOTH",
"618 680 LINE SMOOTH",
"618 690 OFFCURVE",
"610 698 OFFCURVE",
"601 698 CURVE SMOOTH",
"593 698 OFFCURVE",
"584 690 OFFCURVE",
"584 680 CURVE SMOOTH",
"584 652 LINE SMOOTH",
"584 638 OFFCURVE",
"592 599 OFFCURVE",
"596 577 CURVE",
"576 593 OFFCURVE",
"555 609 OFFCURVE",
"543 616 CURVE SMOOTH",
"534 621 OFFCURVE",
"525 626 OFFCURVE",
"516 631 CURVE SMOOTH",
"510 634 OFFCURVE",
"502 638 OFFCURVE",
"496 638 CURVE SMOOTH",
"487 638 OFFCURVE",
"479 629 OFFCURVE",
"479 621 CURVE SMOOTH",
"479 612 OFFCURVE",
"485 607 OFFCURVE",
"492 603 CURVE SMOOTH",
"499 599 OFFCURVE",
"510 594 OFFCURVE",
"522 588 CURVE SMOOTH",
"534 582 OFFCURVE",
"560 577 OFFCURVE",
"593 570 CURVE",
"560 547 OFFCURVE",
"545 534 OFFCURVE",
"537 525 CURVE SMOOTH",
"508 494 LINE SMOOTH",
"500 486 OFFCURVE",
"498 481 OFFCURVE",
"498 474 CURVE SMOOTH",
"498 465 OFFCURVE",
"505 458 OFFCURVE",
"515 458 CURVE SMOOTH"
);
},
{
closed = 0;
nodes = (
"232 595 LINE",
"202 564 LINE"
);
},
{
closed = 0;
nodes = (
"179 599 LINE",
"199 560 LINE"
);
},
{
closed = 0;
nodes = (
"238 540 LINE",
"199 559 LINE"
);
},
{
closed = 0;
nodes = (
"230 590 LINE",
"200 559 LINE"
);
},
{
closed = 1;
nodes = (
"218 529 OFFCURVE",
"233 544 OFFCURVE",
"233 562 CURVE SMOOTH",
"233 579 OFFCURVE",
"218 594 OFFCURVE",
"201 594 CURVE SMOOTH",
"183 594 OFFCURVE",
"168 579 OFFCURVE",
"168 562 CURVE SMOOTH",
"168 544 OFFCURVE",
"183 529 OFFCURVE",
"201 529 CURVE SMOOTH"
);
},
{
closed = 1;
nodes = (
"281 412 OFFCURVE",
"350 481 OFFCURVE",
"350 564 CURVE SMOOTH",
"350 642 OFFCURVE",
"281 711 OFFCURVE",
"203 711 CURVE SMOOTH",
"120 711 OFFCURVE",
"51 642 OFFCURVE",
"51 564 CURVE SMOOTH",
"51 481 OFFCURVE",
"120 412 OFFCURVE",
"203 412 CURVE SMOOTH"
);
},
{
closed = 1;
nodes = (
"224 518 OFFCURVE",
"245 538 OFFCURVE",
"245 562 CURVE SMOOTH",
"245 585 OFFCURVE",
"224 606 OFFCURVE",
"201 606 CURVE SMOOTH",
"177 606 OFFCURVE",
"157 585 OFFCURVE",
"157 562 CURVE SMOOTH",
"157 538 OFFCURVE",
"177 518 OFFCURVE",
"201 518 CURVE SMOOTH"
);
},
{
closed = 1;
nodes = (
"217 532 OFFCURVE",
"231 545 OFFCURVE",
"231 562 CURVE SMOOTH",
"231 578 OFFCURVE",
"217 592 OFFCURVE",
"201 592 CURVE SMOOTH",
"184 592 OFFCURVE",
"171 578 OFFCURVE",
"171 562 CURVE SMOOTH",
"171 545 OFFCURVE",
"184 532 OFFCURVE",
"201 532 CURVE SMOOTH"
);
},
{
closed = 1;
nodes = (
"205 554 OFFCURVE",
"208 557 OFFCURVE",
"208 562 CURVE SMOOTH",
"208 566 OFFCURVE",
"205 569 OFFCURVE",
"201 569 CURVE SMOOTH",
"196 569 OFFCURVE",
"193 566 OFFCURVE",
"193 562 CURVE SMOOTH",
"193 557 OFFCURVE",
"196 554 OFFCURVE",
"201 554 CURVE SMOOTH"
);
},
{
closed = 0;
nodes = (
"801 731 LINE",
"801 388 LINE"
);
},
{
closed = 0;
nodes = (
"701 421 LINE",
"901 698 LINE"
);
},
{
closed = 0;
nodes = (
"902 422 LINE",
"700 697 LINE"
);
},
{
closed = 1;
nodes = (
"185 626 OFFCURVE",
"192 596 OFFCURVE",
"201 562 CURVE",
"210 596 OFFCURVE",
"217 626 OFFCURVE",
"218 651 CURVE SMOOTH",
"219 677 LINE SMOOTH",
"219 689 OFFCURVE",
"211 697 OFFCURVE",
"201 697 CURVE SMOOTH",
"191 697 OFFCURVE",
"183 689 OFFCURVE",
"183 677 CURVE SMOOTH",
"184 651 LINE SMOOTH"
);
},
{
closed = 1;
nodes = (
"185 626 OFFCURVE",
"192 596 OFFCURVE",
"201 562 CURVE",
"210 596 OFFCURVE",
"217 626 OFFCURVE",
"218 651 CURVE SMOOTH",
"219 677 LINE SMOOTH",
"219 689 OFFCURVE",
"211 697 OFFCURVE",
"201 697 CURVE SMOOTH",
"191 697 OFFCURVE",
"183 689 OFFCURVE",
"183 677 CURVE SMOOTH",
"184 651 LINE SMOOTH"
);
},
{
closed = 1;
nodes = (
"135 566 OFFCURVE",
"166 564 OFFCURVE",
"201 562 CURVE",
"171 581 OFFCURVE",
"145 597 OFFCURVE",
"122 605 CURVE SMOOTH",
"97 614 LINE SMOOTH",
"86 618 OFFCURVE",
"76 613 OFFCURVE",
"73 603 CURVE SMOOTH",
"70 594 OFFCURVE",
"75 583 OFFCURVE",
"86 580 CURVE SMOOTH",
"111 573 LINE SMOOTH"
);
},
{
closed = 1;
nodes = (
"177 501 OFFCURVE",
"189 529 OFFCURVE",
"201 562 CURVE",
"174 540 OFFCURVE",
"151 520 OFFCURVE",
"135 500 CURVE SMOOTH",
"119 479 LINE SMOOTH",
"112 470 OFFCURVE",
"114 459 OFFCURVE",
"122 453 CURVE SMOOTH",
"130 447 OFFCURVE",
"142 449 OFFCURVE",
"148 458 CURVE SMOOTH",
"163 480 LINE SMOOTH"
);
},
{
closed = 1;
nodes = (
"251 520 OFFCURVE",
"228 540 OFFCURVE",
"201 562 CURVE",
"214 530 OFFCURVE",
"226 501 OFFCURVE",
"240 480 CURVE SMOOTH",
"254 459 LINE SMOOTH",
"261 449 OFFCURVE",
"272 447 OFFCURVE",
"281 453 CURVE SMOOTH",
"289 459 OFFCURVE",
"291 470 OFFCURVE",
"283 480 CURVE SMOOTH",
"267 500 LINE SMOOTH"
);
},
{
closed = 1;
nodes = (
"258 597 OFFCURVE",
"231 581 OFFCURVE",
"202 562 CURVE",
"237 564 OFFCURVE",
"267 566 OFFCURVE",
"292 573 CURVE SMOOTH",
"317 580 LINE SMOOTH",
"328 583 OFFCURVE",
"333 594 OFFCURVE",
"330 604 CURVE SMOOTH",
"327 613 OFFCURVE",
"317 619 OFFCURVE",
"305 615 CURVE SMOOTH",
"281 606 LINE SMOOTH"
);
},
{
closed = 0;
nodes = (
"638 506 LINE",
"964 613 LINE"
);
},
{
closed = 0;
nodes = (
"964 508 LINE",
"638 611 LINE"
);
},
{
closed = 1;
nodes = (
"1021 601 LINE",
"1024 614 OFFCURVE",
"1026 629 OFFCURVE",
"1026 643 CURVE SMOOTH",
"1027 676 LINE SMOOTH",
"1027 692 OFFCURVE",
"1016 704 OFFCURVE",
"1001 704 CURVE SMOOTH",
"986 704 OFFCURVE",
"975 692 OFFCURVE",
"975 676 CURVE SMOOTH",
"976 643 LINE SMOOTH",
"976 629 OFFCURVE",
"978 614 OFFCURVE",
"981 601 CURVE",
"1001 562 LINE"
);
},
{
closed = 1;
nodes = (
"969 593 LINE",
"958 600 OFFCURVE",
"944 606 OFFCURVE",
"931 611 CURVE SMOOTH",
"900 622 LINE SMOOTH",
"885 627 OFFCURVE",
"870 620 OFFCURVE",
"865 606 CURVE SMOOTH",
"860 592 OFFCURVE",
"869 578 OFFCURVE",
"884 573 CURVE SMOOTH",
"915 563 LINE SMOOTH",
"929 559 OFFCURVE",
"944 556 OFFCURVE",
"957 555 CURVE",
"1000 562 LINE"
);
},
{
closed = 1;
nodes = (
"961 541 LINE",
"951 533 OFFCURVE",
"940 522 OFFCURVE",
"932 511 CURVE SMOOTH",
"912 485 LINE SMOOTH",
"902 472 OFFCURVE",
"905 455 OFFCURVE",
"917 446 CURVE SMOOTH",
"929 437 OFFCURVE",
"945 441 OFFCURVE",
"954 454 CURVE SMOOTH",
"973 481 LINE SMOOTH",
"981 493 OFFCURVE",
"989 506 OFFCURVE",
"994 518 CURVE",
"1000 561 LINE"
);
},
{
closed = 1;
nodes = (
"1008 518 LINE",
"1013 506 OFFCURVE",
"1020 492 OFFCURVE",
"1028 481 CURVE SMOOTH",
"1046 454 LINE SMOOTH",
"1055 440 OFFCURVE",
"1073 438 OFFCURVE",
"1085 446 CURVE SMOOTH",
"1097 454 OFFCURVE",
"1098 472 OFFCURVE",
"1089 484 CURVE SMOOTH",
"1069 511 LINE SMOOTH",
"1061 522 OFFCURVE",
"1050 533 OFFCURVE",
"1040 542 CURVE",
"1001 561 LINE"
);
},
{
closed = 1;
nodes = (
"1045 554 LINE",
"1058 556 OFFCURVE",
"1073 558 OFFCURVE",
"1086 562 CURVE SMOOTH",
"1117 571 LINE SMOOTH",
"1133 576 OFFCURVE",
"1141 592 OFFCURVE",
"1137 605 CURVE SMOOTH",
"1132 620 OFFCURVE",
"1116 626 OFFCURVE",
"1102 621 CURVE SMOOTH",
"1070 610 LINE SMOOTH",
"1057 605 OFFCURVE",
"1043 599 OFFCURVE",
"1032 592 CURVE",
"1002 561 LINE"
);
},
{
closed = 1;
nodes = (
"1014 504 OFFCURVE",
"1022 490 OFFCURVE",
"1028 481 CURVE SMOOTH",
"1046 454 LINE SMOOTH",
"1055 440 OFFCURVE",
"1073 438 OFFCURVE",
"1085 446 CURVE SMOOTH",
"1097 454 OFFCURVE",
"1098 472 OFFCURVE",
"1089 484 CURVE SMOOTH",
"1069 511 LINE SMOOTH",
"1063 519 OFFCURVE",
"1052 531 OFFCURVE",
"1029 553 CURVE",
"1060 556 OFFCURVE",
"1067 556 OFFCURVE",
"1086 562 CURVE SMOOTH",
"1117 571 LINE SMOOTH",
"1133 576 OFFCURVE",
"1141 592 OFFCURVE",
"1137 605 CURVE SMOOTH",
"1132 620 OFFCURVE",
"1116 626 OFFCURVE",
"1102 621 CURVE SMOOTH",
"1070 610 LINE SMOOTH",
"1056 605 OFFCURVE",
"1034 594 OFFCURVE",
"1018 585 CURVE",
"1024 614 OFFCURVE",
"1026 628 OFFCURVE",
"1026 643 CURVE SMOOTH",
"1027 676 LINE SMOOTH",
"1027 692 OFFCURVE",
"1016 704 OFFCURVE",
"1001 704 CURVE SMOOTH",
"986 704 OFFCURVE",
"975 692 OFFCURVE",
"975 676 CURVE SMOOTH",
"976 643 LINE SMOOTH",
"976 629 OFFCURVE",
"978 613 OFFCURVE",
"984 585 CURVE",
"964 597 OFFCURVE",
"947 605 OFFCURVE",
"931 611 CURVE SMOOTH",
"900 622 LINE SMOOTH",
"885 627 OFFCURVE",
"870 620 OFFCURVE",
"865 606 CURVE SMOOTH",
"860 592 OFFCURVE",
"869 578 OFFCURVE",
"884 573 CURVE SMOOTH",
"915 563 LINE SMOOTH",
"926 559 OFFCURVE",
"954 555 OFFCURVE",
"973 552 CURVE",
"951 533 OFFCURVE",
"940 521 OFFCURVE",
"932 511 CURVE SMOOTH",
"912 485 LINE SMOOTH",
"902 472 OFFCURVE",
"905 455 OFFCURVE",
"917 446 CURVE SMOOTH",
"929 437 OFFCURVE",
"945 441 OFFCURVE",
"954 454 CURVE SMOOTH",
"973 481 LINE SMOOTH",
"981 493 OFFCURVE",
"990 508 OFFCURVE",
"1001 532 CURVE"
);
}
);
};
guideLines = (
{
position = "{264, 562}";
},
{
angle = 90;
position = "{201, 642}";
},
{
position = "{123, 616}";
}
);
layerId = master01;
paths = (
{
closed = 1;
nodes = (
"130 447 OFFCURVE",
"142 449 OFFCURVE",
"148 458 CURVE SMOOTH",
"163 480 LINE SMOOTH",
"177 501 OFFCURVE",
"189 522 OFFCURVE",
"201 555 CURVE",
"214 523 OFFCURVE",
"226 501 OFFCURVE",
"240 480 CURVE SMOOTH",
"254 459 LINE SMOOTH",
"261 449 OFFCURVE",
"272 447 OFFCURVE",
"281 453 CURVE SMOOTH",
"289 459 OFFCURVE",
"291 470 OFFCURVE",
"283 480 CURVE SMOOTH",
"267 500 LINE SMOOTH",
"251 520 OFFCURVE",
"234 537 OFFCURVE",
"207 559 CURVE",
"242 561 OFFCURVE",
"267 566 OFFCURVE",
"292 573 CURVE SMOOTH",
"317 580 LINE SMOOTH",
"328 583 OFFCURVE",
"333 594 OFFCURVE",
"330 604 CURVE SMOOTH",
"327 613 OFFCURVE",
"317 619 OFFCURVE",
"305 615 CURVE SMOOTH",
"281 606 LINE SMOOTH",
"258 597 OFFCURVE",
"234 586 OFFCURVE",
"205 567 CURVE",
"214 601 OFFCURVE",
"217 626 OFFCURVE",
"218 651 CURVE SMOOTH",
"219 677 LINE SMOOTH",
"219 689 OFFCURVE",
"211 697 OFFCURVE",
"201 697 CURVE SMOOTH",
"191 697 OFFCURVE",
"183 689 OFFCURVE",
"183 677 CURVE SMOOTH",
"184 651 LINE SMOOTH",
"185 626 OFFCURVE",
"187 601 OFFCURVE",
"196 567 CURVE",
"166 586 OFFCURVE",
"145 597 OFFCURVE",
"122 605 CURVE SMOOTH",
"97 614 LINE SMOOTH",
"86 618 OFFCURVE",
"76 613 OFFCURVE",
"73 603 CURVE SMOOTH",
"70 594 OFFCURVE",
"75 583 OFFCURVE",
"86 580 CURVE SMOOTH",
"111 573 LINE SMOOTH",
"135 566 OFFCURVE",
"159 561 OFFCURVE",
"194 559 CURVE",
"167 537 OFFCURVE",
"151 520 OFFCURVE",
"135 500 CURVE SMOOTH",
"119 479 LINE SMOOTH",
"112 470 OFFCURVE",
"114 459 OFFCURVE",
"122 453 CURVE SMOOTH"
);
}
);
userData = {
com.fontlab.hintData = {
hhints = (
{
position = 457;
width = 241;
}
);
vhints = (
{
position = 178;
width = 36;
}
);
};
};
width = 387;
},
{
background = {
paths = (
{
closed = 1;
nodes = (
"131 440 OFFCURVE",
"139 449 OFFCURVE",
"147 458 CURVE SMOOTH",
"173 486 LINE SMOOTH",
"184 498 OFFCURVE",
"195 517 OFFCURVE",
"201 527 CURVE",
"207 517 OFFCURVE",
"218 498 OFFCURVE",
"229 486 CURVE SMOOTH",
"260 452 LINE SMOOTH",
"265 446 OFFCURVE",
"272 440 OFFCURVE",
"284 440 CURVE SMOOTH",
"296 440 OFFCURVE",
"309 452 OFFCURVE",
"309 466 CURVE SMOOTH",
"309 474 OFFCURVE",
"306 480 OFFCURVE",
"300 487 CURVE SMOOTH",
"270 521 LINE SMOOTH",
"257 536 OFFCURVE",
"244 543 OFFCURVE",
"234 551 CURVE",
"248 553 OFFCURVE",
"270 559 OFFCURVE",
"281 565 CURVE SMOOTH",
"314 582 LINE SMOOTH",
"323 587 OFFCURVE",
"328 596 OFFCURVE",
"328 606 CURVE SMOOTH",
"328 619 OFFCURVE",
"317 632 OFFCURVE",
"302 632 CURVE SMOOTH",
"296 632 OFFCURVE",
"289 629 OFFCURVE",
"283 626 CURVE SMOOTH",
"260 614 LINE SMOOTH",
"244 606 OFFCURVE",
"232 596 OFFCURVE",
"221 587 CURVE",
"223 599 OFFCURVE",
"227 618 OFFCURVE",
"227 636 CURVE SMOOTH",
"227 662 LINE SMOOTH",
"227 678 OFFCURVE",
"215 690 OFFCURVE",
"201 690 CURVE SMOOTH",
"186 690 OFFCURVE",
"175 678 OFFCURVE",
"175 662 CURVE SMOOTH",
"175 636 LINE SMOOTH",
"175 618 OFFCURVE",
"179 600 OFFCURVE",
"181 587 CURVE",
"171 595 OFFCURVE",
"157 607 OFFCURVE",
"142 615 CURVE SMOOTH",
"114 629 LINE SMOOTH",
"110 631 OFFCURVE",
"106 632 OFFCURVE",
"100 632 CURVE SMOOTH",
"85 632 OFFCURVE",
"74 618 OFFCURVE",
"74 606 CURVE SMOOTH",
"74 596 OFFCURVE",
"79 587 OFFCURVE",
"88 582 CURVE SMOOTH",
"121 565 LINE SMOOTH",
"134 558 OFFCURVE",
"156 553 OFFCURVE",
"168 551 CURVE",
"158 544 OFFCURVE",
"146 536 OFFCURVE",
"132 521 CURVE SMOOTH",
"105 492 LINE SMOOTH",
"98 485 OFFCURVE",
"92 476 OFFCURVE",
"92 467 CURVE SMOOTH",
"92 451 OFFCURVE",
"105 440 OFFCURVE",
"119 440 CURVE SMOOTH"
);
},
{
closed = 0;
nodes = (
"579 599 LINE",
"599 560 LINE"
);
},
{
closed = 0;
nodes = (
"638 540 LINE",
"599 559 LINE"
);
},
{
closed = 0;
nodes = (
"630 590 LINE",
"600 559 LINE"
);
},
{
closed = 1;
nodes = (
"619 599 LINE",
"622 612 OFFCURVE",
"624 627 OFFCURVE",
"624 641 CURVE SMOOTH",
"625 674 LINE SMOOTH",
"625 690 OFFCURVE",
"614 702 OFFCURVE",
"599 702 CURVE SMOOTH",
"584 702 OFFCURVE",
"573 690 OFFCURVE",
"573 674 CURVE SMOOTH",
"574 641 LINE SMOOTH",
"574 627 OFFCURVE",
"576 612 OFFCURVE",
"579 599 CURVE",
"599 560 LINE"
);
},
{
closed = 1;
nodes = (
"567 591 LINE",
"556 598 OFFCURVE",
"542 604 OFFCURVE",
"529 609 CURVE SMOOTH",
"498 620 LINE SMOOTH",
"483 625 OFFCURVE",
"468 618 OFFCURVE",
"463 604 CURVE SMOOTH",
"458 590 OFFCURVE",
"467 576 OFFCURVE",
"482 571 CURVE SMOOTH",
"513 561 LINE SMOOTH",
"527 557 OFFCURVE",
"542 554 OFFCURVE",
"555 553 CURVE",
"598 560 LINE"
);
},
{
closed = 1;
nodes = (
"559 539 LINE",
"549 531 OFFCURVE",
"538 520 OFFCURVE",
"530 509 CURVE SMOOTH",
"510 483 LINE SMOOTH",
"500 470 OFFCURVE",
"503 453 OFFCURVE",
"515 444 CURVE SMOOTH",
"527 435 OFFCURVE",
"543 439 OFFCURVE",
"552 452 CURVE SMOOTH",
"571 479 LINE SMOOTH",
"579 491 OFFCURVE",
"587 504 OFFCURVE",
"592 516 CURVE",
"598 559 LINE"
);
},
{
closed = 1;
nodes = (
"606 516 LINE",
"611 504 OFFCURVE",
"618 490 OFFCURVE",
"626 479 CURVE SMOOTH",
"644 452 LINE SMOOTH",
"653 438 OFFCURVE",
"671 436 OFFCURVE",
"683 444 CURVE SMOOTH",
"695 452 OFFCURVE",
"696 470 OFFCURVE",
"687 482 CURVE SMOOTH",
"667 509 LINE SMOOTH",
"659 520 OFFCURVE",
"648 531 OFFCURVE",
"638 540 CURVE",
"599 559 LINE"
);
},
{
closed = 1;
nodes = (
"643 552 LINE",
"656 554 OFFCURVE",
"671 556 OFFCURVE",
"684 560 CURVE SMOOTH",
"715 569 LINE SMOOTH",
"731 574 OFFCURVE",
"739 590 OFFCURVE",
"735 603 CURVE SMOOTH",
"730 618 OFFCURVE",
"714 624 OFFCURVE",
"700 619 CURVE SMOOTH",
"668 608 LINE SMOOTH",
"655 603 OFFCURVE",
"641 597 OFFCURVE",
"630 590 CURVE",
"600 559 LINE"
);
},
{
closed = 1;
nodes = (
"679 410 OFFCURVE",
"748 479 OFFCURVE",
"748 562 CURVE SMOOTH",
"748 640 OFFCURVE",
"679 709 OFFCURVE",
"601 709 CURVE SMOOTH",
"518 709 OFFCURVE",
"449 640 OFFCURVE",
"449 562 CURVE SMOOTH",
"449 479 OFFCURVE",
"518 410 OFFCURVE",
"601 410 CURVE SMOOTH"
);
},
{
closed = 1;
nodes = (
"612 502 OFFCURVE",
"620 488 OFFCURVE",
"626 479 CURVE SMOOTH",
"644 452 LINE SMOOTH",
"653 438 OFFCURVE",
"671 436 OFFCURVE",
"683 444 CURVE SMOOTH",
"695 452 OFFCURVE",
"696 470 OFFCURVE",
"687 482 CURVE SMOOTH",
"667 509 LINE SMOOTH",
"661 517 OFFCURVE",
"650 529 OFFCURVE",
"627 551 CURVE",
"658 554 OFFCURVE",
"665 554 OFFCURVE",
"684 560 CURVE SMOOTH",
"715 569 LINE SMOOTH",
"731 574 OFFCURVE",
"739 590 OFFCURVE",
"735 603 CURVE SMOOTH",
"730 618 OFFCURVE",
"714 624 OFFCURVE",
"700 619 CURVE SMOOTH",
"668 608 LINE SMOOTH",
"654 603 OFFCURVE",
"632 592 OFFCURVE",
"616 583 CURVE",
"622 612 OFFCURVE",
"624 626 OFFCURVE",
"624 641 CURVE SMOOTH",
"625 674 LINE SMOOTH",
"625 690 OFFCURVE",
"614 702 OFFCURVE",
"599 702 CURVE SMOOTH",
"584 702 OFFCURVE",
"573 690 OFFCURVE",
"573 674 CURVE SMOOTH",
"574 641 LINE SMOOTH",
"574 627 OFFCURVE",
"576 611 OFFCURVE",
"582 583 CURVE",
"562 595 OFFCURVE",
"545 603 OFFCURVE",
"529 609 CURVE SMOOTH",
"498 620 LINE SMOOTH",
"483 625 OFFCURVE",
"468 618 OFFCURVE",
"463 604 CURVE SMOOTH",
"458 590 OFFCURVE",
"467 576 OFFCURVE",
"482 571 CURVE SMOOTH",
"513 561 LINE SMOOTH",
"524 557 OFFCURVE",
"552 553 OFFCURVE",
"571 550 CURVE",
"549 531 OFFCURVE",
"538 519 OFFCURVE",
"530 509 CURVE SMOOTH",
"510 483 LINE SMOOTH",
"500 470 OFFCURVE",
"503 453 OFFCURVE",
"515 444 CURVE SMOOTH",
"527 435 OFFCURVE",
"543 439 OFFCURVE",
"552 452 CURVE SMOOTH",
"571 479 LINE SMOOTH",
"579 491 OFFCURVE",
"588 506 OFFCURVE",
"599 530 CURVE"
);
},
{
closed = 1;
nodes = (
"616 527 OFFCURVE",
"631 542 OFFCURVE",
"631 560 CURVE SMOOTH",
"631 577 OFFCURVE",
"616 592 OFFCURVE",
"599 592 CURVE SMOOTH",
"581 592 OFFCURVE",
"566 577 OFFCURVE",
"566 560 CURVE SMOOTH",
"566 542 OFFCURVE",
"581 527 OFFCURVE",
"599 527 CURVE SMOOTH"
);
},
{
closed = 1;
nodes = (
"679 410 OFFCURVE",
"748 479 OFFCURVE",
"748 562 CURVE SMOOTH",
"748 640 OFFCURVE",
"679 709 OFFCURVE",
"601 709 CURVE SMOOTH",
"518 709 OFFCURVE",
"449 640 OFFCURVE",
"449 562 CURVE SMOOTH",
"449 479 OFFCURVE",
"518 410 OFFCURVE",
"601 410 CURVE SMOOTH"
);
},
{
closed = 1;
nodes = (
"622 516 OFFCURVE",
"643 536 OFFCURVE",
"643 560 CURVE SMOOTH",
"643 583 OFFCURVE",
"622 604 OFFCURVE",
"599 604 CURVE SMOOTH",
"575 604 OFFCURVE",
"555 583 OFFCURVE",
"555 560 CURVE SMOOTH",
"555 536 OFFCURVE",
"575 516 OFFCURVE",
"599 516 CURVE SMOOTH"
);
},
{
closed = 1;
nodes = (
"615 530 OFFCURVE",
"629 543 OFFCURVE",
"629 560 CURVE SMOOTH",
"629 576 OFFCURVE",
"615 590 OFFCURVE",
"599 590 CURVE SMOOTH",
"582 590 OFFCURVE",
"569 576 OFFCURVE",
"569 560 CURVE SMOOTH",
"569 543 OFFCURVE",
"582 530 OFFCURVE",
"599 530 CURVE SMOOTH"
);
},
{
closed = 1;
nodes = (
"669 410 OFFCURVE",
"738 479 OFFCURVE",
"738 562 CURVE SMOOTH",
"738 640 OFFCURVE",
"669 709 OFFCURVE",
"591 709 CURVE SMOOTH",
"508 709 OFFCURVE",
"439 640 OFFCURVE",
"439 562 CURVE SMOOTH",
"439 479 OFFCURVE",
"508 410 OFFCURVE",
"591 410 CURVE SMOOTH"
);
}
);
};
guideLines = (
{
position = "{171, 548}";
},
{
angle = 90;
position = "{199, 657}";
}
);
layerId = "218416E4-0B36-4DBB-8D0A-D6BB29FB6576";
paths = (
{
closed = 1;
nodes = (
"127 435 OFFCURVE",
"143 439 OFFCURVE",
"152 452 CURVE SMOOTH",
"171 479 LINE SMOOTH",
"179 491 OFFCURVE",
"188 506 OFFCURVE",
"199 530 CURVE",
"212 502 OFFCURVE",
"220 488 OFFCURVE",
"226 479 CURVE SMOOTH",
"244 452 LINE SMOOTH",
"253 438 OFFCURVE",
"271 436 OFFCURVE",
"283 444 CURVE SMOOTH",
"295 452 OFFCURVE",
"296 470 OFFCURVE",
"287 482 CURVE SMOOTH",
"267 509 LINE SMOOTH",
"261 517 OFFCURVE",
"250 529 OFFCURVE",
"227 551 CURVE",
"258 554 OFFCURVE",
"265 554 OFFCURVE",
"284 560 CURVE SMOOTH",
"315 569 LINE SMOOTH",
"331 574 OFFCURVE",
"339 590 OFFCURVE",
"335 603 CURVE SMOOTH",
"330 618 OFFCURVE",
"314 624 OFFCURVE",
"300 619 CURVE SMOOTH",
"268 608 LINE SMOOTH",
"254 603 OFFCURVE",
"232 592 OFFCURVE",
"216 583 CURVE",
"222 612 OFFCURVE",
"224 626 OFFCURVE",
"224 641 CURVE SMOOTH",
"225 674 LINE SMOOTH",
"225 690 OFFCURVE",
"214 702 OFFCURVE",
"199 702 CURVE SMOOTH",
"184 702 OFFCURVE",
"173 690 OFFCURVE",
"173 674 CURVE SMOOTH",
"174 641 LINE SMOOTH",
"174 627 OFFCURVE",
"176 611 OFFCURVE",
"182 583 CURVE",
"162 595 OFFCURVE",
"145 603 OFFCURVE",
"129 609 CURVE SMOOTH",
"98 620 LINE SMOOTH",
"83 625 OFFCURVE",
"68 618 OFFCURVE",
"63 604 CURVE SMOOTH",
"58 590 OFFCURVE",
"67 576 OFFCURVE",
"82 571 CURVE SMOOTH",
"113 561 LINE SMOOTH",
"124 557 OFFCURVE",
"152 553 OFFCURVE",
"171 550 CURVE",
"149 531 OFFCURVE",
"138 519 OFFCURVE",
"130 509 CURVE SMOOTH",
"110 483 LINE SMOOTH",
"100 470 OFFCURVE",
"103 453 OFFCURVE",
"115 444 CURVE SMOOTH"
);
}
);
userData = {
com.fontlab.hintData = {
hhints = (
{
position = 582;
width = 50;
},
{
position = 670;
width = 20;
}
);
vhints = (
{
position = 170;
width = 54;
}
);
};
};
width = 397;
},
{
background = {
paths = (
{
closed = 1;
nodes = (
"165 421 OFFCURVE",
"179 427 OFFCURVE",
"188 440 CURVE SMOOTH",
"201 458 LINE",
"215 441 LINE SMOOTH",
"225 429 OFFCURVE",
"236 421 OFFCURVE",
"252 421 CURVE SMOOTH",
"278 421 OFFCURVE",
"299 444 OFFCURVE",
"299 468 CURVE SMOOTH",
"299 478 OFFCURVE",
"296 487 OFFCURVE",
"290 496 CURVE SMOOTH",
"278 514 LINE",
"299 521 LINE SMOOTH",
"318 527 OFFCURVE",
"331 546 OFFCURVE",
"331 566 CURVE SMOOTH",
"331 594 OFFCURVE",
"308 612 OFFCURVE",
"284 612 CURVE SMOOTH",
"280 612 OFFCURVE",
"277 612 OFFCURVE",
"270 610 CURVE SMOOTH",
"248 603 LINE",
"248 625 LINE SMOOTH",
"248 651 OFFCURVE",
"227 672 OFFCURVE",
"201 672 CURVE SMOOTH",
"175 672 OFFCURVE",
"154 651 OFFCURVE",
"154 625 CURVE SMOOTH",
"154 603 LINE",
"133 609 LINE SMOOTH",
"126 611 OFFCURVE",
"123 611 OFFCURVE",
"118 611 CURVE SMOOTH",
"95 611 OFFCURVE",
"72 593 OFFCURVE",
"72 565 CURVE SMOOTH",
"72 545 OFFCURVE",
"84 526 OFFCURVE",
"104 520 CURVE SMOOTH",
"125 513 LINE",
"112 496 LINE SMOOTH",
"106 488 OFFCURVE",
"103 478 OFFCURVE",
"103 469 CURVE SMOOTH",
"103 444 OFFCURVE",
"124 421 OFFCURVE",
"151 421 CURVE SMOOTH"
);
}
);
};
layerId = "BB1A411A-CAFC-47D3-A925-066104B707B4";
paths = (
{
closed = 1;
nodes = (
"165 421 OFFCURVE",
"179 427 OFFCURVE",
"188 440 CURVE SMOOTH",
"201 458 LINE",
"215 441 LINE SMOOTH",
"225 429 OFFCURVE",
"236 421 OFFCURVE",
"252 421 CURVE SMOOTH",
"278 421 OFFCURVE",
"299 444 OFFCURVE",
"299 468 CURVE SMOOTH",
"299 478 OFFCURVE",
"296 487 OFFCURVE",
"290 496 CURVE SMOOTH",
"278 514 LINE",
"299 521 LINE SMOOTH",
"318 527 OFFCURVE",
"331 546 OFFCURVE",
"331 566 CURVE SMOOTH",
"331 594 OFFCURVE",
"308 612 OFFCURVE",
"285 612 CURVE SMOOTH",
"276 612 OFFCURVE",
"265 609 OFFCURVE",
"248 603 CURVE",
"248 625 LINE SMOOTH",
"248 651 OFFCURVE",
"227 672 OFFCURVE",
"201 672 CURVE SMOOTH",
"175 672 OFFCURVE",
"154 651 OFFCURVE",
"154 625 CURVE SMOOTH",
"154 603 LINE",
"137 608 OFFCURVE",
"128 611 OFFCURVE",
"118 611 CURVE SMOOTH",
"95 611 OFFCURVE",
"72 593 OFFCURVE",
"72 565 CURVE SMOOTH",
"72 545 OFFCURVE",
"84 526 OFFCURVE",
"104 520 CURVE SMOOTH",
"125 513 LINE",
"112 496 LINE SMOOTH",
"106 488 OFFCURVE",
"103 478 OFFCURVE",
"103 469 CURVE SMOOTH",
"103 444 OFFCURVE",
"124 421 OFFCURVE",
"151 421 CURVE SMOOTH"
);
}
);
userData = {
com.fontlab.hintData = {
hhints = (
{
position = 421;
width = 251;
}
);
vhints = (
{
position = 72;
width = 259;
},
{
position = 154;
width = 94;
}
);
};
};
width = 423;
}
);
unicode = 002A;
},
{
glyphname = plus;
lastChange = "2019-12-18 20:08:00 +0000";
layers = (
{
background = {
paths = (
{
closed = 1;
nodes = (
"238 89 OFFCURVE",
"246 97 OFFCURVE",
"246 106 CURVE SMOOTH",
"246 233 LINE",
"376 233 LINE SMOOTH",
"385 233 OFFCURVE",
"393 242 OFFCURVE",
"393 251 CURVE SMOOTH",
"393 261 OFFCURVE",
"385 269 OFFCURVE",
"376 269 CURVE SMOOTH",
"246 269 LINE",
"246 386 LINE SMOOTH",
"246 395 OFFCURVE",
"238 403 OFFCURVE",
"229 403 CURVE SMOOTH",
"219 403 OFFCURVE",
"211 395 OFFCURVE",
"211 386 CURVE SMOOTH",
"211 269 LINE",
"83 269 LINE SMOOTH",
"73 269 OFFCURVE",
"65 261 OFFCURVE",
"65 251 CURVE SMOOTH",
"65 242 OFFCURVE",
"73 233 OFFCURVE",
"83 233 CURVE SMOOTH",
"211 233 LINE",
"211 106 LINE SMOOTH",
"211 97 OFFCURVE",
"219 89 OFFCURVE",
"229 89 CURVE SMOOTH"
);
}
);
};
layerId = master01;
paths = (
{
closed = 1;
nodes = (
"238 89 OFFCURVE",
"246 97 OFFCURVE",
"246 106 CURVE SMOOTH",
"246 233 LINE",
"376 233 LINE SMOOTH",
"385 233 OFFCURVE",
"393 242 OFFCURVE",
"393 251 CURVE SMOOTH",
"393 261 OFFCURVE",
"385 269 OFFCURVE",
"376 269 CURVE SMOOTH",
"246 269 LINE",
"246 386 LINE SMOOTH",
"246 395 OFFCURVE",
"238 403 OFFCURVE",
"229 403 CURVE SMOOTH",
"219 403 OFFCURVE",
"211 395 OFFCURVE",
"211 386 CURVE SMOOTH",
"211 269 LINE",
"83 269 LINE SMOOTH",
"73 269 OFFCURVE",
"65 261 OFFCURVE",
"65 251 CURVE SMOOTH",
"65 242 OFFCURVE",
"73 233 OFFCURVE",
"83 233 CURVE SMOOTH",
"211 233 LINE",
"211 106 LINE SMOOTH",
"211 97 OFFCURVE",
"219 89 OFFCURVE",
"229 89 CURVE SMOOTH"
);
}
);
userData = {
com.fontlab.hintData = {
hhints = (
{
position = 233;
width = 36;
}
);
vhints = (
{
position = 203;
width = 35;
}
);
};
};
width = 458;
},
{
background = {
paths = (
{
closed = 1;
nodes = (
"237 85 OFFCURVE",
"249 97 OFFCURVE",
"249 112 CURVE SMOOTH",
"249 224 LINE",
"363 224 LINE SMOOTH",
"378 224 OFFCURVE",
"390 236 OFFCURVE",
"390 251 CURVE SMOOTH",
"390 266 OFFCURVE",
"378 278 OFFCURVE",
"363 278 CURVE SMOOTH",
"249 278 LINE",
"249 380 LINE SMOOTH",
"249 395 OFFCURVE",
"237 407 OFFCURVE",
"222 407 CURVE SMOOTH",
"207 407 OFFCURVE",
"195 395 OFFCURVE",
"195 380 CURVE SMOOTH",
"195 278 LINE",
"82 278 LINE SMOOTH",
"67 278 OFFCURVE",
"55 266 OFFCURVE",
"55 251 CURVE SMOOTH",
"55 236 OFFCURVE",
"67 224 OFFCURVE",
"82 224 CURVE SMOOTH",
"195 224 LINE",
"195 112 LINE SMOOTH",
"195 97 OFFCURVE",
"207 85 OFFCURVE",
"222 85 CURVE SMOOTH"
);
}
);
};
layerId = "218416E4-0B36-4DBB-8D0A-D6BB29FB6576";
paths = (
{
closed = 1;
nodes = (
"237 85 OFFCURVE",
"249 97 OFFCURVE",
"249 112 CURVE SMOOTH",
"249 224 LINE",
"363 224 LINE SMOOTH",
"378 224 OFFCURVE",
"390 236 OFFCURVE",
"390 251 CURVE SMOOTH",
"390 266 OFFCURVE",
"378 278 OFFCURVE",
"363 278 CURVE SMOOTH",
"249 278 LINE",
"249 380 LINE SMOOTH",
"249 395 OFFCURVE",
"237 407 OFFCURVE",
"222 407 CURVE SMOOTH",
"207 407 OFFCURVE",
"195 395 OFFCURVE",
"195 380 CURVE SMOOTH",
"195 278 LINE",
"82 278 LINE SMOOTH",
"67 278 OFFCURVE",
"55 266 OFFCURVE",
"55 251 CURVE SMOOTH",
"55 236 OFFCURVE",
"67 224 OFFCURVE",
"82 224 CURVE SMOOTH",
"195 224 LINE",
"195 112 LINE SMOOTH",
"195 97 OFFCURVE",
"207 85 OFFCURVE",
"222 85 CURVE SMOOTH"
);
}
);
userData = {
com.fontlab.hintData = {
hhints = (
{
position = 224;
width = 54;
}
);
vhints = (
{
position = 194;
width = 54;
}
);
};
};
width = 445;
},
{
background = {
paths = (
{
closed = 1;
nodes = (
"246 77 OFFCURVE",
"267 98 OFFCURVE",
"267 124 CURVE SMOOTH",
"267 203 LINE",
"348 203 LINE SMOOTH",
"374 203 OFFCURVE",
"395 224 OFFCURVE",
"395 251 CURVE SMOOTH",
"395 277 OFFCURVE",
"374 298 OFFCURVE",
"348 298 CURVE SMOOTH",
"267 298 LINE",
"267 368 LINE SMOOTH",
"267 394 OFFCURVE",
"246 415 OFFCURVE",
"220 415 CURVE SMOOTH",
"194 415 OFFCURVE",
"173 394 OFFCURVE",
"173 368 CURVE SMOOTH",
"173 298 LINE",
"93 298 LINE SMOOTH",
"66 298 OFFCURVE",
"45 277 OFFCURVE",
"45 251 CURVE SMOOTH",
"45 224 OFFCURVE",
"66 203 OFFCURVE",
"93 203 CURVE SMOOTH",
"173 203 LINE",
"173 124 LINE SMOOTH",
"173 98 OFFCURVE",
"194 77 OFFCURVE",
"220 77 CURVE SMOOTH"
);
}
);
};
layerId = "BB1A411A-CAFC-47D3-A925-066104B707B4";
paths = (
{
closed = 1;
nodes = (
"246 77 OFFCURVE",
"267 98 OFFCURVE",
"267 124 CURVE SMOOTH",
"267 203 LINE",
"348 203 LINE SMOOTH",
"374 203 OFFCURVE",
"395 224 OFFCURVE",
"395 251 CURVE SMOOTH",
"395 277 OFFCURVE",
"374 298 OFFCURVE",
"348 298 CURVE SMOOTH",
"267 298 LINE",
"267 368 LINE SMOOTH",
"267 394 OFFCURVE",
"246 415 OFFCURVE",
"220 415 CURVE SMOOTH",
"194 415 OFFCURVE",
"173 394 OFFCURVE",
"173 368 CURVE SMOOTH",
"173 298 LINE",
"93 298 LINE SMOOTH",
"66 298 OFFCURVE",
"45 277 OFFCURVE",
"45 251 CURVE SMOOTH",
"45 224 OFFCURVE",
"66 203 OFFCURVE",
"93 203 CURVE SMOOTH",
"173 203 LINE",
"173 124 LINE SMOOTH",
"173 98 OFFCURVE",
"194 77 OFFCURVE",
"220 77 CURVE SMOOTH"
);
}
);
userData = {
com.fontlab.hintData = {
hhints = (
{
position = 203;
width = 95;
}
);
vhints = (
{
position = 177;
width = 94;
}
);
};
};
width = 440;
}
);
unicode = 002B;
},
{
glyphname = comma;
lastChange = "2019-12-17 19:04:26 +0000";
layers = (
{
background = {
paths = (
{
closed = 1;
nodes = (
"79 -96 OFFCURVE",
"90 -67 OFFCURVE",
"106 -27 CURVE SMOOTH",
"121 11 OFFCURVE",
"124 18 OFFCURVE",
"124 36 CURVE SMOOTH",
"124 47 OFFCURVE",
"114 59 OFFCURVE",
"101 59 CURVE SMOOTH",
"85 59 OFFCURVE",
"70 43 OFFCURVE",
"70 23 CURVE SMOOTH",
"70 14 OFFCURVE",
"75 3 OFFCURVE",
"84 -5 CURVE",
"57 -76 LINE SMOOTH",
"55 -81 OFFCURVE",
"55 -83 OFFCURVE",
"55 -86 CURVE SMOOTH",
"55 -91 OFFCURVE",
"61 -96 OFFCURVE",
"68 -96 CURVE SMOOTH"
);
}
);
};
layerId = master01;
paths = (
{
closed = 1;
nodes = (
"79 -96 OFFCURVE",
"90 -67 OFFCURVE",
"106 -27 CURVE SMOOTH",
"121 11 OFFCURVE",
"124 18 OFFCURVE",
"124 36 CURVE SMOOTH",
"124 47 OFFCURVE",
"114 59 OFFCURVE",
"101 59 CURVE SMOOTH",
"85 59 OFFCURVE",
"70 43 OFFCURVE",
"70 23 CURVE SMOOTH",
"70 14 OFFCURVE",
"75 3 OFFCURVE",
"84 -5 CURVE",
"57 -76 LINE SMOOTH",
"55 -81 OFFCURVE",
"55 -83 OFFCURVE",
"55 -86 CURVE SMOOTH",
"55 -91 OFFCURVE",
"61 -96 OFFCURVE",
"68 -96 CURVE SMOOTH"
);
}
);
userData = {
com.fontlab.hintData = {
hhints = (
{
position = -96;
width = 155;
}
);
vhints = (
{
position = 96;
width = 51;
},
{
position = 111;
width = 54;
}
);
};
};
width = 184;
},
{
background = {
paths = (
{
closed = 1;
nodes = (
"87 -93 OFFCURVE",
"88 -77 OFFCURVE",
"112 -19 CURVE SMOOTH",
"127 17 OFFCURVE",
"131 26 OFFCURVE",
"131 45 CURVE SMOOTH",
"131 60 OFFCURVE",
"117 77 OFFCURVE",
"99 77 CURVE SMOOTH",
"78 77 OFFCURVE",
"59 56 OFFCURVE",
"59 32 CURVE SMOOTH",
"59 20 OFFCURVE",
"64 9 OFFCURVE",
"71 2 CURVE",
"47 -62 LINE SMOOTH",
"46 -65 OFFCURVE",
"45 -68 OFFCURVE",
"45 -71 CURVE SMOOTH",
"45 -83 OFFCURVE",
"55 -93 OFFCURVE",
"68 -93 CURVE SMOOTH"
);
}
);
};
layerId = "218416E4-0B36-4DBB-8D0A-D6BB29FB6576";
paths = (
{
closed = 1;
nodes = (
"87 -93 OFFCURVE",
"88 -77 OFFCURVE",
"112 -19 CURVE SMOOTH",
"127 17 OFFCURVE",
"131 26 OFFCURVE",
"131 45 CURVE SMOOTH",
"131 60 OFFCURVE",
"117 77 OFFCURVE",
"99 77 CURVE SMOOTH",
"78 77 OFFCURVE",
"59 56 OFFCURVE",
"59 32 CURVE SMOOTH",
"59 20 OFFCURVE",
"64 9 OFFCURVE",
"71 2 CURVE",
"47 -62 LINE SMOOTH",
"46 -65 OFFCURVE",
"45 -68 OFFCURVE",
"45 -71 CURVE SMOOTH",
"45 -83 OFFCURVE",
"55 -93 OFFCURVE",
"68 -93 CURVE SMOOTH"
);
}
);
userData = {
com.fontlab.hintData = {
hhints = (
{
position = -93;
width = 170;
}
);
vhints = (
{
position = 90;
width = 67;
},
{
position = 104;
width = 72;
}
);
};
};
width = 181;
},
{
background = {
paths = (
{
closed = 1;
nodes = (
"110 -84 OFFCURVE",
"121 -66 OFFCURVE",
"130 -45 CURVE SMOOTH",
"146 -7 OFFCURVE",
"164 43 OFFCURVE",
"164 64 CURVE SMOOTH",
"164 92 OFFCURVE",
"141 115 OFFCURVE",
"112 115 CURVE SMOOTH",
"81 115 OFFCURVE",
"53 85 OFFCURVE",
"53 52 CURVE SMOOTH",
"53 40 OFFCURVE",
"56 30 OFFCURVE",
"61 21 CURVE",
"43 -26 LINE SMOOTH",
"41 -31 OFFCURVE",
"40 -35 OFFCURVE",
"40 -42 CURVE SMOOTH",
"40 -65 OFFCURVE",
"59 -84 OFFCURVE",
"84 -84 CURVE SMOOTH"
);
}
);
};
layerId = "BB1A411A-CAFC-47D3-A925-066104B707B4";
paths = (
{
closed = 1;
nodes = (
"110 -84 OFFCURVE",
"121 -66 OFFCURVE",
"130 -45 CURVE SMOOTH",
"146 -7 OFFCURVE",
"164 43 OFFCURVE",
"164 64 CURVE SMOOTH",
"164 92 OFFCURVE",
"141 115 OFFCURVE",
"112 115 CURVE SMOOTH",
"81 115 OFFCURVE",
"53 85 OFFCURVE",
"53 52 CURVE SMOOTH",
"53 40 OFFCURVE",
"56 30 OFFCURVE",
"61 21 CURVE",
"43 -26 LINE SMOOTH",
"41 -31 OFFCURVE",
"40 -35 OFFCURVE",
"40 -42 CURVE SMOOTH",
"40 -65 OFFCURVE",
"59 -84 OFFCURVE",
"84 -84 CURVE SMOOTH"
);
}
);
userData = {
com.fontlab.hintData = {
hhints = (
{
position = -84;
width = 199;
}
);
vhints = (
{
position = 91;
width = 111;
}
);
};
};
width = 204;
}
);
leftKerningGroup = comma;
rightKerningGroup = comma;
unicode = 002C;
},
{
glyphname = hyphen;
lastChange = "2019-12-17 18:41:49 +0000";
layers = (
{
background = {
paths = (
{
closed = 1;
nodes = (
"330 232 LINE SMOOTH",
"339 232 OFFCURVE",
"348 241 OFFCURVE",
"348 250 CURVE SMOOTH",
"348 259 OFFCURVE",
"339 268 OFFCURVE",
"330 268 CURVE SMOOTH",
"72 268 LINE SMOOTH",
"63 268 OFFCURVE",
"55 259 OFFCURVE",
"55 250 CURVE SMOOTH",
"55 241 OFFCURVE",
"63 232 OFFCURVE",
"72 232 CURVE SMOOTH"
);
}
);
};
layerId = master01;
paths = (
{
closed = 1;
nodes = (
"330 232 LINE SMOOTH",
"339 232 OFFCURVE",
"348 241 OFFCURVE",
"348 250 CURVE SMOOTH",
"348 259 OFFCURVE",
"339 268 OFFCURVE",
"330 268 CURVE SMOOTH",
"72 268 LINE SMOOTH",
"63 268 OFFCURVE",
"55 259 OFFCURVE",
"55 250 CURVE SMOOTH",
"55 241 OFFCURVE",
"63 232 OFFCURVE",
"72 232 CURVE SMOOTH"
);
}
);
userData = {
com.fontlab.hintData = {
hhints = (
{
position = 232;
width = 36;
}
);
vhints = (
{
position = 75;
width = 293;
}
);
};
};
width = 403;
},
{
background = {
paths = (
{
closed = 1;
nodes = (
"324 223 LINE SMOOTH",
"339 223 OFFCURVE",
"351 236 OFFCURVE",
"351 250 CURVE SMOOTH",
"351 265 OFFCURVE",
"339 277 OFFCURVE",
"324 277 CURVE SMOOTH",
"77 277 LINE SMOOTH",
"63 277 OFFCURVE",
"50 265 OFFCURVE",
"50 250 CURVE SMOOTH",
"50 236 OFFCURVE",
"63 223 OFFCURVE",
"77 223 CURVE SMOOTH"
);
}
);
};
layerId = "218416E4-0B36-4DBB-8D0A-D6BB29FB6576";
paths = (
{
closed = 1;
nodes = (
"324 223 LINE SMOOTH",
"339 223 OFFCURVE",
"351 236 OFFCURVE",
"351 250 CURVE SMOOTH",
"351 265 OFFCURVE",
"339 277 OFFCURVE",
"324 277 CURVE SMOOTH",
"77 277 LINE SMOOTH",
"63 277 OFFCURVE",
"50 265 OFFCURVE",
"50 250 CURVE SMOOTH",
"50 236 OFFCURVE",
"63 223 OFFCURVE",
"77 223 CURVE SMOOTH"
);
}
);
userData = {
com.fontlab.hintData = {
hhints = (
{
position = 223;
width = 54;
}
);
vhints = (
{
position = 71;
width = 301;
}
);
};
};
width = 401;
},
{
background = {
paths = (
{
closed = 1;
nodes = (
"322 203 LINE SMOOTH",
"348 203 OFFCURVE",
"369 225 OFFCURVE",
"369 250 CURVE SMOOTH",
"369 276 OFFCURVE",
"348 297 OFFCURVE",
"322 297 CURVE SMOOTH",
"97 297 LINE SMOOTH",
"73 297 OFFCURVE",
"50 276 OFFCURVE",
"50 250 CURVE SMOOTH",
"50 225 OFFCURVE",
"73 203 OFFCURVE",
"97 203 CURVE SMOOTH"
);
}
);
};
layerId = "BB1A411A-CAFC-47D3-A925-066104B707B4";
paths = (
{
closed = 1;
nodes = (
"322 203 LINE SMOOTH",
"348 203 OFFCURVE",
"369 225 OFFCURVE",
"369 250 CURVE SMOOTH",
"369 276 OFFCURVE",
"348 297 OFFCURVE",
"322 297 CURVE SMOOTH",
"97 297 LINE SMOOTH",
"73 297 OFFCURVE",
"50 276 OFFCURVE",
"50 250 CURVE SMOOTH",
"50 225 OFFCURVE",
"73 203 OFFCURVE",
"97 203 CURVE SMOOTH"
);
}
);
userData = {
com.fontlab.hintData = {
hhints = (
{
position = 203;
width = 94;
}
);
vhints = (
{
position = 65;
width = 319;
}
);
};
};
width = 419;
}
);
leftKerningGroup = hyphen;
rightKerningGroup = hyphen;
unicode = 002D;
},
{
glyphname = period;
lastChange = "2019-12-17 19:04:23 +0000";
layers = (
{
background = {
paths = (
{
closed = 1;
nodes = (
"100 0 OFFCURVE",
"114 18 OFFCURVE",
"114 39 CURVE SMOOTH",
"114 53 OFFCURVE",
"104 66 OFFCURVE",
"91 66 CURVE SMOOTH",
"75 66 OFFCURVE",
"60 48 OFFCURVE",
"60 29 CURVE SMOOTH",
"60 14 OFFCURVE",
"70 0 OFFCURVE",
"83 0 CURVE SMOOTH"
);
}
);
};
layerId = master01;
paths = (
{
closed = 1;
nodes = (
"100 0 OFFCURVE",
"114 18 OFFCURVE",
"114 39 CURVE SMOOTH",
"114 53 OFFCURVE",
"104 66 OFFCURVE",
"91 66 CURVE SMOOTH",
"75 66 OFFCURVE",
"60 48 OFFCURVE",
"60 29 CURVE SMOOTH",
"60 14 OFFCURVE",
"70 0 OFFCURVE",
"83 0 CURVE SMOOTH"
);
}
);
userData = {
com.fontlab.hintData = {
hhints = (
{
position = 0;
width = 66;
}
);
vhints = (
{
position = 76;
width = 54;
}
);
};
};
width = 174;
},
{
background = {
paths = (
{
closed = 1;
nodes = (
"103 0 OFFCURVE",
"122 21 OFFCURVE",
"122 47 CURVE SMOOTH",
"122 67 OFFCURVE",
"108 83 OFFCURVE",
"90 83 CURVE SMOOTH",
"69 83 OFFCURVE",
"50 61 OFFCURVE",
"50 38 CURVE SMOOTH",
"50 17 OFFCURVE",
"63 0 OFFCURVE",
"82 0 CURVE SMOOTH"
);
}
);
};
layerId = "218416E4-0B36-4DBB-8D0A-D6BB29FB6576";
paths = (
{
closed = 1;
nodes = (
"103 0 OFFCURVE",
"122 21 OFFCURVE",
"122 47 CURVE SMOOTH",
"122 67 OFFCURVE",
"108 83 OFFCURVE",
"90 83 CURVE SMOOTH",
"69 83 OFFCURVE",
"50 61 OFFCURVE",
"50 38 CURVE SMOOTH",
"50 17 OFFCURVE",
"63 0 OFFCURVE",
"82 0 CURVE SMOOTH"
);
}
);
userData = {
com.fontlab.hintData = {
hhints = (
{
position = 0;
width = 83;
}
);
vhints = (
{
position = 70;
width = 72;
}
);
};
};
width = 172;
},
{
background = {
paths = (
{
closed = 1;
nodes = (
"127 0 OFFCURVE",
"156 29 OFFCURVE",
"156 65 CURVE SMOOTH",
"156 96 OFFCURVE",
"133 121 OFFCURVE",
"104 121 CURVE SMOOTH",
"73 121 OFFCURVE",
"45 90 OFFCURVE",
"45 57 CURVE SMOOTH",
"45 25 OFFCURVE",
"66 0 OFFCURVE",
"97 0 CURVE SMOOTH"
);
}
);
};
layerId = "BB1A411A-CAFC-47D3-A925-066104B707B4";
paths = (
{
closed = 1;
nodes = (
"127 0 OFFCURVE",
"156 29 OFFCURVE",
"156 65 CURVE SMOOTH",
"156 96 OFFCURVE",
"133 121 OFFCURVE",
"104 121 CURVE SMOOTH",
"73 121 OFFCURVE",
"45 90 OFFCURVE",
"45 57 CURVE SMOOTH",
"45 25 OFFCURVE",
"66 0 OFFCURVE",
"97 0 CURVE SMOOTH"
);
}
);
userData = {
com.fontlab.hintData = {
hhints = (
{
position = 0;
width = 121;
}
);
vhints = (
{
position = 59;
width = 111;
}
);
};
};
width = 201;
}
);
unicode = 002E;
},
{
glyphname = slash;
lastChange = "2019-12-18 22:49:07 +0000";
layers = (
{
background = {
paths = (
{
closed = 1;
nodes = (
"-265 -2 OFFCURVE",
"-260 -1 OFFCURVE",
"-256 6 CURVE SMOOTH",
"113 672 LINE SMOOTH",
"114 674 OFFCURVE",
"115 677 OFFCURVE",
"115 680 CURVE SMOOTH",
"115 692 OFFCURVE",
"108 700 OFFCURVE",
"96 700 CURVE SMOOTH",
"90 700 OFFCURVE",
"84 698 OFFCURVE",
"81 692 CURVE SMOOTH",
"-286 29 LINE SMOOTH",
"-289 24 OFFCURVE",
"-290 19 OFFCURVE",
"-290 17 CURVE SMOOTH",
"-290 6 OFFCURVE",
"-280 -2 OFFCURVE",
"-271 -2 CURVE SMOOTH"
);
},
{
closed = 1;
nodes = (
"-217 -116 OFFCURVE",
"-202 -104 OFFCURVE",
"-196 -91 CURVE SMOOTH",
"97 609 LINE SMOOTH",
"100 617 OFFCURVE",
"107 630 OFFCURVE",
"107 643 CURVE SMOOTH",
"107 666 OFFCURVE",
"87 689 OFFCURVE",
"59 689 CURVE SMOOTH",
"43 689 OFFCURVE",
"25 683 OFFCURVE",
"16 662 CURVE SMOOTH",
"-278 -39 LINE SMOOTH",
"-283 -52 OFFCURVE",
"-286 -60 OFFCURVE",
"-286 -72 CURVE SMOOTH",
"-286 -96 OFFCURVE",
"-265 -116 OFFCURVE",
"-237 -116 CURVE SMOOTH"
);
},
{
closed = 1;
nodes = (
"53 -116 OFFCURVE",
"59 -115 OFFCURVE",
"62 -108 CURVE SMOOTH",
"394 672 LINE SMOOTH",
"395 674 OFFCURVE",
"396 677 OFFCURVE",
"396 680 CURVE SMOOTH",
"396 692 OFFCURVE",
"389 700 OFFCURVE",
"377 700 CURVE SMOOTH",
"371 700 OFFCURVE",
"365 698 OFFCURVE",
"362 692 CURVE SMOOTH",
"32 -85 LINE SMOOTH",
"30 -90 OFFCURVE",
"28 -95 OFFCURVE",
"28 -97 CURVE SMOOTH",
"28 -108 OFFCURVE",
"38 -116 OFFCURVE",
"47 -116 CURVE SMOOTH"
);
},
{
closed = 1;
nodes = (
"53 -116 OFFCURVE",
"59 -115 OFFCURVE",
"62 -108 CURVE SMOOTH",
"393 669 LINE SMOOTH",
"395 674 OFFCURVE",
"396 678 OFFCURVE",
"396 683 CURVE SMOOTH",
"396 692 OFFCURVE",
"389 700 OFFCURVE",
"378 700 CURVE SMOOTH",
"370 700 OFFCURVE",
"364 696 OFFCURVE",
"361 689 CURVE SMOOTH",
"32 -85 LINE SMOOTH",
"30 -90 OFFCURVE",
"28 -95 OFFCURVE",
"28 -97 CURVE SMOOTH",
"28 -108 OFFCURVE",
"38 -116 OFFCURVE",
"47 -116 CURVE SMOOTH"
);
},
{
closed = 1;
nodes = (
"388 663 OFFCURVE",
"396 671 OFFCURVE",
"396 682 CURVE SMOOTH",
"396 692 OFFCURVE",
"388 700 OFFCURVE",
"378 700 CURVE SMOOTH",
"367 700 OFFCURVE",
"359 692 OFFCURVE",
"359 682 CURVE SMOOTH",
"359 671 OFFCURVE",
"367 663 OFFCURVE",
"378 663 CURVE SMOOTH"
);
}
);
};
layerId = master01;
paths = (
{
closed = 1;
nodes = (
"53 -116 OFFCURVE",
"59 -115 OFFCURVE",
"62 -108 CURVE SMOOTH",
"393 669 LINE SMOOTH",
"395 674 OFFCURVE",
"396 678 OFFCURVE",
"396 683 CURVE SMOOTH",
"396 692 OFFCURVE",
"389 700 OFFCURVE",
"378 700 CURVE SMOOTH",
"370 700 OFFCURVE",
"364 696 OFFCURVE",
"361 689 CURVE SMOOTH",
"32 -85 LINE SMOOTH",
"30 -90 OFFCURVE",
"28 -95 OFFCURVE",
"28 -97 CURVE SMOOTH",
"28 -108 OFFCURVE",
"38 -116 OFFCURVE",
"47 -116 CURVE SMOOTH"
);
}
);
userData = {
com.fontlab.hintData = {
hhints = (
{
position = -2;
width = 21;
}
);
};
};
width = 416;
},
{
background = {
paths = (
{
closed = 1;
nodes = (
"-235 -1 OFFCURVE",
"-226 4 OFFCURVE",
"-221 13 CURVE SMOOTH",
"127 641 LINE SMOOTH",
"131 648 OFFCURVE",
"136 657 OFFCURVE",
"136 666 CURVE SMOOTH",
"136 679 OFFCURVE",
"124 692 OFFCURVE",
"108 692 CURVE SMOOTH",
"98 692 OFFCURVE",
"88 688 OFFCURVE",
"83 678 CURVE SMOOTH",
"-270 41 LINE SMOOTH",
"-272 37 OFFCURVE",
"-273 32 OFFCURVE",
"-273 27 CURVE SMOOTH",
"-273 12 OFFCURVE",
"-262 -1 OFFCURVE",
"-245 -1 CURVE SMOOTH"
);
},
{
closed = 1;
nodes = (
"-211 -116 OFFCURVE",
"-196 -104 OFFCURVE",
"-190 -91 CURVE SMOOTH",
"103 609 LINE SMOOTH",
"106 617 OFFCURVE",
"113 630 OFFCURVE",
"113 643 CURVE SMOOTH",
"113 666 OFFCURVE",
"93 689 OFFCURVE",
"65 689 CURVE SMOOTH",
"49 689 OFFCURVE",
"31 683 OFFCURVE",
"22 662 CURVE SMOOTH",
"-272 -39 LINE SMOOTH",
"-277 -52 OFFCURVE",
"-280 -60 OFFCURVE",
"-280 -72 CURVE SMOOTH",
"-280 -96 OFFCURVE",
"-259 -116 OFFCURVE",
"-231 -116 CURVE SMOOTH"
);
},
{
closed = 1;
nodes = (
"69 -116 OFFCURVE",
"79 -111 OFFCURVE",
"83 -102 CURVE SMOOTH",
"395 641 LINE SMOOTH",
"398 648 OFFCURVE",
"404 657 OFFCURVE",
"404 666 CURVE SMOOTH",
"404 679 OFFCURVE",
"392 692 OFFCURVE",
"376 692 CURVE SMOOTH",
"366 692 OFFCURVE",
"355 688 OFFCURVE",
"351 678 CURVE SMOOTH",
"34 -74 LINE SMOOTH",
"32 -78 OFFCURVE",
"31 -83 OFFCURVE",
"31 -88 CURVE SMOOTH",
"31 -103 OFFCURVE",
"42 -116 OFFCURVE",
"59 -116 CURVE SMOOTH"
);
},
{
closed = 1;
nodes = (
"83 -79 OFFCURVE",
"92 -75 OFFCURVE",
"95 -67 CURVE SMOOTH",
"379 609 LINE SMOOTH",
"382 615 OFFCURVE",
"387 623 OFFCURVE",
"387 632 CURVE SMOOTH",
"387 643 OFFCURVE",
"376 655 OFFCURVE",
"362 655 CURVE SMOOTH",
"353 655 OFFCURVE",
"343 652 OFFCURVE",
"339 643 CURVE SMOOTH",
"51 -41 LINE SMOOTH",
"49 -45 OFFCURVE",
"48 -49 OFFCURVE",
"48 -54 CURVE SMOOTH",
"48 -67 OFFCURVE",
"58 -79 OFFCURVE",
"73 -79 CURVE SMOOTH"
);
}
);
};
layerId = "218416E4-0B36-4DBB-8D0A-D6BB29FB6576";
paths = (
{
closed = 1;
nodes = (
"67 -116 OFFCURVE",
"76 -112 OFFCURVE",
"79 -104 CURVE SMOOTH",
"395 646 LINE SMOOTH",
"398 652 OFFCURVE",
"403 660 OFFCURVE",
"403 669 CURVE SMOOTH",
"403 680 OFFCURVE",
"392 692 OFFCURVE",
"378 692 CURVE SMOOTH",
"369 692 OFFCURVE",
"359 689 OFFCURVE",
"355 680 CURVE SMOOTH",
"35 -78 LINE SMOOTH",
"33 -82 OFFCURVE",
"32 -86 OFFCURVE",
"32 -91 CURVE SMOOTH",
"32 -104 OFFCURVE",
"42 -116 OFFCURVE",
"57 -116 CURVE SMOOTH"
);
}
);
userData = {
com.fontlab.hintData = {
hhints = (
{
position = -1;
width = 21;
}
);
};
};
width = 435;
},
{
background = {
paths = (
{
closed = 1;
nodes = (
"-1429 -1 OFFCURVE",
"-1414 8 OFFCURVE",
"-1405 24 CURVE SMOOTH",
"-1088 594 LINE SMOOTH",
"-1084 602 OFFCURVE",
"-1078 615 OFFCURVE",
"-1078 628 CURVE SMOOTH",
"-1078 650 OFFCURVE",
"-1098 674 OFFCURVE",
"-1126 674 CURVE SMOOTH",
"-1142 674 OFFCURVE",
"-1158 668 OFFCURVE",
"-1168 650 CURVE SMOOTH",
"-1489 70 LINE SMOOTH",
"-1493 63 OFFCURVE",
"-1495 55 OFFCURVE",
"-1495 47 CURVE SMOOTH",
"-1495 22 OFFCURVE",
"-1475 -1 OFFCURVE",
"-1446 -1 CURVE SMOOTH"
);
},
{
closed = 1;
nodes = (
"-1103 577 OFFCURVE",
"-1082 598 OFFCURVE",
"-1082 625 CURVE SMOOTH",
"-1082 652 OFFCURVE",
"-1103 673 OFFCURVE",
"-1130 673 CURVE SMOOTH",
"-1157 673 OFFCURVE",
"-1178 652 OFFCURVE",
"-1178 625 CURVE SMOOTH",
"-1178 598 OFFCURVE",
"-1157 577 OFFCURVE",
"-1130 577 CURVE SMOOTH"
);
},
{
closed = 1;
nodes = (
"-1116 685 OFFCURVE",
"-1152 675 OFFCURVE",
"-1153 671 CURVE SMOOTH",
"-1175 583 OFFCURVE",
"-1391 51 OFFCURVE",
"-1467 -110 CURVE",
"-1466 -113 OFFCURVE",
"-1462 -117 OFFCURVE",
"-1459 -117 CURVE",
"-1450 -115 OFFCURVE",
"-1418 -102 OFFCURVE",
"-1414 -93 CURVE SMOOTH",
"-1367 12 OFFCURVE",
"-1109 653 OFFCURVE",
"-1102 678 CURVE",
"-1102 680 OFFCURVE",
"-1104 684 OFFCURVE",
"-1107 685 CURVE"
);
},
{
closed = 1;
nodes = (
"87 -116 OFFCURVE",
"104 -108 OFFCURVE",
"111 -91 CURVE SMOOTH",
"404 609 LINE SMOOTH",
"407 617 OFFCURVE",
"414 630 OFFCURVE",
"414 643 CURVE SMOOTH",
"414 665 OFFCURVE",
"394 689 OFFCURVE",
"366 689 CURVE SMOOTH",
"350 689 OFFCURVE",
"332 683 OFFCURVE",
"324 665 CURVE SMOOTH",
"27 -45 LINE SMOOTH",
"24 -52 OFFCURVE",
"21 -60 OFFCURVE",
"21 -68 CURVE SMOOTH",
"21 -93 OFFCURVE",
"41 -116 OFFCURVE",
"70 -116 CURVE SMOOTH"
);
},
{
closed = 1;
nodes = (
"90 -116 OFFCURVE",
"105 -104 OFFCURVE",
"111 -91 CURVE SMOOTH",
"404 609 LINE SMOOTH",
"407 617 OFFCURVE",
"414 630 OFFCURVE",
"414 643 CURVE SMOOTH",
"414 666 OFFCURVE",
"394 689 OFFCURVE",
"366 689 CURVE SMOOTH",
"350 689 OFFCURVE",
"332 683 OFFCURVE",
"323 662 CURVE SMOOTH",
"29 -39 LINE SMOOTH",
"24 -52 OFFCURVE",
"21 -60 OFFCURVE",
"21 -72 CURVE SMOOTH",
"21 -96 OFFCURVE",
"42 -116 OFFCURVE",
"70 -116 CURVE SMOOTH"
);
},
{
closed = 1;
nodes = (
"101 -79 OFFCURVE",
"116 -69 OFFCURVE",
"120 -57 CURVE SMOOTH",
"387 580 LINE SMOOTH",
"390 587 OFFCURVE",
"396 599 OFFCURVE",
"396 611 CURVE SMOOTH",
"396 632 OFFCURVE",
"378 652 OFFCURVE",
"353 652 CURVE SMOOTH",
"338 652 OFFCURVE",
"321 647 OFFCURVE",
"314 628 CURVE SMOOTH",
"46 -10 LINE SMOOTH",
"42 -21 OFFCURVE",
"39 -29 OFFCURVE",
"39 -39 CURVE SMOOTH",
"39 -61 OFFCURVE",
"58 -79 OFFCURVE",
"83 -79 CURVE SMOOTH"
);
}
);
};
layerId = "BB1A411A-CAFC-47D3-A925-066104B707B4";
paths = (
{
closed = 1;
nodes = (
"86 -116 OFFCURVE",
"100 -106 OFFCURVE",
"105 -94 CURVE SMOOTH",
"403 617 LINE SMOOTH",
"406 624 OFFCURVE",
"412 636 OFFCURVE",
"412 648 CURVE SMOOTH",
"412 669 OFFCURVE",
"394 689 OFFCURVE",
"369 689 CURVE SMOOTH",
"354 689 OFFCURVE",
"338 684 OFFCURVE",
"330 665 CURVE SMOOTH",
"31 -47 LINE SMOOTH",
"26 -58 OFFCURVE",
"24 -66 OFFCURVE",
"24 -76 CURVE SMOOTH",
"24 -98 OFFCURVE",
"43 -116 OFFCURVE",
"68 -116 CURVE SMOOTH"
);
}
);
userData = {
com.fontlab.hintData = {
hhints = (
{
position = -1;
width = 21;
}
);
};
};
width = 438;
}
);
unicode = 002F;
},
{
color = 4;
glyphname = zero;
lastChange = "2019-12-17 19:00:05 +0000";
layers = (
{
background = {
paths = (
{
closed = 1;
nodes = (
"422 -3 OFFCURVE",
"535 166 OFFCURVE",
"535 363 CURVE SMOOTH",
"535 541 OFFCURVE",
"441 694 OFFCURVE",
"310 694 CURVE SMOOTH",
"170 694 OFFCURVE",
"60 521 OFFCURVE",
"60 327 CURVE SMOOTH",
"60 151 OFFCURVE",
"155 -3 OFFCURVE",
"286 -3 CURVE SMOOTH"
);
},
{
closed = 1;
nodes = (
"173 33 OFFCURVE",
"95 175 OFFCURVE",
"95 329 CURVE SMOOTH",
"95 509 OFFCURVE",
"195 658 OFFCURVE",
"310 658 CURVE SMOOTH",
"419 658 OFFCURVE",
"501 517 OFFCURVE",
"501 361 CURVE SMOOTH",
"501 182 OFFCURVE",
"400 33 OFFCURVE",
"286 33 CURVE SMOOTH"
);
}
);
};
layerId = master01;
paths = (
{
closed = 1;
nodes = (
"422 -3 OFFCURVE",
"535 166 OFFCURVE",
"535 363 CURVE SMOOTH",
"535 541 OFFCURVE",
"441 694 OFFCURVE",
"310 694 CURVE SMOOTH",
"170 694 OFFCURVE",
"60 521 OFFCURVE",
"60 327 CURVE SMOOTH",
"60 151 OFFCURVE",
"155 -3 OFFCURVE",
"286 -3 CURVE SMOOTH"
);
},
{
closed = 1;
nodes = (
"173 33 OFFCURVE",
"95 175 OFFCURVE",
"95 329 CURVE SMOOTH",
"95 509 OFFCURVE",
"195 658 OFFCURVE",
"310 658 CURVE SMOOTH",
"419 658 OFFCURVE",
"501 517 OFFCURVE",
"501 361 CURVE SMOOTH",
"501 182 OFFCURVE",
"400 33 OFFCURVE",
"286 33 CURVE SMOOTH"
);
}
);
userData = {
com.fontlab.hintData = {
hhints = (
{
position = -3;
width = 36;
},
{
position = 658;
width = 36;
}
);
vhints = (
{
position = 71;
width = 35;
},
{
position = 512;
width = 34;
}
);
};
};
width = 595;
},
{
background = {
paths = (
{
closed = 1;
nodes = (
"433 -3 OFFCURVE",
"545 164 OFFCURVE",
"545 358 CURVE SMOOTH",
"545 534 OFFCURVE",
"451 686 OFFCURVE",
"319 686 CURVE SMOOTH",
"179 686 OFFCURVE",
"69 515 OFFCURVE",
"69 324 CURVE SMOOTH",
"69 150 OFFCURVE",
"164 -3 OFFCURVE",
"296 -3 CURVE SMOOTH"
);
},
{
closed = 1;
nodes = (
"194 52 OFFCURVE",
"123 183 OFFCURVE",
"123 326 CURVE SMOOTH",
"123 493 OFFCURVE",
"214 631 OFFCURVE",
"319 631 CURVE SMOOTH",
"418 631 OFFCURVE",
"492 501 OFFCURVE",
"492 356 CURVE SMOOTH",
"492 190 OFFCURVE",
"400 52 OFFCURVE",
"296 52 CURVE SMOOTH"
);
}
);
};
layerId = "218416E4-0B36-4DBB-8D0A-D6BB29FB6576";
paths = (
{
closed = 1;
nodes = (
"433 -3 OFFCURVE",
"545 164 OFFCURVE",
"545 358 CURVE SMOOTH",
"545 534 OFFCURVE",
"451 686 OFFCURVE",
"319 686 CURVE SMOOTH",
"179 686 OFFCURVE",
"69 515 OFFCURVE",
"69 324 CURVE SMOOTH",
"69 150 OFFCURVE",
"164 -3 OFFCURVE",
"296 -3 CURVE SMOOTH"
);
},
{
closed = 1;
nodes = (
"194 52 OFFCURVE",
"123 183 OFFCURVE",
"123 326 CURVE SMOOTH",
"123 493 OFFCURVE",
"214 631 OFFCURVE",
"319 631 CURVE SMOOTH",
"418 631 OFFCURVE",
"492 501 OFFCURVE",
"492 356 CURVE SMOOTH",
"492 190 OFFCURVE",
"400 52 OFFCURVE",
"296 52 CURVE SMOOTH"
);
}
);
userData = {
com.fontlab.hintData = {
hhints = (
{
position = -3;
width = 55;
},
{
position = 631;
width = 55;
}
);
vhints = (
{
position = 69;
width = 54;
},
{
position = 492;
width = 53;
}
);
};
};
width = 614;
},
{
background = {
paths = (
{
closed = 1;
nodes = (
"413 -3 OFFCURVE",
"525 160 OFFCURVE",
"525 348 CURVE SMOOTH",
"525 520 OFFCURVE",
"430 669 OFFCURVE",
"297 669 CURVE SMOOTH",
"157 669 OFFCURVE",
"47 502 OFFCURVE",
"47 317 CURVE SMOOTH",
"47 147 OFFCURVE",
"142 -3 OFFCURVE",
"276 -3 CURVE SMOOTH"
);
},
{
closed = 1;
nodes = (
"197 93 OFFCURVE",
"142 201 OFFCURVE",
"142 319 CURVE SMOOTH",
"142 458 OFFCURVE",
"213 573 OFFCURVE",
"297 573 CURVE SMOOTH",
"374 573 OFFCURVE",
"431 466 OFFCURVE",
"431 346 CURVE SMOOTH",
"431 208 OFFCURVE",
"359 93 OFFCURVE",
"276 93 CURVE SMOOTH"
);
}
);
};
layerId = "BB1A411A-CAFC-47D3-A925-066104B707B4";
paths = (
{
closed = 1;
nodes = (
"413 -3 OFFCURVE",
"525 160 OFFCURVE",
"525 348 CURVE SMOOTH",
"525 520 OFFCURVE",
"430 669 OFFCURVE",
"297 669 CURVE SMOOTH",
"157 669 OFFCURVE",
"47 502 OFFCURVE",
"47 317 CURVE SMOOTH",
"47 147 OFFCURVE",
"142 -3 OFFCURVE",
"276 -3 CURVE SMOOTH"
);
},
{
closed = 1;
nodes = (
"197 93 OFFCURVE",
"142 201 OFFCURVE",
"142 319 CURVE SMOOTH",
"142 458 OFFCURVE",
"213 573 OFFCURVE",
"297 573 CURVE SMOOTH",
"374 573 OFFCURVE",
"431 466 OFFCURVE",
"431 346 CURVE SMOOTH",
"431 208 OFFCURVE",
"359 93 OFFCURVE",
"276 93 CURVE SMOOTH"
);
}
);
userData = {
com.fontlab.hintData = {
hhints = (
{
position = -3;
width = 96;
},
{
position = 573;
width = 96;
}
);
vhints = (
{
position = 67;
width = 95;
},
{
position = 451;
width = 94;
}
);
};
};
width = 572;
}
);
unicode = 0030;
},
{
color = 4;
glyphname = one;
lastChange = "2019-12-17 19:02:43 +0000";
layers = (
{
background = {
paths = (
{
closed = 1;
nodes = (
"319 0 LINE SMOOTH",
"329 0 OFFCURVE",
"338 8 OFFCURVE",
"338 19 CURVE SMOOTH",
"338 29 OFFCURVE",
"330 38 OFFCURVE",
"317 38 CURVE SMOOTH",
"232 38 LINE",
"242 669 LINE SMOOTH",
"242 677 OFFCURVE",
"233 688 OFFCURVE",
"222 688 CURVE SMOOTH",
"218 688 OFFCURVE",
"212 686 OFFCURVE",
"208 681 CURVE SMOOTH",
"75 537 LINE SMOOTH",
"72 534 OFFCURVE",
"70 528 OFFCURVE",
"70 524 CURVE SMOOTH",
"70 514 OFFCURVE",
"78 505 OFFCURVE",
"89 505 CURVE SMOOTH",
"94 505 OFFCURVE",
"99 507 OFFCURVE",
"103 512 CURVE SMOOTH",
"203 620 LINE",
"195 38 LINE",
"92 38 LINE SMOOTH",
"81 38 OFFCURVE",
"73 29 OFFCURVE",
"73 19 CURVE SMOOTH",
"73 8 OFFCURVE",
"81 0 OFFCURVE",
"92 0 CURVE SMOOTH"
);
}
);
};
layerId = master01;
paths = (
{
closed = 1;
nodes = (
"319 0 LINE SMOOTH",
"329 0 OFFCURVE",
"338 8 OFFCURVE",
"338 19 CURVE SMOOTH",
"338 29 OFFCURVE",
"330 38 OFFCURVE",
"317 38 CURVE SMOOTH",
"232 38 LINE",
"242 669 LINE SMOOTH",
"242 677 OFFCURVE",
"233 688 OFFCURVE",
"222 688 CURVE SMOOTH",
"218 688 OFFCURVE",
"212 686 OFFCURVE",
"208 681 CURVE SMOOTH",
"75 537 LINE SMOOTH",
"72 534 OFFCURVE",
"70 528 OFFCURVE",
"70 524 CURVE SMOOTH",
"70 514 OFFCURVE",
"78 505 OFFCURVE",
"89 505 CURVE SMOOTH",
"94 505 OFFCURVE",
"99 507 OFFCURVE",
"103 512 CURVE SMOOTH",
"203 620 LINE",
"195 38 LINE",
"92 38 LINE SMOOTH",
"81 38 OFFCURVE",
"73 29 OFFCURVE",
"73 19 CURVE SMOOTH",
"73 8 OFFCURVE",
"81 0 OFFCURVE",
"92 0 CURVE SMOOTH"
);
}
);
userData = {
com.fontlab.hintData = {
hhints = (
{
position = 0;
width = 38;
},
{
position = 668;
width = 20;
}
);
vhints = (
{
position = 190;
width = 37;
},
{
position = 198;
width = 39;
}
);
};
};
width = 388;
},
{
background = {
paths = (
{
closed = 1;
nodes = (
"313 0 LINE SMOOTH",
"328 0 OFFCURVE",
"341 12 OFFCURVE",
"341 28 CURVE SMOOTH",
"341 43 OFFCURVE",
"330 56 OFFCURVE",
"311 56 CURVE SMOOTH",
"240 56 LINE",
"249 652 LINE SMOOTH",
"249 666 OFFCURVE",
"238 680 OFFCURVE",
"220 680 CURVE SMOOTH",
"213 680 OFFCURVE",
"205 677 OFFCURVE",
"200 671 CURVE SMOOTH",
"72 532 LINE SMOOTH",
"67 527 OFFCURVE",
"64 520 OFFCURVE",
"64 513 CURVE SMOOTH",
"64 498 OFFCURVE",
"76 485 OFFCURVE",
"92 485 CURVE SMOOTH",
"99 485 OFFCURVE",
"107 488 OFFCURVE",
"113 494 CURVE SMOOTH",
"192 579 LINE",
"184 56 LINE",
"95 56 LINE SMOOTH",
"79 56 OFFCURVE",
"67 43 OFFCURVE",
"67 28 CURVE SMOOTH",
"67 12 OFFCURVE",
"79 0 OFFCURVE",
"95 0 CURVE SMOOTH"
);
}
);
};
layerId = "218416E4-0B36-4DBB-8D0A-D6BB29FB6576";
paths = (
{
closed = 1;
nodes = (
"313 0 LINE SMOOTH",
"328 0 OFFCURVE",
"341 12 OFFCURVE",
"341 28 CURVE SMOOTH",
"341 43 OFFCURVE",
"330 56 OFFCURVE",
"311 56 CURVE SMOOTH",
"240 56 LINE",
"249 652 LINE SMOOTH",
"249 666 OFFCURVE",
"238 680 OFFCURVE",
"220 680 CURVE SMOOTH",
"213 680 OFFCURVE",
"205 677 OFFCURVE",
"200 671 CURVE SMOOTH",
"72 532 LINE SMOOTH",
"67 527 OFFCURVE",
"64 520 OFFCURVE",
"64 513 CURVE SMOOTH",
"64 498 OFFCURVE",
"76 485 OFFCURVE",
"92 485 CURVE SMOOTH",
"99 485 OFFCURVE",
"107 488 OFFCURVE",
"113 494 CURVE SMOOTH",
"192 579 LINE",
"184 56 LINE",
"95 56 LINE SMOOTH",
"79 56 OFFCURVE",
"67 43 OFFCURVE",
"67 28 CURVE SMOOTH",
"67 12 OFFCURVE",
"79 0 OFFCURVE",
"95 0 CURVE SMOOTH"
);
}
);
userData = {
com.fontlab.hintData = {
hhints = (
{
position = 0;
width = 56;
}
);
vhints = (
{
position = 181;
width = 56;
},
{
position = 189;
width = 57;
}
);
};
};
width = 397;
},
{
background = {
paths = (
{
closed = 1;
nodes = (
"305 0 LINE SMOOTH",
"330 0 OFFCURVE",
"353 21 OFFCURVE",
"353 48 CURVE SMOOTH",
"353 74 OFFCURVE",
"335 96 OFFCURVE",
"303 96 CURVE SMOOTH",
"262 96 LINE",
"269 615 LINE SMOOTH",
"269 639 OFFCURVE",
"251 663 OFFCURVE",
"220 663 CURVE SMOOTH",
"210 663 OFFCURVE",
"194 657 OFFCURVE",
"186 648 CURVE SMOOTH",
"69 521 LINE SMOOTH",
"61 513 OFFCURVE",
"56 501 OFFCURVE",
"56 489 CURVE SMOOTH",
"56 463 OFFCURVE",
"77 441 OFFCURVE",
"104 441 CURVE SMOOTH",
"116 441 OFFCURVE",
"129 445 OFFCURVE",
"139 455 CURVE SMOOTH",
"172 490 LINE",
"170 340 OFFCURVE",
"167 241 OFFCURVE",
"165 96 CURVE",
"107 96 LINE SMOOTH",
"79 96 OFFCURVE",
"59 74 OFFCURVE",
"59 48 CURVE SMOOTH",
"59 21 OFFCURVE",
"79 0 OFFCURVE",
"107 0 CURVE SMOOTH"
);
}
);
};
layerId = "BB1A411A-CAFC-47D3-A925-066104B707B4";
paths = (
{
closed = 1;
nodes = (
"305 0 LINE SMOOTH",
"330 0 OFFCURVE",
"353 21 OFFCURVE",
"353 48 CURVE SMOOTH",
"353 74 OFFCURVE",
"335 96 OFFCURVE",
"303 96 CURVE SMOOTH",
"262 96 LINE",
"269 615 LINE SMOOTH",
"269 639 OFFCURVE",
"251 663 OFFCURVE",
"220 663 CURVE SMOOTH",
"210 663 OFFCURVE",
"194 657 OFFCURVE",
"186 648 CURVE SMOOTH",
"69 521 LINE SMOOTH",
"61 513 OFFCURVE",
"56 501 OFFCURVE",
"56 489 CURVE SMOOTH",
"56 463 OFFCURVE",
"77 441 OFFCURVE",
"104 441 CURVE SMOOTH",
"116 441 OFFCURVE",
"129 445 OFFCURVE",
"139 455 CURVE SMOOTH",
"172 490 LINE",
"165 96 LINE",
"107 96 LINE SMOOTH",
"79 96 OFFCURVE",
"59 74 OFFCURVE",
"59 48 CURVE SMOOTH",
"59 21 OFFCURVE",
"79 0 OFFCURVE",
"107 0 CURVE SMOOTH"
);
}
);
userData = {
com.fontlab.hintData = {
hhints = (
{
position = 0;
width = 96;
}
);
vhints = (
{
position = 58;
width = 294;
},
{
position = 164;
width = 97;
},
{
position = 171;
width = 97;
}
);
};
};
width = 393;
}
);
unicode = 0031;
},
{
color = 4;
glyphname = two;
lastChange = "2019-12-17 19:02:55 +0000";
layers = (
{
background = {
paths = (
{
closed = 1;
nodes = (
"437 0 LINE SMOOTH",
"447 0 OFFCURVE",
"456 8 OFFCURVE",
"456 18 CURVE SMOOTH",
"456 28 OFFCURVE",
"447 36 OFFCURVE",
"437 36 CURVE SMOOTH",
"99 36 LINE",
"107 181 OFFCURVE",
"192 243 OFFCURVE",
"277 299 CURVE",
"363 353 OFFCURVE",
"446 403 OFFCURVE",
"446 519 CURVE SMOOTH",
"446 610 OFFCURVE",
"369 685 OFFCURVE",
"261 685 CURVE SMOOTH",
"177 685 OFFCURVE",
"116 641 OFFCURVE",
"81 606 CURVE",
"60 587 OFFCURVE",
"55 578 OFFCURVE",
"55 571 CURVE SMOOTH",
"55 562 OFFCURVE",
"63 551 OFFCURVE",
"74 551 CURVE SMOOTH",
"84 551 OFFCURVE",
"89 560 OFFCURVE",
"96 568 CURVE SMOOTH",
"103 576 OFFCURVE",
"167 647 OFFCURVE",
"261 647 CURVE SMOOTH",
"344 647 OFFCURVE",
"409 593 OFFCURVE",
"409 519 CURVE SMOOTH",
"409 429 OFFCURVE",
"339 386 OFFCURVE",
"261 334 CURVE",
"160 269 OFFCURVE",
"61 197 OFFCURVE",
"61 18 CURVE SMOOTH",
"61 0 LINE"
);
}
);
};
layerId = master01;
paths = (
{
closed = 1;
nodes = (
"437 0 LINE SMOOTH",
"447 0 OFFCURVE",
"456 8 OFFCURVE",
"456 18 CURVE SMOOTH",
"456 28 OFFCURVE",
"447 36 OFFCURVE",
"437 36 CURVE SMOOTH",
"99 36 LINE",
"107 181 OFFCURVE",
"192 243 OFFCURVE",
"277 299 CURVE",
"363 353 OFFCURVE",
"446 403 OFFCURVE",
"446 519 CURVE SMOOTH",
"446 610 OFFCURVE",
"369 685 OFFCURVE",
"261 685 CURVE SMOOTH",
"177 685 OFFCURVE",
"116 641 OFFCURVE",
"81 606 CURVE",
"60 587 OFFCURVE",
"55 578 OFFCURVE",
"55 571 CURVE SMOOTH",
"55 562 OFFCURVE",
"63 551 OFFCURVE",
"74 551 CURVE SMOOTH",
"84 551 OFFCURVE",
"89 560 OFFCURVE",
"96 568 CURVE SMOOTH",
"103 576 OFFCURVE",
"167 647 OFFCURVE",
"261 647 CURVE SMOOTH",
"344 647 OFFCURVE",
"409 593 OFFCURVE",
"409 519 CURVE SMOOTH",
"409 429 OFFCURVE",
"339 386 OFFCURVE",
"261 334 CURVE",
"160 269 OFFCURVE",
"61 197 OFFCURVE",
"61 18 CURVE SMOOTH",
"61 0 LINE"
);
}
);
userData = {
com.fontlab.hintData = {
hhints = (
{
position = 0;
width = 36;
},
{
position = 647;
width = 38;
}
);
vhints = (
{
position = 419;
width = 37;
}
);
};
};
width = 508;
},
{
background = {
paths = (
{
closed = 1;
nodes = (
"439 0 LINE SMOOTH",
"454 0 OFFCURVE",
"467 12 OFFCURVE",
"467 27 CURVE SMOOTH",
"467 43 OFFCURVE",
"454 55 OFFCURVE",
"439 55 CURVE SMOOTH",
"125 55 LINE",
"131 180 OFFCURVE",
"211 237 OFFCURVE",
"291 289 CURVE SMOOTH",
"375 343 OFFCURVE",
"458 392 OFFCURVE",
"458 508 CURVE SMOOTH",
"458 601 OFFCURVE",
"380 677 OFFCURVE",
"270 677 CURVE SMOOTH",
"187 677 OFFCURVE",
"126 632 OFFCURVE",
"91 598 CURVE SMOOTH",
"69 577 OFFCURVE",
"63 568 OFFCURVE",
"63 558 CURVE SMOOTH",
"63 544 OFFCURVE",
"74 529 OFFCURVE",
"91 529 CURVE SMOOTH",
"105 529 OFFCURVE",
"113 540 OFFCURVE",
"120 548 CURVE SMOOTH",
"127 556 OFFCURVE",
"186 621 OFFCURVE",
"270 621 CURVE SMOOTH",
"344 621 OFFCURVE",
"402 573 OFFCURVE",
"402 508 CURVE SMOOTH",
"402 422 OFFCURVE",
"332 382 OFFCURVE",
"256 333 CURVE SMOOTH",
"166 275 OFFCURVE",
"68 204 OFFCURVE",
"68 27 CURVE SMOOTH",
"68 0 LINE"
);
}
);
};
layerId = "218416E4-0B36-4DBB-8D0A-D6BB29FB6576";
paths = (
{
closed = 1;
nodes = (
"439 0 LINE SMOOTH",
"454 0 OFFCURVE",
"467 12 OFFCURVE",
"467 27 CURVE SMOOTH",
"467 43 OFFCURVE",
"454 55 OFFCURVE",
"439 55 CURVE SMOOTH",
"125 55 LINE",
"131 180 OFFCURVE",
"211 237 OFFCURVE",
"291 289 CURVE SMOOTH",
"375 343 OFFCURVE",
"458 392 OFFCURVE",
"458 508 CURVE SMOOTH",
"458 601 OFFCURVE",
"380 677 OFFCURVE",
"270 677 CURVE SMOOTH",
"187 677 OFFCURVE",
"126 632 OFFCURVE",
"91 598 CURVE SMOOTH",
"69 577 OFFCURVE",
"63 568 OFFCURVE",
"63 558 CURVE SMOOTH",
"63 544 OFFCURVE",
"74 529 OFFCURVE",
"91 529 CURVE SMOOTH",
"105 529 OFFCURVE",
"113 540 OFFCURVE",
"120 548 CURVE SMOOTH",
"127 556 OFFCURVE",
"186 621 OFFCURVE",
"270 621 CURVE SMOOTH",
"344 621 OFFCURVE",
"402 573 OFFCURVE",
"402 508 CURVE SMOOTH",
"402 422 OFFCURVE",
"332 382 OFFCURVE",
"256 333 CURVE SMOOTH",
"166 275 OFFCURVE",
"68 204 OFFCURVE",
"68 27 CURVE SMOOTH",
"68 0 LINE"
);
}
);
userData = {
com.fontlab.hintData = {
hhints = (
{
position = 0;
width = 55;
},
{
position = 621;
width = 56;
}
);
vhints = (
{
position = 68;
width = 57;
},
{
position = 402;
width = 56;
}
);
};
};
width = 528;
},
{
background = {
paths = (
{
closed = 1;
nodes = (
"410 0 LINE SMOOTH",
"435 0 OFFCURVE",
"458 21 OFFCURVE",
"458 47 CURVE SMOOTH",
"458 74 OFFCURVE",
"435 95 OFFCURVE",
"410 95 CURVE SMOOTH",
"149 95 LINE",
"163 182 OFFCURVE",
"226 226 OFFCURVE",
"288 266 CURVE SMOOTH",
"365 315 OFFCURVE",
"450 372 OFFCURVE",
"450 484 CURVE SMOOTH",
"450 581 OFFCURVE",
"370 660 OFFCURVE",
"256 660 CURVE SMOOTH",
"174 660 OFFCURVE",
"113 616 OFFCURVE",
"78 582 CURVE SMOOTH",
"53 558 OFFCURVE",
"46 546 OFFCURVE",
"46 530 CURVE SMOOTH",
"46 506 OFFCURVE",
"65 481 OFFCURVE",
"94 481 CURVE SMOOTH",
"117 481 OFFCURVE",
"126 492 OFFCURVE",
"136 503 CURVE SMOOTH",
"143 511 OFFCURVE",
"191 564 OFFCURVE",
"256 564 CURVE SMOOTH",
"311 564 OFFCURVE",
"354 531 OFFCURVE",
"354 484 CURVE SMOOTH",
"354 423 OFFCURVE",
"301 390 OFFCURVE",
"228 342 CURVE",
"143 288 OFFCURVE",
"50 220 OFFCURVE",
"50 47 CURVE SMOOTH",
"50 0 LINE"
);
}
);
};
layerId = "BB1A411A-CAFC-47D3-A925-066104B707B4";
paths = (
{
closed = 1;
nodes = (
"410 0 LINE SMOOTH",
"435 0 OFFCURVE",
"458 21 OFFCURVE",
"458 47 CURVE SMOOTH",
"458 74 OFFCURVE",
"435 95 OFFCURVE",
"410 95 CURVE SMOOTH",
"149 95 LINE",
"163 182 OFFCURVE",
"226 226 OFFCURVE",
"288 266 CURVE SMOOTH",
"365 315 OFFCURVE",
"450 372 OFFCURVE",
"450 484 CURVE SMOOTH",
"450 581 OFFCURVE",
"370 660 OFFCURVE",
"256 660 CURVE SMOOTH",
"174 660 OFFCURVE",
"113 616 OFFCURVE",
"78 582 CURVE SMOOTH",
"53 558 OFFCURVE",
"46 546 OFFCURVE",
"46 530 CURVE SMOOTH",
"46 506 OFFCURVE",
"65 481 OFFCURVE",
"94 481 CURVE SMOOTH",
"117 481 OFFCURVE",
"126 492 OFFCURVE",
"136 503 CURVE SMOOTH",
"143 511 OFFCURVE",
"191 564 OFFCURVE",
"256 564 CURVE SMOOTH",
"311 564 OFFCURVE",
"354 531 OFFCURVE",
"354 484 CURVE SMOOTH",
"354 423 OFFCURVE",
"301 390 OFFCURVE",
"228 342 CURVE",
"143 288 OFFCURVE",
"50 220 OFFCURVE",
"50 47 CURVE SMOOTH",
"50 0 LINE"
);
}
);
userData = {
com.fontlab.hintData = {
hhints = (
{
position = 0;
width = 95;
},
{
position = 564;
width = 96;
}
);
vhints = (
{
position = 368;
width = 96;
}
);
};
};
width = 498;
}
);
unicode = 0032;
},
{
color = 4;
glyphname = three;
lastChange = "2019-12-17 19:02:15 +0000";
layers = (
{
background = {
paths = (
{
closed = 1;
nodes = (
"304 -6 OFFCURVE",
"431 47 OFFCURVE",
"431 198 CURVE SMOOTH",
"431 278 OFFCURVE",
"384 351 OFFCURVE",
"296 388 CURVE",
"366 425 OFFCURVE",
"414 482 OFFCURVE",
"414 544 CURVE SMOOTH",
"414 627 OFFCURVE",
"331 692 OFFCURVE",
"224 692 CURVE SMOOTH",
"167 692 OFFCURVE",
"117 672 OFFCURVE",
"88 654 CURVE SMOOTH",
"66 640 OFFCURVE",
"59 629 OFFCURVE",
"59 622 CURVE SMOOTH",
"59 614 OFFCURVE",
"65 603 OFFCURVE",
"78 603 CURVE SMOOTH",
"82 603 OFFCURVE",
"87 606 OFFCURVE",
"95 613 CURVE SMOOTH",
"113 626 OFFCURVE",
"150 654 OFFCURVE",
"224 654 CURVE SMOOTH",
"322 654 OFFCURVE",
"377 597 OFFCURVE",
"377 544 CURVE SMOOTH",
"377 469 OFFCURVE",
"287 405 OFFCURVE",
"207 405 CURVE SMOOTH",
"196 405 OFFCURVE",
"188 397 OFFCURVE",
"188 387 CURVE SMOOTH",
"188 376 OFFCURVE",
"196 368 OFFCURVE",
"206 368 CURVE SMOOTH",
"259 368 OFFCURVE",
"393 338 OFFCURVE",
"393 198 CURVE SMOOTH",
"393 83 OFFCURVE",
"303 31 OFFCURVE",
"223 31 CURVE SMOOTH",
"127 31 OFFCURVE",
"78 97 OFFCURVE",
"63 123 CURVE SMOOTH",
"59 129 OFFCURVE",
"54 133 OFFCURVE",
"46 133 CURVE SMOOTH",
"37 133 OFFCURVE",
"28 126 OFFCURVE",
"28 117 CURVE SMOOTH",
"28 114 OFFCURVE",
"28 109 OFFCURVE",
"31 102 CURVE SMOOTH",
"35 93 OFFCURVE",
"90 -6 OFFCURVE",
"226 -6 CURVE SMOOTH"
);
}
);
};
layerId = master01;
paths = (
{
closed = 1;
nodes = (
"304 -6 OFFCURVE",
"431 47 OFFCURVE",
"431 198 CURVE SMOOTH",
"431 278 OFFCURVE",
"384 351 OFFCURVE",
"296 388 CURVE",
"366 425 OFFCURVE",
"414 482 OFFCURVE",
"414 544 CURVE SMOOTH",
"414 627 OFFCURVE",
"331 692 OFFCURVE",
"224 692 CURVE SMOOTH",
"167 692 OFFCURVE",
"117 672 OFFCURVE",
"88 654 CURVE SMOOTH",
"66 640 OFFCURVE",
"59 629 OFFCURVE",
"59 622 CURVE SMOOTH",
"59 614 OFFCURVE",
"65 603 OFFCURVE",
"78 603 CURVE SMOOTH",
"82 603 OFFCURVE",
"87 606 OFFCURVE",
"95 613 CURVE SMOOTH",
"113 626 OFFCURVE",
"150 654 OFFCURVE",
"224 654 CURVE SMOOTH",
"322 654 OFFCURVE",
"377 597 OFFCURVE",
"377 544 CURVE SMOOTH",
"377 469 OFFCURVE",
"287 405 OFFCURVE",
"207 405 CURVE SMOOTH",
"196 405 OFFCURVE",
"188 397 OFFCURVE",
"188 387 CURVE SMOOTH",
"188 376 OFFCURVE",
"196 368 OFFCURVE",
"206 368 CURVE SMOOTH",
"259 368 OFFCURVE",
"393 338 OFFCURVE",
"393 198 CURVE SMOOTH",
"393 83 OFFCURVE",
"303 31 OFFCURVE",
"223 31 CURVE SMOOTH",
"127 31 OFFCURVE",
"78 97 OFFCURVE",
"63 123 CURVE SMOOTH",
"59 129 OFFCURVE",
"54 133 OFFCURVE",
"46 133 CURVE SMOOTH",
"37 133 OFFCURVE",
"28 126 OFFCURVE",
"28 117 CURVE SMOOTH",
"28 114 OFFCURVE",
"28 109 OFFCURVE",
"31 102 CURVE SMOOTH",
"35 93 OFFCURVE",
"90 -6 OFFCURVE",
"226 -6 CURVE SMOOTH"
);
}
);
userData = {
com.fontlab.hintData = {
hhints = (
{
position = -6;
width = 37;
},
{
position = 368;
width = 37;
},
{
position = 654;
width = 38;
}
);
vhints = (
{
position = 419;
width = 37;
},
{
position = 435;
width = 38;
}
);
};
};
width = 489;
},
{
background = {
paths = (
{
closed = 1;
nodes = (
"346 -6 OFFCURVE",
"474 48 OFFCURVE",
"474 200 CURVE SMOOTH",
"474 281 OFFCURVE",
"434 351 OFFCURVE",
"358 383 CURVE",
"417 415 OFFCURVE",
"458 469 OFFCURVE",
"458 532 CURVE SMOOTH",
"458 618 OFFCURVE",
"374 684 OFFCURVE",
"266 684 CURVE SMOOTH",
"208 684 OFFCURVE",
"159 664 OFFCURVE",
"130 646 CURVE SMOOTH",
"103 629 OFFCURVE",
"97 617 OFFCURVE",
"97 607 CURVE SMOOTH",
"97 594 OFFCURVE",
"106 579 OFFCURVE",
"125 579 CURVE SMOOTH",
"132 579 OFFCURVE",
"137 582 OFFCURVE",
"145 588 CURVE SMOOTH",
"160 599 OFFCURVE",
"195 628 OFFCURVE",
"266 628 CURVE SMOOTH",
"354 628 OFFCURVE",
"402 578 OFFCURVE",
"402 532 CURVE SMOOTH",
"402 465 OFFCURVE",
"321 409 OFFCURVE",
"249 409 CURVE SMOOTH",
"233 409 OFFCURVE",
"221 397 OFFCURVE",
"221 381 CURVE SMOOTH",
"221 366 OFFCURVE",
"233 353 OFFCURVE",
"248 353 CURVE SMOOTH",
"296 353 OFFCURVE",
"418 326 OFFCURVE",
"418 200 CURVE SMOOTH",
"418 97 OFFCURVE",
"336 50 OFFCURVE",
"265 50 CURVE SMOOTH",
"177 50 OFFCURVE",
"133 109 OFFCURVE",
"120 133 CURVE SMOOTH",
"115 142 OFFCURVE",
"107 148 OFFCURVE",
"95 148 CURVE SMOOTH",
"80 148 OFFCURVE",
"68 137 OFFCURVE",
"68 122 CURVE SMOOTH",
"68 118 OFFCURVE",
"68 112 OFFCURVE",
"72 104 CURVE SMOOTH",
"74 101 OFFCURVE",
"126 -6 OFFCURVE",
"267 -6 CURVE SMOOTH"
);
}
);
};
layerId = "218416E4-0B36-4DBB-8D0A-D6BB29FB6576";
paths = (
{
closed = 1;
nodes = (
"346 -6 OFFCURVE",
"474 48 OFFCURVE",
"474 200 CURVE SMOOTH",
"474 281 OFFCURVE",
"434 351 OFFCURVE",
"358 383 CURVE",
"417 415 OFFCURVE",
"458 469 OFFCURVE",
"458 532 CURVE SMOOTH",
"458 618 OFFCURVE",
"374 684 OFFCURVE",
"266 684 CURVE SMOOTH",
"208 684 OFFCURVE",
"159 664 OFFCURVE",
"130 646 CURVE SMOOTH",
"103 629 OFFCURVE",
"97 617 OFFCURVE",
"97 607 CURVE SMOOTH",
"97 594 OFFCURVE",
"106 579 OFFCURVE",
"125 579 CURVE SMOOTH",
"132 579 OFFCURVE",
"137 582 OFFCURVE",
"145 588 CURVE SMOOTH",
"160 599 OFFCURVE",
"195 628 OFFCURVE",
"266 628 CURVE SMOOTH",
"354 628 OFFCURVE",
"402 578 OFFCURVE",
"402 532 CURVE SMOOTH",
"402 465 OFFCURVE",
"321 409 OFFCURVE",
"249 409 CURVE SMOOTH",
"233 409 OFFCURVE",
"221 397 OFFCURVE",
"221 381 CURVE SMOOTH",
"221 366 OFFCURVE",
"233 353 OFFCURVE",
"248 353 CURVE SMOOTH",
"296 353 OFFCURVE",
"418 326 OFFCURVE",
"418 200 CURVE SMOOTH",
"418 97 OFFCURVE",
"336 50 OFFCURVE",
"265 50 CURVE SMOOTH",
"177 50 OFFCURVE",
"133 109 OFFCURVE",
"120 133 CURVE SMOOTH",
"115 142 OFFCURVE",
"107 148 OFFCURVE",
"95 148 CURVE SMOOTH",
"80 148 OFFCURVE",
"68 137 OFFCURVE",
"68 122 CURVE SMOOTH",
"68 118 OFFCURVE",
"68 112 OFFCURVE",
"72 104 CURVE SMOOTH",
"74 101 OFFCURVE",
"126 -6 OFFCURVE",
"267 -6 CURVE SMOOTH"
);
}
);
userData = {
com.fontlab.hintData = {
hhints = (
{
position = -6;
width = 56;
},
{
position = 353;
width = 56;
},
{
position = 628;
width = 56;
}
);
vhints = (
{
position = 402;
width = 56;
},
{
position = 418;
width = 56;
}
);
};
};
width = 543;
},
{
background = {
paths = (
{
closed = 1;
nodes = (
"315 -5 OFFCURVE",
"440 50 OFFCURVE",
"440 204 CURVE SMOOTH",
"440 273 OFFCURVE",
"412 335 OFFCURVE",
"356 372 CURVE",
"399 406 OFFCURVE",
"425 452 OFFCURVE",
"425 506 CURVE SMOOTH",
"425 597 OFFCURVE",
"339 667 OFFCURVE",
"228 667 CURVE SMOOTH",
"171 667 OFFCURVE",
"122 647 OFFCURVE",
"93 629 CURVE SMOOTH",
"59 608 OFFCURVE",
"52 590 OFFCURVE",
"52 574 CURVE SMOOTH",
"52 551 OFFCURVE",
"67 526 OFFCURVE",
"100 526 CURVE SMOOTH",
"113 526 OFFCURVE",
"119 531 OFFCURVE",
"131 539 CURVE SMOOTH",
"147 551 OFFCURVE",
"178 570 OFFCURVE",
"228 570 CURVE SMOOTH",
"293 570 OFFCURVE",
"329 537 OFFCURVE",
"329 506 CURVE SMOOTH",
"329 458 OFFCURVE",
"267 417 OFFCURVE",
"213 417 CURVE SMOOTH",
"185 417 OFFCURVE",
"164 396 OFFCURVE",
"164 369 CURVE SMOOTH",
"164 343 OFFCURVE",
"185 321 OFFCURVE",
"212 321 CURVE SMOOTH",
"249 321 OFFCURVE",
"343 300 OFFCURVE",
"343 204 CURVE SMOOTH",
"343 126 OFFCURVE",
"281 91 OFFCURVE",
"227 91 CURVE SMOOTH",
"159 91 OFFCURVE",
"125 136 OFFCURVE",
"115 154 CURVE SMOOTH",
"106 170 OFFCURVE",
"93 180 OFFCURVE",
"73 180 CURVE SMOOTH",
"46 180 OFFCURVE",
"25 160 OFFCURVE",
"25 134 CURVE SMOOTH",
"25 128 OFFCURVE",
"28 115 OFFCURVE",
"33 104 CURVE SMOOTH",
"62 40 OFFCURVE",
"143 -5 OFFCURVE",
"229 -5 CURVE SMOOTH"
);
}
);
};
layerId = "BB1A411A-CAFC-47D3-A925-066104B707B4";
paths = (
{
closed = 1;
nodes = (
"315 -5 OFFCURVE",
"440 50 OFFCURVE",
"440 204 CURVE SMOOTH",
"440 273 OFFCURVE",
"412 335 OFFCURVE",
"356 372 CURVE",
"399 406 OFFCURVE",
"425 452 OFFCURVE",
"425 506 CURVE SMOOTH",
"425 597 OFFCURVE",
"339 667 OFFCURVE",
"228 667 CURVE SMOOTH",
"171 667 OFFCURVE",
"122 647 OFFCURVE",
"93 629 CURVE SMOOTH",
"59 608 OFFCURVE",
"52 590 OFFCURVE",
"52 574 CURVE SMOOTH",
"52 551 OFFCURVE",
"67 526 OFFCURVE",
"100 526 CURVE SMOOTH",
"113 526 OFFCURVE",
"119 531 OFFCURVE",
"131 539 CURVE SMOOTH",
"147 551 OFFCURVE",
"178 570 OFFCURVE",
"228 570 CURVE SMOOTH",
"293 570 OFFCURVE",
"329 537 OFFCURVE",
"329 506 CURVE SMOOTH",
"329 458 OFFCURVE",
"267 417 OFFCURVE",
"213 417 CURVE SMOOTH",
"185 417 OFFCURVE",
"164 396 OFFCURVE",
"164 369 CURVE SMOOTH",
"164 343 OFFCURVE",
"185 321 OFFCURVE",
"212 321 CURVE SMOOTH",
"249 321 OFFCURVE",
"343 300 OFFCURVE",
"343 204 CURVE SMOOTH",
"343 126 OFFCURVE",
"281 91 OFFCURVE",
"227 91 CURVE SMOOTH",
"159 91 OFFCURVE",
"125 136 OFFCURVE",
"115 154 CURVE SMOOTH",
"106 170 OFFCURVE",
"93 180 OFFCURVE",
"73 180 CURVE SMOOTH",
"46 180 OFFCURVE",
"25 160 OFFCURVE",
"25 134 CURVE SMOOTH",
"25 128 OFFCURVE",
"28 115 OFFCURVE",
"33 104 CURVE SMOOTH",
"62 40 OFFCURVE",
"143 -5 OFFCURVE",
"229 -5 CURVE SMOOTH"
);
}
);
userData = {
com.fontlab.hintData = {
hhints = (
{
position = -5;
width = 96;
},
{
position = 321;
width = 96;
},
{
position = 570;
width = 97;
}
);
vhints = (
{
position = 368;
width = 96;
},
{
position = 382;
width = 97;
}
);
};
};
width = 493;
}
);
unicode = 0033;
},
{
color = 4;
glyphname = four;
lastChange = "2019-12-17 19:03:13 +0000";
layers = (
{
background = {
paths = (
{
closed = 1;
nodes = (
"352 -1 OFFCURVE",
"361 7 OFFCURVE",
"361 18 CURVE SMOOTH",
"361 172 LINE",
"406 171 LINE SMOOTH",
"417 171 OFFCURVE",
"425 179 OFFCURVE",
"425 190 CURVE SMOOTH",
"425 200 OFFCURVE",
"418 208 OFFCURVE",
"406 208 CURVE SMOOTH",
"361 209 LINE",
"361 673 LINE SMOOTH",
"361 684 OFFCURVE",
"351 692 OFFCURVE",
"340 692 CURVE SMOOTH",
"334 692 OFFCURVE",
"329 689 OFFCURVE",
"326 684 CURVE SMOOTH",
"37 206 LINE SMOOTH",
"34 200 OFFCURVE",
"32 197 OFFCURVE",
"32 192 CURVE SMOOTH",
"32 186 OFFCURVE",
"36 177 OFFCURVE",
"48 177 CURVE SMOOTH",
"323 173 LINE",
"323 18 LINE SMOOTH",
"323 7 OFFCURVE",
"331 -1 OFFCURVE",
"342 -1 CURVE SMOOTH"
);
},
{
closed = 1;
nodes = (
"85 214 LINE",
"323 606 LINE",
"323 210 LINE"
);
}
);
};
layerId = master01;
paths = (
{
closed = 1;
nodes = (
"352 -1 OFFCURVE",
"361 7 OFFCURVE",
"361 18 CURVE SMOOTH",
"361 172 LINE",
"406 171 LINE SMOOTH",
"417 171 OFFCURVE",
"425 179 OFFCURVE",
"425 190 CURVE SMOOTH",
"425 200 OFFCURVE",
"418 208 OFFCURVE",
"406 208 CURVE SMOOTH",
"361 209 LINE",
"361 673 LINE SMOOTH",
"361 684 OFFCURVE",
"353 692 OFFCURVE",
"342 692 CURVE SMOOTH",
"333 692 OFFCURVE",
"329 688 OFFCURVE",
"324 680 CURVE SMOOTH",
"39 209 LINE SMOOTH",
"34 200 OFFCURVE",
"32 196 OFFCURVE",
"32 191 CURVE SMOOTH",
"32 183 OFFCURVE",
"38 177 OFFCURVE",
"48 177 CURVE SMOOTH",
"323 173 LINE",
"323 18 LINE SMOOTH",
"323 7 OFFCURVE",
"331 -1 OFFCURVE",
"342 -1 CURVE SMOOTH"
);
},
{
closed = 1;
nodes = (
"85 214 LINE",
"323 606 LINE",
"323 210 LINE"
);
}
);
userData = {
com.fontlab.hintData = {
hhints = (
{
position = -1;
width = 21;
},
{
position = 177;
width = 37;
}
);
vhints = (
{
position = 348;
width = 38;
}
);
};
};
width = 487;
},
{
background = {
paths = (
{
closed = 1;
nodes = (
"377 -1 OFFCURVE",
"390 12 OFFCURVE",
"390 27 CURVE SMOOTH",
"390 165 LINE",
"424 164 LINE SMOOTH",
"424.543 163.964 OFFCURVE",
"425.084 163.946 OFFCURVE",
"425.622 163.946 CURVE SMOOTH",
"439.925 163.946 OFFCURVE",
"452 176.58 OFFCURVE",
"452 192 CURVE SMOOTH",
"452 207 OFFCURVE",
"441 219 OFFCURVE",
"425 220 CURVE SMOOTH",
"390 221 LINE",
"390 656 LINE SMOOTH",
"390 672 OFFCURVE",
"376 684 OFFCURVE",
"360 684 CURVE SMOOTH",
"351 684 OFFCURVE",
"343 679 OFFCURVE",
"338 671 CURVE SMOOTH",
"60 213 LINE SMOOTH",
"57 208 OFFCURVE",
"55 204 OFFCURVE",
"55 198 CURVE SMOOTH",
"55 183 OFFCURVE",
"69 170 OFFCURVE",
"83 170 CURVE SMOOTH",
"334 166 LINE",
"334 27 LINE SMOOTH",
"334 12 OFFCURVE",
"346 -1 OFFCURVE",
"362 -1 CURVE SMOOTH"
);
},
{
closed = 1;
nodes = (
"133 225 LINE",
"334 556 LINE",
"334 222 LINE"
);
}
);
};
layerId = "218416E4-0B36-4DBB-8D0A-D6BB29FB6576";
paths = (
{
closed = 1;
nodes = (
"377 -1 OFFCURVE",
"390 12 OFFCURVE",
"390 27 CURVE SMOOTH",
"390 165 LINE",
"426 164 LINE SMOOTH",
"440 164 OFFCURVE",
"452 176.58 OFFCURVE",
"452 192 CURVE SMOOTH",
"452 207 OFFCURVE",
"441 219 OFFCURVE",
"425 220 CURVE SMOOTH",
"390 221 LINE",
"390 656 LINE SMOOTH",
"390 673 OFFCURVE",
"378 684 OFFCURVE",
"362 684 CURVE SMOOTH",
"351 684 OFFCURVE",
"343 679 OFFCURVE",
"337 669 CURVE SMOOTH",
"60 213 LINE SMOOTH",
"57 208 OFFCURVE",
"55 204 OFFCURVE",
"55 198 CURVE SMOOTH",
"55 183 OFFCURVE",
"69 170 OFFCURVE",
"83 170 CURVE SMOOTH",
"334 166 LINE",
"334 27 LINE SMOOTH",
"334 12 OFFCURVE",
"346 -1 OFFCURVE",
"362 -1 CURVE SMOOTH"
);
},
{
closed = 1;
nodes = (
"133 225 LINE",
"334 556 LINE",
"334 222 LINE"
);
}
);
userData = {
com.fontlab.hintData = {
hhints = (
{
position = -1;
width = 21;
},
{
position = 165;
width = 56;
},
{
position = 664;
width = 20;
}
);
vhints = (
{
position = 334;
width = 56;
}
);
};
};
width = 508;
},
{
background = {
paths = (
{
closed = 1;
nodes = (
"358 -1 OFFCURVE",
"381 22 OFFCURVE",
"381 47 CURVE SMOOTH",
"381 149 LINE",
"387 149 LINE SMOOTH",
"413 149 OFFCURVE",
"437 170 OFFCURVE",
"437 197 CURVE SMOOTH",
"437 223 OFFCURVE",
"418 245 OFFCURVE",
"391 245 CURVE SMOOTH",
"381 245 LINE",
"381 619 LINE SMOOTH",
"381 646 OFFCURVE",
"360 667 OFFCURVE",
"332 667 CURVE SMOOTH",
"314 667 OFFCURVE",
"301 659 OFFCURVE",
"292 644 CURVE SMOOTH",
"39 228 LINE SMOOTH",
"34 219 OFFCURVE",
"31 211 OFFCURVE",
"31 201 CURVE SMOOTH",
"31 175 OFFCURVE",
"47 154 OFFCURVE",
"79 154 CURVE SMOOTH",
"284 151 LINE",
"284 47 LINE SMOOTH",
"284 22 OFFCURVE",
"305 -1 OFFCURVE",
"332 -1 CURVE SMOOTH"
);
},
{
closed = 1;
nodes = (
"164 250 LINE",
"284 447 LINE",
"284 247 LINE"
);
}
);
};
layerId = "BB1A411A-CAFC-47D3-A925-066104B707B4";
paths = (
{
closed = 1;
nodes = (
"358 -1 OFFCURVE",
"381 22 OFFCURVE",
"381 47 CURVE SMOOTH",
"381 149 LINE",
"387 149 LINE SMOOTH",
"413 149 OFFCURVE",
"437 170 OFFCURVE",
"437 197 CURVE SMOOTH",
"437 223 OFFCURVE",
"418 245 OFFCURVE",
"391 245 CURVE SMOOTH",
"381 245 LINE",
"381 619 LINE SMOOTH",
"381 646 OFFCURVE",
"360 667 OFFCURVE",
"332 667 CURVE SMOOTH",
"314 667 OFFCURVE",
"301 659 OFFCURVE",
"292 644 CURVE SMOOTH",
"39 228 LINE SMOOTH",
"34 219 OFFCURVE",
"31 211 OFFCURVE",
"31 201 CURVE SMOOTH",
"31 175 OFFCURVE",
"47 154 OFFCURVE",
"79 154 CURVE SMOOTH",
"284 151 LINE",
"284 47 LINE SMOOTH",
"284 22 OFFCURVE",
"305 -1 OFFCURVE",
"332 -1 CURVE SMOOTH"
);
},
{
closed = 1;
nodes = (
"164 250 LINE",
"284 447 LINE",
"284 247 LINE"
);
}
);
userData = {
com.fontlab.hintData = {
hhints = (
{
position = -1;
width = 21;
},
{
position = 149;
width = 96;
}
);
vhints = (
{
position = 305;
width = 97;
}
);
};
};
width = 469;
}
);
unicode = 0034;
},
{
color = 4;
glyphname = five;
lastChange = "2019-12-17 19:01:54 +0000";
layers = (
{
background = {
paths = (
{
closed = 1;
nodes = (
"375 -3 OFFCURVE",
"483 113 OFFCURVE",
"483 253 CURVE SMOOTH",
"483 391 OFFCURVE",
"395 482 OFFCURVE",
"277 482 CURVE SMOOTH",
"222 482 OFFCURVE",
"169 457 OFFCURVE",
"128 433 CURVE",
"149 643 LINE",
"436 643 LINE SMOOTH",
"446 643 OFFCURVE",
"454 651 OFFCURVE",
"454 662 CURVE SMOOTH",
"454 672 OFFCURVE",
"446 680 OFFCURVE",
"436 680 CURVE SMOOTH",
"132 680 LINE SMOOTH",
"123 680 OFFCURVE",
"115 673 OFFCURVE",
"114 664 CURVE SMOOTH",
"85 390 LINE SMOOTH",
"84 378 OFFCURVE",
"92 367 OFFCURVE",
"105 367 CURVE SMOOTH",
"110 367 OFFCURVE",
"115 369 OFFCURVE",
"121 375 CURVE SMOOTH",
"131 386 OFFCURVE",
"186 445 OFFCURVE",
"277 445 CURVE SMOOTH",
"394 445 OFFCURVE",
"446 348 OFFCURVE",
"446 253 CURVE SMOOTH",
"446 135 OFFCURVE",
"356 34 OFFCURVE",
"256 34 CURVE SMOOTH",
"182 34 OFFCURVE",
"134 66 OFFCURVE",
"95 122 CURVE SMOOTH",
"90 129 OFFCURVE",
"86 133 OFFCURVE",
"77 133 CURVE SMOOTH",
"67 133 OFFCURVE",
"58 125 OFFCURVE",
"58 115 CURVE SMOOTH",
"58 110 OFFCURVE",
"59 107 OFFCURVE",
"60 104 CURVE SMOOTH",
"75 74 OFFCURVE",
"144 -3 OFFCURVE",
"256 -3 CURVE SMOOTH"
);
}
);
};
layerId = master01;
paths = (
{
closed = 1;
nodes = (
"375 -3 OFFCURVE",
"483 113 OFFCURVE",
"483 253 CURVE SMOOTH",
"483 391 OFFCURVE",
"395 482 OFFCURVE",
"277 482 CURVE SMOOTH",
"222 482 OFFCURVE",
"169 457 OFFCURVE",
"128 433 CURVE",
"149 643 LINE",
"436 643 LINE SMOOTH",
"446 643 OFFCURVE",
"454 651 OFFCURVE",
"454 662 CURVE SMOOTH",
"454 672 OFFCURVE",
"446 680 OFFCURVE",
"436 680 CURVE SMOOTH",
"132 680 LINE SMOOTH",
"123 680 OFFCURVE",
"115 673 OFFCURVE",
"114 664 CURVE SMOOTH",
"85 390 LINE SMOOTH",
"84 378 OFFCURVE",
"92 367 OFFCURVE",
"105 367 CURVE SMOOTH",
"110 367 OFFCURVE",
"115 369 OFFCURVE",
"121 375 CURVE SMOOTH",
"131 386 OFFCURVE",
"186 445 OFFCURVE",
"277 445 CURVE SMOOTH",
"394 445 OFFCURVE",
"446 348 OFFCURVE",
"446 253 CURVE SMOOTH",
"446 135 OFFCURVE",
"356 34 OFFCURVE",
"256 34 CURVE SMOOTH",
"182 34 OFFCURVE",
"134 66 OFFCURVE",
"95 122 CURVE SMOOTH",
"90 129 OFFCURVE",
"86 133 OFFCURVE",
"77 133 CURVE SMOOTH",
"67 133 OFFCURVE",
"58 125 OFFCURVE",
"58 115 CURVE SMOOTH",
"58 110 OFFCURVE",
"59 107 OFFCURVE",
"60 104 CURVE SMOOTH",
"75 74 OFFCURVE",
"144 -3 OFFCURVE",
"256 -3 CURVE SMOOTH"
);
}
);
userData = {
com.fontlab.hintData = {
hhints = (
{
position = -3;
width = 37;
},
{
position = 445;
width = 37;
},
{
position = 643;
width = 37;
}
);
vhints = (
{
position = 457;
width = 37;
}
);
};
};
width = 539;
},
{
background = {
paths = (
{
closed = 1;
nodes = (
"386 -3 OFFCURVE",
"495 112 OFFCURVE",
"495 253 CURVE SMOOTH",
"495 391 OFFCURVE",
"406 483 OFFCURVE",
"287 483 CURVE SMOOTH",
"232 483 OFFCURVE",
"188 464 OFFCURVE",
"156 445 CURVE",
"173 617 LINE",
"439 617 LINE SMOOTH",
"454 617 OFFCURVE",
"467 629 OFFCURVE",
"467 645 CURVE SMOOTH",
"467 660 OFFCURVE",
"454 673 OFFCURVE",
"439 673 CURVE SMOOTH",
"148 673 LINE SMOOTH",
"134 673 OFFCURVE",
"121 662 OFFCURVE",
"120 648 CURVE SMOOTH",
"93 385 LINE SMOOTH",
"91 368 OFFCURVE",
"102 352 OFFCURVE",
"122 352 CURVE SMOOTH",
"130 352 OFFCURVE",
"136 355 OFFCURVE",
"143 362 CURVE SMOOTH",
"148 367 OFFCURVE",
"199 427 OFFCURVE",
"287 427 CURVE SMOOTH",
"392 427 OFFCURVE",
"439 339 OFFCURVE",
"439 253 CURVE SMOOTH",
"439 145 OFFCURVE",
"358 53 OFFCURVE",
"267 53 CURVE SMOOTH",
"200 53 OFFCURVE",
"156 82 OFFCURVE",
"120 133 CURVE SMOOTH",
"113 142 OFFCURVE",
"109 148 OFFCURVE",
"95 148 CURVE SMOOTH",
"80 148 OFFCURVE",
"67 135 OFFCURVE",
"67 120 CURVE SMOOTH",
"67 115 OFFCURVE",
"68 110 OFFCURVE",
"70 106 CURVE SMOOTH",
"85 75 OFFCURVE",
"154 -3 OFFCURVE",
"267 -3 CURVE SMOOTH"
);
}
);
};
layerId = "218416E4-0B36-4DBB-8D0A-D6BB29FB6576";
paths = (
{
closed = 1;
nodes = (
"386 -3 OFFCURVE",
"495 112 OFFCURVE",
"495 253 CURVE SMOOTH",
"495 391 OFFCURVE",
"406 483 OFFCURVE",
"287 483 CURVE SMOOTH",
"232 483 OFFCURVE",
"188 464 OFFCURVE",
"156 445 CURVE",
"173 617 LINE",
"439 617 LINE SMOOTH",
"454 617 OFFCURVE",
"467 629 OFFCURVE",
"467 645 CURVE SMOOTH",
"467 660 OFFCURVE",
"454 673 OFFCURVE",
"439 673 CURVE SMOOTH",
"148 673 LINE SMOOTH",
"134 673 OFFCURVE",
"121 662 OFFCURVE",
"120 648 CURVE SMOOTH",
"93 385 LINE SMOOTH",
"91 368 OFFCURVE",
"102 352 OFFCURVE",
"122 352 CURVE SMOOTH",
"130 352 OFFCURVE",
"136 355 OFFCURVE",
"143 362 CURVE SMOOTH",
"163 382 OFFCURVE",
"209 427 OFFCURVE",
"287 427 CURVE SMOOTH",
"392 427 OFFCURVE",
"439 339 OFFCURVE",
"439 253 CURVE SMOOTH",
"439 145 OFFCURVE",
"358 53 OFFCURVE",
"267 53 CURVE SMOOTH",
"200 53 OFFCURVE",
"156 82 OFFCURVE",
"120 133 CURVE SMOOTH",
"113 142 OFFCURVE",
"109 148 OFFCURVE",
"95 148 CURVE SMOOTH",
"80 148 OFFCURVE",
"67 135 OFFCURVE",
"67 120 CURVE SMOOTH",
"67 115 OFFCURVE",
"68 110 OFFCURVE",
"70 106 CURVE SMOOTH",
"85 75 OFFCURVE",
"154 -3 OFFCURVE",
"267 -3 CURVE SMOOTH"
);
}
);
userData = {
com.fontlab.hintData = {
hhints = (
{
position = -3;
width = 56;
},
{
position = 427;
width = 56;
},
{
position = 617;
width = 56;
}
);
vhints = (
{
position = 439;
width = 56;
}
);
};
};
width = 559;
},
{
background = {
paths = (
{
closed = 1;
nodes = (
"371 -3 OFFCURVE",
"481 112 OFFCURVE",
"481 253 CURVE SMOOTH",
"481 392 OFFCURVE",
"390 484 OFFCURVE",
"270 484 CURVE SMOOTH",
"235 484 OFFCURVE",
"203 477 OFFCURVE",
"177 466 CURVE",
"187 560 LINE",
"408 560 LINE SMOOTH",
"433 560 OFFCURVE",
"456 581 OFFCURVE",
"456 609 CURVE SMOOTH",
"456 634 OFFCURVE",
"433 657 OFFCURVE",
"408 657 CURVE SMOOTH",
"143 657 LINE SMOOTH",
"119 657 OFFCURVE",
"97 638 OFFCURVE",
"95 614 CURVE SMOOTH",
"71 375 LINE SMOOTH",
"71 373 OFFCURVE",
"71 371 OFFCURVE",
"71 368 CURVE SMOOTH",
"71 341 OFFCURVE",
"88 320 OFFCURVE",
"119 320 CURVE SMOOTH",
"133 320 OFFCURVE",
"144 324 OFFCURVE",
"155 335 CURVE SMOOTH",
"164 344 OFFCURVE",
"205 388 OFFCURVE",
"270 388 CURVE SMOOTH",
"350 388 OFFCURVE",
"385 320 OFFCURVE",
"385 253 CURVE SMOOTH",
"385 166 OFFCURVE",
"322 94 OFFCURVE",
"251 94 CURVE SMOOTH",
"200 94 OFFCURVE",
"164 116 OFFCURVE",
"136 156 CURVE SMOOTH",
"126 170 OFFCURVE",
"118 180 OFFCURVE",
"95 180 CURVE SMOOTH",
"70 180 OFFCURVE",
"47 157 OFFCURVE",
"47 132 CURVE SMOOTH",
"47 124 OFFCURVE",
"49 116 OFFCURVE",
"52 109 CURVE SMOOTH",
"67 77 OFFCURVE",
"137 -3 OFFCURVE",
"251 -3 CURVE SMOOTH"
);
}
);
};
layerId = "BB1A411A-CAFC-47D3-A925-066104B707B4";
paths = (
{
closed = 1;
nodes = (
"371 -3 OFFCURVE",
"481 112 OFFCURVE",
"481 253 CURVE SMOOTH",
"481 392 OFFCURVE",
"390 484 OFFCURVE",
"270 484 CURVE SMOOTH",
"235 484 OFFCURVE",
"203 477 OFFCURVE",
"177 466 CURVE",
"187 560 LINE",
"408 560 LINE SMOOTH",
"433 560 OFFCURVE",
"456 581 OFFCURVE",
"456 609 CURVE SMOOTH",
"456 634 OFFCURVE",
"433 657 OFFCURVE",
"408 657 CURVE SMOOTH",
"143 657 LINE SMOOTH",
"119 657 OFFCURVE",
"97 638 OFFCURVE",
"95 614 CURVE SMOOTH",
"71 373 LINE SMOOTH",
"68 342 OFFCURVE",
"88 320 OFFCURVE",
"116 320 CURVE SMOOTH",
"136 320 OFFCURVE",
"147 327 OFFCURVE",
"158 338 CURVE SMOOTH",
"171 351 OFFCURVE",
"210 388 OFFCURVE",
"270 388 CURVE SMOOTH",
"350 388 OFFCURVE",
"385 320 OFFCURVE",
"385 253 CURVE SMOOTH",
"385 166 OFFCURVE",
"322 94 OFFCURVE",
"251 94 CURVE SMOOTH",
"200 94 OFFCURVE",
"164 116 OFFCURVE",
"136 156 CURVE SMOOTH",
"126 170 OFFCURVE",
"118 180 OFFCURVE",
"95 180 CURVE SMOOTH",
"70 180 OFFCURVE",
"47 157 OFFCURVE",
"47 132 CURVE SMOOTH",
"47 124 OFFCURVE",
"49 116 OFFCURVE",
"52 109 CURVE SMOOTH",
"67 77 OFFCURVE",
"137 -3 OFFCURVE",
"251 -3 CURVE SMOOTH"
);
}
);
userData = {
com.fontlab.hintData = {
hhints = (
{
position = -3;
width = 97;
},
{
position = 388;
width = 96;
},
{
position = 560;
width = 97;
}
);
vhints = (
{
position = 402;
width = 96;
}
);
};
};
width = 531;
}
);
unicode = 0035;
},
{
color = 4;
glyphname = six;
lastChange = "2019-12-17 19:02:49 +0000";
layers = (
{
background = {
paths = (
{
closed = 1;
nodes = (
"330 -3 OFFCURVE",
"476 40 OFFCURVE",
"476 242 CURVE SMOOTH",
"476 373 OFFCURVE",
"392 442 OFFCURVE",
"287 442 CURVE SMOOTH",
"224 442 OFFCURVE",
"151 413 OFFCURVE",
"108 377 CURVE",
"152 501 OFFCURVE",
"249 605 OFFCURVE",
"354 656 CURVE SMOOTH",
"359 659 OFFCURVE",
"364 665 OFFCURVE",
"364 672 CURVE SMOOTH",
"364 681 OFFCURVE",
"356 689 OFFCURVE",
"347 689 CURVE SMOOTH",
"342 689 OFFCURVE",
"338 688 OFFCURVE",
"332 685 CURVE SMOOTH",
"285 661 OFFCURVE",
"60 545 OFFCURVE",
"60 247 CURVE SMOOTH",
"60 57 OFFCURVE",
"172 -3 OFFCURVE",
"277 -3 CURVE SMOOTH"
);
},
{
closed = 1;
nodes = (
"193 31 OFFCURVE",
"94 69 OFFCURVE",
"94 247 CURVE SMOOTH",
"94 274 OFFCURVE",
"95 301 OFFCURVE",
"99 326 CURVE",
"118 347 OFFCURVE",
"181 406 OFFCURVE",
"287 407 CURVE SMOOTH",
"324 407 OFFCURVE",
"443 395 OFFCURVE",
"443 242 CURVE SMOOTH",
"443 69 OFFCURVE",
"324 31 OFFCURVE",
"277 31 CURVE SMOOTH"
);
}
);
};
layerId = master01;
paths = (
{
closed = 1;
nodes = (
"377 -3 OFFCURVE",
"477 82 OFFCURVE",
"477 242 CURVE SMOOTH",
"477 373 OFFCURVE",
"393 442 OFFCURVE",
"287 442 CURVE SMOOTH",
"224 442 OFFCURVE",
"151 413 OFFCURVE",
"108 377 CURVE",
"152 501 OFFCURVE",
"249 605 OFFCURVE",
"354 656 CURVE SMOOTH",
"359 659 OFFCURVE",
"364 665 OFFCURVE",
"364 672 CURVE SMOOTH",
"364 681 OFFCURVE",
"356 689 OFFCURVE",
"347 689 CURVE SMOOTH",
"342 689 OFFCURVE",
"338 688 OFFCURVE",
"332 685 CURVE SMOOTH",
"206 620 OFFCURVE",
"60 490 OFFCURVE",
"60 247 CURVE SMOOTH",
"60 57 OFFCURVE",
"172 -3 OFFCURVE",
"275 -3 CURVE SMOOTH"
);
},
{
closed = 1;
nodes = (
"193 31 OFFCURVE",
"94 69 OFFCURVE",
"94 247 CURVE SMOOTH",
"94 274 OFFCURVE",
"95 301 OFFCURVE",
"99 326 CURVE",
"118 347 OFFCURVE",
"181 406 OFFCURVE",
"287 407 CURVE SMOOTH",
"372 407 OFFCURVE",
"443 356 OFFCURVE",
"443 242 CURVE SMOOTH",
"443 97 OFFCURVE",
"355 31 OFFCURVE",
"275 31 CURVE SMOOTH"
);
}
);
userData = {
com.fontlab.hintData = {
hhints = (
{
position = -3;
width = 34;
},
{
position = 407;
width = 35;
},
{
position = 656;
width = 33;
}
);
vhints = (
{
position = 63;
width = 34;
},
{
position = 446;
width = 33;
}
);
};
};
width = 529;
},
{
background = {
paths = (
{
closed = 1;
nodes = (
"333 -3 OFFCURVE",
"480 40 OFFCURVE",
"480 242 CURVE SMOOTH",
"480 375 OFFCURVE",
"394 444 OFFCURVE",
"289 444 CURVE SMOOTH",
"226 444 OFFCURVE",
"176 424 OFFCURVE",
"139 402 CURVE",
"174 501 OFFCURVE",
"258 583 OFFCURVE",
"357 631 CURVE SMOOTH",
"366 635 OFFCURVE",
"372 644 OFFCURVE",
"372 655 CURVE SMOOTH",
"372 670 OFFCURVE",
"361 681 OFFCURVE",
"346 681 CURVE SMOOTH",
"339 681 OFFCURVE",
"334 679 OFFCURVE",
"328 676 CURVE SMOOTH",
"282 653 OFFCURVE",
"61 539 OFFCURVE",
"61 247 CURVE SMOOTH",
"61 57 OFFCURVE",
"173 -3 OFFCURVE",
"279 -3 CURVE SMOOTH"
);
},
{
closed = 1;
nodes = (
"203 50 OFFCURVE",
"113 84 OFFCURVE",
"113 247 CURVE SMOOTH",
"113 272 OFFCURVE",
"114 296 OFFCURVE",
"118 320 CURVE",
"137 339 OFFCURVE",
"196 391 OFFCURVE",
"289 391 CURVE SMOOTH",
"322 391 OFFCURVE",
"428 380 OFFCURVE",
"428 242 CURVE SMOOTH",
"428 84 OFFCURVE",
"321 50 OFFCURVE",
"279 50 CURVE SMOOTH"
);
}
);
};
layerId = "218416E4-0B36-4DBB-8D0A-D6BB29FB6576";
paths = (
{
closed = 1;
nodes = (
"389 -3 OFFCURVE",
"480 94 OFFCURVE",
"480 242 CURVE SMOOTH",
"480 375 OFFCURVE",
"394 444 OFFCURVE",
"289 444 CURVE SMOOTH",
"226 444 OFFCURVE",
"176 424 OFFCURVE",
"139 402 CURVE",
"174 501 OFFCURVE",
"258 583 OFFCURVE",
"357 631 CURVE SMOOTH",
"366 635 OFFCURVE",
"372 644 OFFCURVE",
"372 655 CURVE SMOOTH",
"372 670 OFFCURVE",
"361 681 OFFCURVE",
"346 681 CURVE SMOOTH",
"339 681 OFFCURVE",
"334 679 OFFCURVE",
"328 676 CURVE SMOOTH",
"223 623 OFFCURVE",
"61 500 OFFCURVE",
"61 247 CURVE SMOOTH",
"61 57 OFFCURVE",
"173 -3 OFFCURVE",
"274 -3 CURVE SMOOTH"
);
},
{
closed = 1;
nodes = (
"182 50 OFFCURVE",
"113 107 OFFCURVE",
"113 247 CURVE SMOOTH",
"113 272 OFFCURVE",
"114 296 OFFCURVE",
"118 320 CURVE",
"137 339 OFFCURVE",
"196 391 OFFCURVE",
"289 391 CURVE SMOOTH",
"366 391 OFFCURVE",
"428 346 OFFCURVE",
"428 242 CURVE SMOOTH",
"428 125 OFFCURVE",
"363 50 OFFCURVE",
"275 50 CURVE SMOOTH"
);
}
);
userData = {
com.fontlab.hintData = {
hhints = (
{
position = -3;
width = 53;
},
{
position = 391;
width = 53;
},
{
position = 631;
width = 50;
}
);
vhints = (
{
position = 61;
width = 52;
},
{
position = 428;
width = 52;
}
);
};
};
width = 546;
},
{
background = {
paths = (
{
closed = 1;
nodes = (
"326 -3 OFFCURVE",
"476 40 OFFCURVE",
"476 243 CURVE SMOOTH",
"476 378 OFFCURVE",
"388 449 OFFCURVE",
"280 449 CURVE SMOOTH",
"246 449 OFFCURVE",
"216 443 OFFCURVE",
"191 434 CURVE",
"227 495 OFFCURVE",
"283 543 OFFCURVE",
"351 575 CURVE SMOOTH",
"367 582 OFFCURVE",
"378 598 OFFCURVE",
"378 618 CURVE SMOOTH",
"378 644 OFFCURVE",
"358 664 OFFCURVE",
"332 664 CURVE SMOOTH",
"322 664 OFFCURVE",
"314 661 OFFCURVE",
"305 657 CURVE SMOOTH",
"262 635 OFFCURVE",
"50 526 OFFCURVE",
"50 247 CURVE SMOOTH",
"50 57 OFFCURVE",
"164 -3 OFFCURVE",
"271 -3 CURVE SMOOTH"
);
},
{
closed = 1;
nodes = (
"212 91 OFFCURVE",
"143 118 OFFCURVE",
"143 247 CURVE SMOOTH",
"143 265 OFFCURVE",
"143 283 OFFCURVE",
"145 302 CURVE",
"165 320 OFFCURVE",
"211 355 OFFCURVE",
"280 355 CURVE SMOOTH",
"304 355 OFFCURVE",
"383 347 OFFCURVE",
"383 243 CURVE SMOOTH",
"383 118 OFFCURVE",
"303 91 OFFCURVE",
"271 91 CURVE SMOOTH"
);
}
);
};
layerId = "BB1A411A-CAFC-47D3-A925-066104B707B4";
paths = (
{
closed = 1;
nodes = (
"376 -3 OFFCURVE",
"476 83 OFFCURVE",
"476 243 CURVE SMOOTH",
"476 378 OFFCURVE",
"388 449 OFFCURVE",
"280 449 CURVE SMOOTH",
"246 449 OFFCURVE",
"216 443 OFFCURVE",
"191 434 CURVE",
"227 495 OFFCURVE",
"283 543 OFFCURVE",
"351 575 CURVE SMOOTH",
"367 582 OFFCURVE",
"378 598 OFFCURVE",
"378 618 CURVE SMOOTH",
"378 644 OFFCURVE",
"358 664 OFFCURVE",
"332 664 CURVE SMOOTH",
"322 664 OFFCURVE",
"314 661 OFFCURVE",
"305 657 CURVE SMOOTH",
"156 581 OFFCURVE",
"50 444 OFFCURVE",
"50 247 CURVE SMOOTH",
"50 85 OFFCURVE",
"139 -3 OFFCURVE",
"266 -3 CURVE SMOOTH"
);
},
{
closed = 1;
nodes = (
"191 91 OFFCURVE",
"143 139 OFFCURVE",
"143 247 CURVE SMOOTH",
"143 265 OFFCURVE",
"143 283 OFFCURVE",
"145 302 CURVE",
"165 320 OFFCURVE",
"211 355 OFFCURVE",
"280 355 CURVE SMOOTH",
"337 355 OFFCURVE",
"383 321 OFFCURVE",
"383 243 CURVE SMOOTH",
"383 152 OFFCURVE",
"335 91 OFFCURVE",
"267 91 CURVE SMOOTH"
);
}
);
userData = {
com.fontlab.hintData = {
hhints = (
{
position = -3;
width = 94;
},
{
position = 355;
width = 94;
},
{
position = 575;
width = 89;
}
);
vhints = (
{
position = 58;
width = 93;
},
{
position = 391;
width = 93;
}
);
};
};
width = 523;
}
);
unicode = 0036;
},
{
color = 4;
glyphname = seven;
lastChange = "2019-12-17 18:57:49 +0000";
layers = (
{
background = {
paths = (
{
closed = 1;
nodes = (
"101 1 OFFCURVE",
"108 4 OFFCURVE",
"111 10 CURVE SMOOTH",
"433 649 LINE SMOOTH",
"434 652 OFFCURVE",
"435 654 OFFCURVE",
"435 658 CURVE SMOOTH",
"435 668 OFFCURVE",
"427 677 OFFCURVE",
"416 677 CURVE SMOOTH",
"41 677 LINE SMOOTH",
"31 677 OFFCURVE",
"22 669 OFFCURVE",
"22 659 CURVE SMOOTH",
"22 648 OFFCURVE",
"31 640 OFFCURVE",
"41 640 CURVE SMOOTH",
"386 640 LINE",
"78 28 LINE SMOOTH",
"77 26 OFFCURVE",
"76 23 OFFCURVE",
"76 20 CURVE SMOOTH",
"76 9 OFFCURVE",
"84 1 OFFCURVE",
"94 1 CURVE SMOOTH"
);
}
);
};
layerId = master01;
paths = (
{
closed = 1;
nodes = (
"101 1 OFFCURVE",
"108 4 OFFCURVE",
"111 10 CURVE SMOOTH",
"433 649 LINE SMOOTH",
"434 652 OFFCURVE",
"435 654 OFFCURVE",
"435 658 CURVE SMOOTH",
"435 668 OFFCURVE",
"427 677 OFFCURVE",
"416 677 CURVE SMOOTH",
"41 677 LINE SMOOTH",
"31 677 OFFCURVE",
"22 669 OFFCURVE",
"22 659 CURVE SMOOTH",
"22 648 OFFCURVE",
"31 640 OFFCURVE",
"41 640 CURVE SMOOTH",
"386 640 LINE",
"78 28 LINE SMOOTH",
"77 26 OFFCURVE",
"76 23 OFFCURVE",
"76 20 CURVE SMOOTH",
"76 9 OFFCURVE",
"84 1 OFFCURVE",
"94 1 CURVE SMOOTH"
);
}
);
userData = {
com.fontlab.hintData = {
hhints = (
{
position = 1;
width = 21;
},
{
position = 640;
width = 37;
}
);
vhints = (
{
position = 120;
width = 35;
}
);
};
};
width = 448;
},
{
background = {
paths = (
{
closed = 1;
nodes = (
"153 1 OFFCURVE",
"163 6 OFFCURVE",
"168 16 CURVE SMOOTH",
"477 629 LINE SMOOTH",
"479 633 OFFCURVE",
"480 637 OFFCURVE",
"480 641 CURVE SMOOTH",
"480 657 OFFCURVE",
"468 670 OFFCURVE",
"452 670 CURVE SMOOTH",
"92 670 LINE SMOOTH",
"76 670 OFFCURVE",
"64 657 OFFCURVE",
"64 642 CURVE SMOOTH",
"64 626 OFFCURVE",
"76 614 OFFCURVE",
"92 614 CURVE SMOOTH",
"407 614 LINE",
"118 41 LINE SMOOTH",
"116 37 OFFCURVE",
"115 33 OFFCURVE",
"115 29 CURVE SMOOTH",
"115 14 OFFCURVE",
"127 1 OFFCURVE",
"143 1 CURVE SMOOTH"
);
}
);
};
layerId = "218416E4-0B36-4DBB-8D0A-D6BB29FB6576";
paths = (
{
closed = 1;
nodes = (
"153 1 OFFCURVE",
"163 6 OFFCURVE",
"168 16 CURVE SMOOTH",
"477 629 LINE SMOOTH",
"479 633 OFFCURVE",
"480 637 OFFCURVE",
"480 641 CURVE SMOOTH",
"480 657 OFFCURVE",
"468 670 OFFCURVE",
"452 670 CURVE SMOOTH",
"92 670 LINE SMOOTH",
"76 670 OFFCURVE",
"64 657 OFFCURVE",
"64 642 CURVE SMOOTH",
"64 626 OFFCURVE",
"76 614 OFFCURVE",
"92 614 CURVE SMOOTH",
"407 614 LINE",
"118 41 LINE SMOOTH",
"116 37 OFFCURVE",
"115 33 OFFCURVE",
"115 29 CURVE SMOOTH",
"115 14 OFFCURVE",
"127 1 OFFCURVE",
"143 1 CURVE SMOOTH"
);
}
);
userData = {
com.fontlab.hintData = {
hhints = (
{
position = 1;
width = 21;
},
{
position = 614;
width = 56;
}
);
vhints = (
{
position = 115;
width = 53;
}
);
};
};
width = 501;
},
{
background = {
paths = (
{
closed = 1;
nodes = (
"127 1 OFFCURVE",
"145 8 OFFCURVE",
"154 27 CURVE SMOOTH",
"435 584 LINE SMOOTH",
"438 591 OFFCURVE",
"440 599 OFFCURVE",
"440 605 CURVE SMOOTH",
"440 632 OFFCURVE",
"419 654 OFFCURVE",
"392 654 CURVE SMOOTH",
"65 654 LINE SMOOTH",
"38 654 OFFCURVE",
"17 631 OFFCURVE",
"17 606 CURVE SMOOTH",
"17 579 OFFCURVE",
"38 558 OFFCURVE",
"65 558 CURVE SMOOTH",
"315 558 LINE",
"69 70 LINE SMOOTH",
"65 63 OFFCURVE",
"63 55 OFFCURVE",
"63 49 CURVE SMOOTH",
"63 24 OFFCURVE",
"84 1 OFFCURVE",
"111 1 CURVE SMOOTH"
);
}
);
};
layerId = "BB1A411A-CAFC-47D3-A925-066104B707B4";
paths = (
{
closed = 1;
nodes = (
"127 1 OFFCURVE",
"145 8 OFFCURVE",
"154 27 CURVE SMOOTH",
"428 570 LINE SMOOTH",
"433 580 OFFCURVE",
"440 595 OFFCURVE",
"440 605 CURVE SMOOTH",
"440 632 OFFCURVE",
"419 654 OFFCURVE",
"392 654 CURVE SMOOTH",
"65 654 LINE SMOOTH",
"38 654 OFFCURVE",
"17 631 OFFCURVE",
"17 606 CURVE SMOOTH",
"17 579 OFFCURVE",
"38 558 OFFCURVE",
"65 558 CURVE SMOOTH",
"315 558 LINE",
"69 70 LINE SMOOTH",
"65 63 OFFCURVE",
"63 55 OFFCURVE",
"63 49 CURVE SMOOTH",
"63 24 OFFCURVE",
"84 1 OFFCURVE",
"111 1 CURVE SMOOTH"
);
}
);
userData = {
com.fontlab.hintData = {
hhints = (
{
position = 1;
width = 21;
},
{
position = 558;
width = 96;
}
);
};
};
width = 450;
}
);
unicode = 0037;
},
{
color = 4;
glyphname = eight;
lastChange = "2019-12-17 19:01:27 +0000";
layers = (
{
background = {
paths = (
{
closed = 1;
nodes = (
"378 -3 OFFCURVE",
"465 78 OFFCURVE",
"465 187 CURVE SMOOTH",
"465 265 OFFCURVE",
"411 334 OFFCURVE",
"320 380 CURVE",
"385 413 OFFCURVE",
"447 461 OFFCURVE",
"447 538 CURVE SMOOTH",
"447 629 OFFCURVE",
"374 694 OFFCURVE",
"272 694 CURVE SMOOTH",
"174 694 OFFCURVE",
"91 629 OFFCURVE",
"91 521 CURVE SMOOTH",
"91 447 OFFCURVE",
"149 402 OFFCURVE",
"215 373 CURVE",
"141 337 OFFCURVE",
"60 280 OFFCURVE",
"56 176 CURVE",
"56 73 OFFCURVE",
"142 -3 OFFCURVE",
"261 -3 CURVE SMOOTH"
);
},
{
closed = 1;
nodes = (
"167 33 OFFCURVE",
"93 90 OFFCURVE",
"93 170 CURVE SMOOTH",
"93 286 OFFCURVE",
"191 322 OFFCURVE",
"274 357 CURVE",
"351 333 OFFCURVE",
"430 277 OFFCURVE",
"430 183 CURVE SMOOTH",
"430 80 OFFCURVE",
"340 33 OFFCURVE",
"261 33 CURVE SMOOTH"
);
},
{
closed = 1;
nodes = (
"167 424 OFFCURVE",
"126 462 OFFCURVE",
"126 525 CURVE SMOOTH",
"126 624 OFFCURVE",
"213 656 OFFCURVE",
"273 656 CURVE SMOOTH",
"350 656 OFFCURVE",
"411 614 OFFCURVE",
"411 544 CURVE SMOOTH",
"411 490 OFFCURVE",
"386 442 OFFCURVE",
"267 396 CURVE"
);
}
);
};
layerId = master01;
paths = (
{
closed = 1;
nodes = (
"378 -3 OFFCURVE",
"465 78 OFFCURVE",
"465 187 CURVE SMOOTH",
"465 265 OFFCURVE",
"411 334 OFFCURVE",
"320 380 CURVE",
"385 413 OFFCURVE",
"447 461 OFFCURVE",
"447 538 CURVE SMOOTH",
"447 629 OFFCURVE",
"374 694 OFFCURVE",
"272 694 CURVE SMOOTH",
"174 694 OFFCURVE",
"91 629 OFFCURVE",
"91 521 CURVE SMOOTH",
"91 447 OFFCURVE",
"149 402 OFFCURVE",
"217 373 CURVE",
"141 337 OFFCURVE",
"60 280 OFFCURVE",
"56 176 CURVE",
"56 73 OFFCURVE",
"142 -3 OFFCURVE",
"261 -3 CURVE SMOOTH"
);
},
{
closed = 1;
nodes = (
"167 33 OFFCURVE",
"93 90 OFFCURVE",
"93 170 CURVE SMOOTH",
"93 286 OFFCURVE",
"191 322 OFFCURVE",
"274 357 CURVE",
"351 333 OFFCURVE",
"430 277 OFFCURVE",
"430 183 CURVE SMOOTH",
"430 80 OFFCURVE",
"340 33 OFFCURVE",
"261 33 CURVE SMOOTH"
);
},
{
closed = 1;
nodes = (
"167 424 OFFCURVE",
"126 462 OFFCURVE",
"126 525 CURVE SMOOTH",
"126 607 OFFCURVE",
"192 656 OFFCURVE",
"273 656 CURVE SMOOTH",
"350 656 OFFCURVE",
"411 614 OFFCURVE",
"411 544 CURVE SMOOTH",
"411 490 OFFCURVE",
"386 442 OFFCURVE",
"267 396 CURVE"
);
}
);
userData = {
com.fontlab.hintData = {
hhints = (
{
position = -3;
width = 36;
},
{
position = 656;
width = 38;
}
);
vhints = (
{
position = 68;
width = 37;
},
{
position = 103;
width = 35;
},
{
position = 423;
width = 36;
},
{
position = 442;
width = 35;
}
);
};
};
width = 517;
},
{
background = {
paths = (
{
closed = 1;
nodes = (
"391 -3 OFFCURVE",
"478 79 OFFCURVE",
"478 189 CURVE SMOOTH",
"478 268 OFFCURVE",
"431 335 OFFCURVE",
"352 375 CURVE",
"407 403 OFFCURVE",
"461 446 OFFCURVE",
"461 526 CURVE SMOOTH",
"461 620 OFFCURVE",
"387 686 OFFCURVE",
"283 686 CURVE SMOOTH",
"184 686 OFFCURVE",
"99 620 OFFCURVE",
"99 510 CURVE SMOOTH",
"99 434 OFFCURVE",
"149 393 OFFCURVE",
"205 368 CURVE",
"140 336 OFFCURVE",
"69 284 OFFCURVE",
"66 179 CURVE",
"66 74 OFFCURVE",
"152 -3 OFFCURVE",
"272 -3 CURVE SMOOTH"
);
},
{
closed = 1;
nodes = (
"188 52 OFFCURVE",
"121 102 OFFCURVE",
"121 173 CURVE SMOOTH",
"121 277 OFFCURVE",
"210 311 OFFCURVE",
"282 343 CURVE",
"353 321 OFFCURVE",
"424 270 OFFCURVE",
"424 186 CURVE SMOOTH",
"424 94 OFFCURVE",
"343 52 OFFCURVE",
"272 52 CURVE SMOOTH"
);
},
{
closed = 1;
nodes = (
"189 426 OFFCURVE",
"153 459 OFFCURVE",
"153 514 CURVE SMOOTH",
"153 629 OFFCURVE",
"280 630 OFFCURVE",
"283 630 CURVE SMOOTH",
"351 630 OFFCURVE",
"406 593 OFFCURVE",
"406 532 CURVE SMOOTH",
"406 485 OFFCURVE",
"384 442 OFFCURVE",
"278 401 CURVE"
);
}
);
};
layerId = "218416E4-0B36-4DBB-8D0A-D6BB29FB6576";
paths = (
{
closed = 1;
nodes = (
"391 -3 OFFCURVE",
"478 79 OFFCURVE",
"478 189 CURVE SMOOTH",
"478 268 OFFCURVE",
"431 335 OFFCURVE",
"352 375 CURVE",
"407 403 OFFCURVE",
"461 446 OFFCURVE",
"461 526 CURVE SMOOTH",
"461 620 OFFCURVE",
"387 686 OFFCURVE",
"283 686 CURVE SMOOTH",
"184 686 OFFCURVE",
"99 620 OFFCURVE",
"99 510 CURVE SMOOTH",
"99 434 OFFCURVE",
"149 393 OFFCURVE",
"205 368 CURVE",
"140 336 OFFCURVE",
"69 284 OFFCURVE",
"66 179 CURVE",
"66 74 OFFCURVE",
"152 -3 OFFCURVE",
"272 -3 CURVE SMOOTH"
);
},
{
closed = 1;
nodes = (
"188 52 OFFCURVE",
"121 102 OFFCURVE",
"121 173 CURVE SMOOTH",
"121 277 OFFCURVE",
"210 311 OFFCURVE",
"282 343 CURVE",
"353 321 OFFCURVE",
"424 270 OFFCURVE",
"424 186 CURVE SMOOTH",
"424 94 OFFCURVE",
"343 52 OFFCURVE",
"272 52 CURVE SMOOTH"
);
},
{
closed = 1;
nodes = (
"189 426 OFFCURVE",
"153 459 OFFCURVE",
"153 514 CURVE SMOOTH",
"153 590 OFFCURVE",
"216 630 OFFCURVE",
"283 630 CURVE SMOOTH",
"351 630 OFFCURVE",
"406 593 OFFCURVE",
"406 532 CURVE SMOOTH",
"406 485 OFFCURVE",
"384 442 OFFCURVE",
"278 401 CURVE"
);
}
);
userData = {
com.fontlab.hintData = {
hhints = (
{
position = -3;
width = 55;
},
{
position = 630;
width = 56;
}
);
vhints = (
{
position = 66;
width = 55;
},
{
position = 99;
width = 54;
},
{
position = 406;
width = 55;
},
{
position = 424;
width = 54;
}
);
};
};
width = 547;
},
{
background = {
paths = (
{
closed = 1;
nodes = (
"373 -3 OFFCURVE",
"462 82 OFFCURVE",
"462 194 CURVE SMOOTH",
"462 263 OFFCURVE",
"428 322 OFFCURVE",
"370 363 CURVE",
"412 392 OFFCURVE",
"447 435 OFFCURVE",
"447 501 CURVE SMOOTH",
"447 600 OFFCURVE",
"371 669 OFFCURVE",
"263 669 CURVE SMOOTH",
"161 669 OFFCURVE",
"73 600 OFFCURVE",
"73 486 CURVE SMOOTH",
"73 422 OFFCURVE",
"102 384 OFFCURVE",
"144 357 CURVE",
"94 324 OFFCURVE",
"45 272 OFFCURVE",
"43 185 CURVE",
"43 77 OFFCURVE",
"130 -3 OFFCURVE",
"253 -3 CURVE SMOOTH"
);
},
{
closed = 1;
nodes = (
"189 93 OFFCURVE",
"138 129 OFFCURVE",
"138 180 CURVE SMOOTH",
"138 255 OFFCURVE",
"205 284 OFFCURVE",
"263 310 CURVE",
"316 292 OFFCURVE",
"368 253 OFFCURVE",
"368 192 CURVE SMOOTH",
"368 124 OFFCURVE",
"306 93 OFFCURVE",
"253 93 CURVE SMOOTH"
);
},
{
closed = 1;
nodes = (
"193 430 OFFCURVE",
"167 452 OFFCURVE",
"167 490 CURVE SMOOTH",
"167 571 OFFCURVE",
"261 572 OFFCURVE",
"263 572 CURVE SMOOTH",
"312 572 OFFCURVE",
"352 547 OFFCURVE",
"352 506 CURVE SMOOTH",
"352 472 OFFCURVE",
"333 442 OFFCURVE",
"257 411 CURVE"
);
}
);
};
layerId = "BB1A411A-CAFC-47D3-A925-066104B707B4";
paths = (
{
closed = 1;
nodes = (
"373 -3 OFFCURVE",
"462 82 OFFCURVE",
"462 194 CURVE SMOOTH",
"462 263 OFFCURVE",
"428 322 OFFCURVE",
"370 363 CURVE",
"412 392 OFFCURVE",
"447 435 OFFCURVE",
"447 501 CURVE SMOOTH",
"447 600 OFFCURVE",
"371 669 OFFCURVE",
"263 669 CURVE SMOOTH",
"161 669 OFFCURVE",
"73 600 OFFCURVE",
"73 486 CURVE SMOOTH",
"73 422 OFFCURVE",
"102 384 OFFCURVE",
"144 357 CURVE",
"94 324 OFFCURVE",
"45 272 OFFCURVE",
"43 185 CURVE",
"43 77 OFFCURVE",
"130 -3 OFFCURVE",
"253 -3 CURVE SMOOTH"
);
},
{
closed = 1;
nodes = (
"189 93 OFFCURVE",
"138 129 OFFCURVE",
"138 180 CURVE SMOOTH",
"138 255 OFFCURVE",
"205 284 OFFCURVE",
"263 310 CURVE",
"316 292 OFFCURVE",
"368 253 OFFCURVE",
"368 192 CURVE SMOOTH",
"368 124 OFFCURVE",
"306 93 OFFCURVE",
"253 93 CURVE SMOOTH"
);
},
{
closed = 1;
nodes = (
"193 430 OFFCURVE",
"167 452 OFFCURVE",
"167 490 CURVE SMOOTH",
"167 544 OFFCURVE",
"210 572 OFFCURVE",
"263 572 CURVE SMOOTH",
"312 572 OFFCURVE",
"352 547 OFFCURVE",
"352 506 CURVE SMOOTH",
"352 472 OFFCURVE",
"333 442 OFFCURVE",
"257 411 CURVE"
);
}
);
userData = {
com.fontlab.hintData = {
hhints = (
{
position = -3;
width = 96;
},
{
position = 572;
width = 97;
}
);
vhints = (
{
position = 63;
width = 95;
},
{
position = 93;
width = 94;
},
{
position = 372;
width = 95;
},
{
position = 388;
width = 94;
}
);
};
};
width = 512;
}
);
unicode = 0038;
},
{
color = 4;
glyphname = nine;
lastChange = "2019-12-17 19:01:35 +0000";
layers = (
{
background = {
paths = (
{
closed = 1;
nodes = (
"186 0 OFFCURVE",
"190 1 OFFCURVE",
"196 4 CURVE SMOOTH",
"243 28 OFFCURVE",
"468 144 OFFCURVE",
"468 442 CURVE SMOOTH",
"468 632 OFFCURVE",
"356 692 OFFCURVE",
"251 692 CURVE SMOOTH",
"198 692 OFFCURVE",
"52 649 OFFCURVE",
"52 447 CURVE SMOOTH",
"52 316 OFFCURVE",
"136 247 OFFCURVE",
"241 247 CURVE SMOOTH",
"304 247 OFFCURVE",
"377 276 OFFCURVE",
"420 312 CURVE",
"376 188 OFFCURVE",
"279 84 OFFCURVE",
"174 33 CURVE SMOOTH",
"169 30 OFFCURVE",
"164 24 OFFCURVE",
"164 17 CURVE SMOOTH",
"164 8 OFFCURVE",
"172 0 OFFCURVE",
"181 0 CURVE SMOOTH"
);
},
{
closed = 1;
nodes = (
"204 282 OFFCURVE",
"85 294 OFFCURVE",
"85 447 CURVE SMOOTH",
"85 620 OFFCURVE",
"204 658 OFFCURVE",
"251 658 CURVE SMOOTH",
"335 658 OFFCURVE",
"434 620 OFFCURVE",
"434 442 CURVE SMOOTH",
"434 415 OFFCURVE",
"433 388 OFFCURVE",
"429 363 CURVE",
"410 342 OFFCURVE",
"347 283 OFFCURVE",
"241 282 CURVE SMOOTH"
);
}
);
};
layerId = master01;
paths = (
{
closed = 1;
nodes = (
"186 0 OFFCURVE",
"190 1 OFFCURVE",
"196 4 CURVE SMOOTH",
"348 82 OFFCURVE",
"468 226 OFFCURVE",
"468 442 CURVE SMOOTH",
"468 599 OFFCURVE",
"389 692 OFFCURVE",
"259 692 CURVE SMOOTH",
"153 692 OFFCURVE",
"52 610 OFFCURVE",
"52 447 CURVE SMOOTH",
"52 316 OFFCURVE",
"136 247 OFFCURVE",
"241 247 CURVE SMOOTH",
"304 247 OFFCURVE",
"377 276 OFFCURVE",
"420 312 CURVE",
"376 188 OFFCURVE",
"279 84 OFFCURVE",
"174 33 CURVE SMOOTH",
"169 30 OFFCURVE",
"164 24 OFFCURVE",
"164 17 CURVE SMOOTH",
"164 8 OFFCURVE",
"172 0 OFFCURVE",
"181 0 CURVE SMOOTH"
);
},
{
closed = 1;
nodes = (
"136 282 OFFCURVE",
"85 352 OFFCURVE",
"85 447 CURVE SMOOTH",
"85 575 OFFCURVE",
"158 658 OFFCURVE",
"258 658 CURVE SMOOTH",
"370 658 OFFCURVE",
"434 582 OFFCURVE",
"434 442 CURVE SMOOTH",
"434 415 OFFCURVE",
"433 388 OFFCURVE",
"429 363 CURVE",
"410 342 OFFCURVE",
"347 283 OFFCURVE",
"241 282 CURVE SMOOTH"
);
}
);
userData = {
com.fontlab.hintData = {
hhints = (
{
position = 0;
width = 33;
},
{
position = 247;
width = 35;
},
{
position = 658;
width = 34;
}
);
vhints = (
{
position = 64;
width = 33;
},
{
position = 446;
width = 34;
}
);
};
};
width = 528;
},
{
background = {
paths = (
{
closed = 1;
nodes = (
"202 0 OFFCURVE",
"207 2 OFFCURVE",
"213 5 CURVE SMOOTH",
"259 28 OFFCURVE",
"480 142 OFFCURVE",
"480 434 CURVE SMOOTH",
"480 624 OFFCURVE",
"368 684 OFFCURVE",
"262 684 CURVE SMOOTH",
"208 684 OFFCURVE",
"61 641 OFFCURVE",
"61 439 CURVE SMOOTH",
"61 306 OFFCURVE",
"147 237 OFFCURVE",
"252 237 CURVE SMOOTH",
"315 237 OFFCURVE",
"365 257 OFFCURVE",
"402 279 CURVE",
"367 180 OFFCURVE",
"283 98 OFFCURVE",
"184 50 CURVE SMOOTH",
"175 46 OFFCURVE",
"169 37 OFFCURVE",
"169 26 CURVE SMOOTH",
"169 11 OFFCURVE",
"180 0 OFFCURVE",
"195 0 CURVE SMOOTH"
);
},
{
closed = 1;
nodes = (
"219 290 OFFCURVE",
"113 301 OFFCURVE",
"113 439 CURVE SMOOTH",
"113 597 OFFCURVE",
"220 631 OFFCURVE",
"262 631 CURVE SMOOTH",
"338 631 OFFCURVE",
"428 597 OFFCURVE",
"428 434 CURVE SMOOTH",
"428 409 OFFCURVE",
"427 385 OFFCURVE",
"423 361 CURVE",
"404 342 OFFCURVE",
"345 290 OFFCURVE",
"252 290 CURVE SMOOTH"
);
}
);
};
layerId = "218416E4-0B36-4DBB-8D0A-D6BB29FB6576";
paths = (
{
closed = 1;
nodes = (
"202 0 OFFCURVE",
"207 2 OFFCURVE",
"213 5 CURVE SMOOTH",
"338 68 OFFCURVE",
"480 199 OFFCURVE",
"480 434 CURVE SMOOTH",
"480 610 OFFCURVE",
"386 684 OFFCURVE",
"267 684 CURVE SMOOTH",
"152 684 OFFCURVE",
"61 588 OFFCURVE",
"61 439 CURVE SMOOTH",
"61 306 OFFCURVE",
"147 237 OFFCURVE",
"252 237 CURVE SMOOTH",
"315 237 OFFCURVE",
"365 257 OFFCURVE",
"402 279 CURVE",
"367 180 OFFCURVE",
"283 98 OFFCURVE",
"184 50 CURVE SMOOTH",
"175 46 OFFCURVE",
"169 37 OFFCURVE",
"169 26 CURVE SMOOTH",
"169 11 OFFCURVE",
"180 0 OFFCURVE",
"195 0 CURVE SMOOTH"
);
},
{
closed = 1;
nodes = (
"173 290 OFFCURVE",
"113 339 OFFCURVE",
"113 439 CURVE SMOOTH",
"113 552 OFFCURVE",
"176 631 OFFCURVE",
"265 631 CURVE SMOOTH",
"340 631 OFFCURVE",
"428 597 OFFCURVE",
"428 434 CURVE SMOOTH",
"428 409 OFFCURVE",
"427 385 OFFCURVE",
"423 361 CURVE",
"404 342 OFFCURVE",
"345 290 OFFCURVE",
"252 290 CURVE SMOOTH"
);
}
);
userData = {
com.fontlab.hintData = {
hhints = (
{
position = 0;
width = 50;
},
{
position = 237;
width = 53;
},
{
position = 631;
width = 53;
}
);
vhints = (
{
position = 61;
width = 52;
},
{
position = 428;
width = 52;
}
);
};
};
width = 546;
},
{
background = {
paths = (
{
closed = 1;
nodes = (
"201 0 OFFCURVE",
"209 3 OFFCURVE",
"218 7 CURVE SMOOTH",
"261 29 OFFCURVE",
"473 138 OFFCURVE",
"473 417 CURVE SMOOTH",
"473 607 OFFCURVE",
"360 667 OFFCURVE",
"252 667 CURVE SMOOTH",
"197 667 OFFCURVE",
"47 624 OFFCURVE",
"47 422 CURVE SMOOTH",
"47 286 OFFCURVE",
"135 215 OFFCURVE",
"243 215 CURVE SMOOTH",
"277 215 OFFCURVE",
"307 221 OFFCURVE",
"332 230 CURVE",
"296 170 OFFCURVE",
"238 121 OFFCURVE",
"172 89 CURVE SMOOTH",
"156 82 OFFCURVE",
"145 66 OFFCURVE",
"145 46 CURVE SMOOTH",
"145 20 OFFCURVE",
"165 0 OFFCURVE",
"192 0 CURVE SMOOTH"
);
},
{
closed = 1;
nodes = (
"219 309 OFFCURVE",
"140 317 OFFCURVE",
"140 422 CURVE SMOOTH",
"140 546 OFFCURVE",
"221 573 OFFCURVE",
"252 573 CURVE SMOOTH",
"311 573 OFFCURVE",
"380 546 OFFCURVE",
"380 417 CURVE SMOOTH",
"380 398 OFFCURVE",
"380 381 OFFCURVE",
"377 362 CURVE",
"358 343 OFFCURVE",
"311 309 OFFCURVE",
"243 309 CURVE SMOOTH"
);
}
);
};
layerId = "BB1A411A-CAFC-47D3-A925-066104B707B4";
paths = (
{
closed = 1;
nodes = (
"201 0 OFFCURVE",
"209 3 OFFCURVE",
"218 7 CURVE SMOOTH",
"357 78 OFFCURVE",
"473 211 OFFCURVE",
"473 417 CURVE SMOOTH",
"473 575 OFFCURVE",
"392 667 OFFCURVE",
"259 667 CURVE SMOOTH",
"137 667 OFFCURVE",
"47 573 OFFCURVE",
"47 422 CURVE SMOOTH",
"47 286 OFFCURVE",
"135 215 OFFCURVE",
"243 215 CURVE SMOOTH",
"277 215 OFFCURVE",
"307 221 OFFCURVE",
"332 230 CURVE",
"296 170 OFFCURVE",
"238 121 OFFCURVE",
"172 89 CURVE SMOOTH",
"156 82 OFFCURVE",
"145 66 OFFCURVE",
"145 46 CURVE SMOOTH",
"145 20 OFFCURVE",
"165 0 OFFCURVE",
"192 0 CURVE SMOOTH"
);
},
{
closed = 1;
nodes = (
"182 309 OFFCURVE",
"140 347 OFFCURVE",
"140 422 CURVE SMOOTH",
"140 522 OFFCURVE",
"195 573 OFFCURVE",
"255 573 CURVE SMOOTH",
"336 573 OFFCURVE",
"380 521 OFFCURVE",
"380 417 CURVE SMOOTH",
"380 398 OFFCURVE",
"380 381 OFFCURVE",
"377 362 CURVE",
"358 343 OFFCURVE",
"311 309 OFFCURVE",
"243 309 CURVE SMOOTH"
);
}
);
userData = {
com.fontlab.hintData = {
hhints = (
{
position = 0;
width = 89;
},
{
position = 215;
width = 94;
},
{
position = 573;
width = 94;
}
);
vhints = (
{
position = 58;
width = 93;
},
{
position = 391;
width = 93;
}
);
};
};
width = 523;
}
);
unicode = 0039;
},
{
glyphname = colon;
lastChange = "2019-12-16 01:40:00 +0000";
layers = (
{
background = {
paths = (
{
closed = 1;
nodes = (
"143 373 OFFCURVE",
"157 391 OFFCURVE",
"157 412 CURVE SMOOTH",
"157 426 OFFCURVE",
"147 439 OFFCURVE",
"134 439 CURVE SMOOTH",
"118 439 OFFCURVE",
"103 421 OFFCURVE",
"103 402 CURVE SMOOTH",
"103 387 OFFCURVE",
"112 373 OFFCURVE",
"126 373 CURVE SMOOTH"
);
},
{
closed = 1;
nodes = (
"112 0 OFFCURVE",
"127 18 OFFCURVE",
"127 39 CURVE SMOOTH",
"127 53 OFFCURVE",
"117 66 OFFCURVE",
"104 66 CURVE SMOOTH",
"87 66 OFFCURVE",
"73 48 OFFCURVE",
"73 29 CURVE SMOOTH",
"73 14 OFFCURVE",
"82 0 OFFCURVE",
"96 0 CURVE SMOOTH"
);
}
);
};
layerId = master01;
paths = (
{
closed = 1;
nodes = (
"143 373 OFFCURVE",
"157 391 OFFCURVE",
"157 412 CURVE SMOOTH",
"157 426 OFFCURVE",
"147 439 OFFCURVE",
"134 439 CURVE SMOOTH",
"118 439 OFFCURVE",
"103 421 OFFCURVE",
"103 402 CURVE SMOOTH",
"103 387 OFFCURVE",
"112 373 OFFCURVE",
"126 373 CURVE SMOOTH"
);
},
{
closed = 1;
nodes = (
"112 0 OFFCURVE",
"127 18 OFFCURVE",
"127 39 CURVE SMOOTH",
"127 53 OFFCURVE",
"117 66 OFFCURVE",
"104 66 CURVE SMOOTH",
"87 66 OFFCURVE",
"73 48 OFFCURVE",
"73 29 CURVE SMOOTH",
"73 14 OFFCURVE",
"82 0 OFFCURVE",
"96 0 CURVE SMOOTH"
);
}
);
userData = {
com.fontlab.hintData = {
hhints = (
{
position = 0;
width = 66;
},
{
position = 373;
width = 66;
}
);
vhints = (
{
position = 73;
width = 54;
},
{
position = 103;
width = 54;
}
);
};
};
width = 225;
},
{
background = {
paths = (
{
closed = 1;
nodes = (
"149 358 OFFCURVE",
"168 379 OFFCURVE",
"168 405 CURVE SMOOTH",
"168 425 OFFCURVE",
"154 441 OFFCURVE",
"136 441 CURVE SMOOTH",
"115 441 OFFCURVE",
"96 419 OFFCURVE",
"96 396 CURVE SMOOTH",
"96 375 OFFCURVE",
"109 358 OFFCURVE",
"128 358 CURVE SMOOTH"
);
},
{
closed = 1;
nodes = (
"120 0 OFFCURVE",
"139 21 OFFCURVE",
"139 47 CURVE SMOOTH",
"139 67 OFFCURVE",
"125 83 OFFCURVE",
"107 83 CURVE SMOOTH",
"86 83 OFFCURVE",
"67 61 OFFCURVE",
"67 38 CURVE SMOOTH",
"67 17 OFFCURVE",
"80 0 OFFCURVE",
"99 0 CURVE SMOOTH"
);
}
);
};
layerId = "218416E4-0B36-4DBB-8D0A-D6BB29FB6576";
paths = (
{
closed = 1;
nodes = (
"149 358 OFFCURVE",
"168 379 OFFCURVE",
"168 405 CURVE SMOOTH",
"168 425 OFFCURVE",
"154 441 OFFCURVE",
"136 441 CURVE SMOOTH",
"115 441 OFFCURVE",
"96 419 OFFCURVE",
"96 396 CURVE SMOOTH",
"96 375 OFFCURVE",
"109 358 OFFCURVE",
"128 358 CURVE SMOOTH"
);
},
{
closed = 1;
nodes = (
"120 0 OFFCURVE",
"139 21 OFFCURVE",
"139 47 CURVE SMOOTH",
"139 67 OFFCURVE",
"125 83 OFFCURVE",
"107 83 CURVE SMOOTH",
"86 83 OFFCURVE",
"67 61 OFFCURVE",
"67 38 CURVE SMOOTH",
"67 17 OFFCURVE",
"80 0 OFFCURVE",
"99 0 CURVE SMOOTH"
);
}
);
userData = {
com.fontlab.hintData = {
hhints = (
{
position = 0;
width = 83;
},
{
position = 358;
width = 83;
}
);
vhints = (
{
position = 67;
width = 72;
},
{
position = 96;
width = 72;
}
);
};
};
width = 235;
},
{
background = {
paths = (
{
closed = 1;
nodes = (
"166 325 OFFCURVE",
"194 354 OFFCURVE",
"194 391 CURVE SMOOTH",
"194 422 OFFCURVE",
"171 446 OFFCURVE",
"142 446 CURVE SMOOTH",
"111 446 OFFCURVE",
"83 415 OFFCURVE",
"83 382 CURVE SMOOTH",
"83 351 OFFCURVE",
"104 325 OFFCURVE",
"135 325 CURVE SMOOTH"
);
},
{
closed = 1;
nodes = (
"139 0 OFFCURVE",
"167 29 OFFCURVE",
"167 65 CURVE SMOOTH",
"167 96 OFFCURVE",
"145 121 OFFCURVE",
"116 121 CURVE SMOOTH",
"85 121 OFFCURVE",
"57 90 OFFCURVE",
"57 57 CURVE SMOOTH",
"57 25 OFFCURVE",
"77 0 OFFCURVE",
"108 0 CURVE SMOOTH"
);
}
);
};
layerId = "BB1A411A-CAFC-47D3-A925-066104B707B4";
paths = (
{
closed = 1;
nodes = (
"166 325 OFFCURVE",
"194 354 OFFCURVE",
"194 391 CURVE SMOOTH",
"194 422 OFFCURVE",
"171 446 OFFCURVE",
"142 446 CURVE SMOOTH",
"111 446 OFFCURVE",
"83 415 OFFCURVE",
"83 382 CURVE SMOOTH",
"83 351 OFFCURVE",
"104 325 OFFCURVE",
"135 325 CURVE SMOOTH"
);
},
{
closed = 1;
nodes = (
"139 0 OFFCURVE",
"167 29 OFFCURVE",
"167 65 CURVE SMOOTH",
"167 96 OFFCURVE",
"145 121 OFFCURVE",
"116 121 CURVE SMOOTH",
"85 121 OFFCURVE",
"57 90 OFFCURVE",
"57 57 CURVE SMOOTH",
"57 25 OFFCURVE",
"77 0 OFFCURVE",
"108 0 CURVE SMOOTH"
);
}
);
userData = {
com.fontlab.hintData = {
hhints = (
{
position = 0;
width = 121;
},
{
position = 325;
width = 121;
}
);
vhints = (
{
position = 57;
width = 110;
},
{
position = 83;
width = 111;
}
);
};
};
width = 261;
}
);
leftKerningGroup = period;
rightKerningGroup = period;
unicode = 003A;
},
{
glyphname = semicolon;
lastChange = "2019-12-16 01:40:10 +0000";
layers = (
{
background = {
paths = (
{
closed = 1;
nodes = (
"116 -96 OFFCURVE",
"127 -67 OFFCURVE",
"143 -27 CURVE SMOOTH",
"158 11 OFFCURVE",
"161 18 OFFCURVE",
"161 36 CURVE SMOOTH",
"161 47 OFFCURVE",
"151 59 OFFCURVE",
"138 59 CURVE SMOOTH",
"122 59 OFFCURVE",
"107 43 OFFCURVE",
"107 23 CURVE SMOOTH",
"107 14 OFFCURVE",
"112 3 OFFCURVE",
"121 -5 CURVE",
"94 -76 LINE SMOOTH",
"92 -81 OFFCURVE",
"92 -83 OFFCURVE",
"92 -86 CURVE SMOOTH",
"92 -91 OFFCURVE",
"98 -96 OFFCURVE",
"105 -96 CURVE SMOOTH"
);
},
{
closed = 1;
nodes = (
"184 373 OFFCURVE",
"198 391 OFFCURVE",
"198 412 CURVE SMOOTH",
"198 426 OFFCURVE",
"188 439 OFFCURVE",
"175 439 CURVE SMOOTH",
"159 439 OFFCURVE",
"144 421 OFFCURVE",
"144 402 CURVE SMOOTH",
"144 387 OFFCURVE",
"153 373 OFFCURVE",
"167 373 CURVE SMOOTH"
);
},
{
closed = 1;
nodes = (
"216 -96 OFFCURVE",
"227 -67 OFFCURVE",
"243 -27 CURVE SMOOTH",
"258 11 OFFCURVE",
"261 18 OFFCURVE",
"261 36 CURVE SMOOTH",
"261 47 OFFCURVE",
"251 59 OFFCURVE",
"238 59 CURVE SMOOTH",
"222 59 OFFCURVE",
"207 43 OFFCURVE",
"207 23 CURVE SMOOTH",
"207 14 OFFCURVE",
"212 3 OFFCURVE",
"221 -5 CURVE",
"194 -76 LINE SMOOTH",
"192 -81 OFFCURVE",
"192 -83 OFFCURVE",
"192 -86 CURVE SMOOTH",
"192 -91 OFFCURVE",
"198 -96 OFFCURVE",
"205 -96 CURVE SMOOTH"
);
},
{
closed = 1;
nodes = (
"184 373 OFFCURVE",
"198 391 OFFCURVE",
"198 412 CURVE SMOOTH",
"198 426 OFFCURVE",
"188 439 OFFCURVE",
"175 439 CURVE SMOOTH",
"159 439 OFFCURVE",
"144 421 OFFCURVE",
"144 402 CURVE SMOOTH",
"144 387 OFFCURVE",
"153 373 OFFCURVE",
"167 373 CURVE SMOOTH"
);
},
{
closed = 1;
nodes = (
"111 -96 OFFCURVE",
"116 -91 OFFCURVE",
"116 -84 CURVE SMOOTH",
"116 -77 OFFCURVE",
"111 -72 OFFCURVE",
"104 -72 CURVE SMOOTH",
"97 -72 OFFCURVE",
"92 -77 OFFCURVE",
"92 -84 CURVE SMOOTH",
"92 -91 OFFCURVE",
"97 -96 OFFCURVE",
"104 -96 CURVE SMOOTH"
);
}
);
};
layerId = master01;
paths = (
{
closed = 1;
nodes = (
"115 -96 OFFCURVE",
"120 -82 OFFCURVE",
"127 -66 CURVE SMOOTH",
"144 -25 OFFCURVE",
"161 9 OFFCURVE",
"161 34 CURVE SMOOTH",
"161 47 OFFCURVE",
"151 59 OFFCURVE",
"138 59 CURVE SMOOTH",
"122 59 OFFCURVE",
"107 43 OFFCURVE",
"107 23 CURVE SMOOTH",
"107 14 OFFCURVE",
"112 3 OFFCURVE",
"121 -5 CURVE",
"96 -71 LINE SMOOTH",
"93 -78 OFFCURVE",
"92 -81 OFFCURVE",
"92 -85 CURVE SMOOTH",
"92 -91 OFFCURVE",
"97 -96 OFFCURVE",
"104 -96 CURVE SMOOTH"
);
},
{
closed = 1;
nodes = (
"184 373 OFFCURVE",
"198 391 OFFCURVE",
"198 412 CURVE SMOOTH",
"198 426 OFFCURVE",
"188 439 OFFCURVE",
"175 439 CURVE SMOOTH",
"159 439 OFFCURVE",
"144 421 OFFCURVE",
"144 402 CURVE SMOOTH",
"144 387 OFFCURVE",
"153 373 OFFCURVE",
"167 373 CURVE SMOOTH"
);
}
);
userData = {
com.fontlab.hintData = {
hhints = (
{
position = 373;
width = 66;
}
);
vhints = (
{
position = 92;
width = 51;
},
{
position = 107;
width = 54;
},
{
position = 144;
width = 54;
}
);
};
};
width = 261;
},
{
background = {
paths = (
{
closed = 1;
nodes = (
"128 -93 OFFCURVE",
"129 -77 OFFCURVE",
"153 -19 CURVE SMOOTH",
"168 17 OFFCURVE",
"172 26 OFFCURVE",
"172 45 CURVE SMOOTH",
"172 60 OFFCURVE",
"158 77 OFFCURVE",
"140 77 CURVE SMOOTH",
"119 77 OFFCURVE",
"100 56 OFFCURVE",
"100 32 CURVE SMOOTH",
"100 20 OFFCURVE",
"105 9 OFFCURVE",
"112 2 CURVE",
"88 -62 LINE SMOOTH",
"87 -65 OFFCURVE",
"86 -68 OFFCURVE",
"86 -71 CURVE SMOOTH",
"86 -83 OFFCURVE",
"96 -93 OFFCURVE",
"109 -93 CURVE SMOOTH"
);
},
{
closed = 1;
nodes = (
"189 358 OFFCURVE",
"208 379 OFFCURVE",
"208 405 CURVE SMOOTH",
"208 425 OFFCURVE",
"194 441 OFFCURVE",
"176 441 CURVE SMOOTH",
"155 441 OFFCURVE",
"136 419 OFFCURVE",
"136 396 CURVE SMOOTH",
"136 375 OFFCURVE",
"149 358 OFFCURVE",
"168 358 CURVE SMOOTH"
);
}
);
};
layerId = "218416E4-0B36-4DBB-8D0A-D6BB29FB6576";
paths = (
{
closed = 1;
nodes = (
"128 -93 OFFCURVE",
"129 -77 OFFCURVE",
"153 -19 CURVE SMOOTH",
"168 17 OFFCURVE",
"172 26 OFFCURVE",
"172 45 CURVE SMOOTH",
"172 60 OFFCURVE",
"158 77 OFFCURVE",
"140 77 CURVE SMOOTH",
"119 77 OFFCURVE",
"100 56 OFFCURVE",
"100 32 CURVE SMOOTH",
"100 20 OFFCURVE",
"105 9 OFFCURVE",
"112 2 CURVE",
"88 -62 LINE SMOOTH",
"87 -65 OFFCURVE",
"86 -68 OFFCURVE",
"86 -71 CURVE SMOOTH",
"86 -83 OFFCURVE",
"96 -93 OFFCURVE",
"109 -93 CURVE SMOOTH"
);
},
{
closed = 1;
nodes = (
"189 358 OFFCURVE",
"208 379 OFFCURVE",
"208 405 CURVE SMOOTH",
"208 425 OFFCURVE",
"194 441 OFFCURVE",
"176 441 CURVE SMOOTH",
"155 441 OFFCURVE",
"136 419 OFFCURVE",
"136 396 CURVE SMOOTH",
"136 375 OFFCURVE",
"149 358 OFFCURVE",
"168 358 CURVE SMOOTH"
);
}
);
userData = {
com.fontlab.hintData = {
hhints = (
{
position = 358;
width = 83;
}
);
vhints = (
{
position = 86;
width = 67;
},
{
position = 100;
width = 72;
},
{
position = 136;
width = 72;
}
);
};
};
width = 271;
},
{
background = {
paths = (
{
closed = 1;
nodes = (
"145 -84 OFFCURVE",
"156 -66 OFFCURVE",
"165 -45 CURVE SMOOTH",
"181 -7 OFFCURVE",
"199 43 OFFCURVE",
"199 64 CURVE SMOOTH",
"199 92 OFFCURVE",
"176 115 OFFCURVE",
"147 115 CURVE SMOOTH",
"116 115 OFFCURVE",
"88 85 OFFCURVE",
"88 52 CURVE SMOOTH",
"88 40 OFFCURVE",
"91 30 OFFCURVE",
"96 21 CURVE",
"78 -26 LINE SMOOTH",
"76 -31 OFFCURVE",
"75 -35 OFFCURVE",
"75 -42 CURVE SMOOTH",
"75 -65 OFFCURVE",
"94 -84 OFFCURVE",
"119 -84 CURVE SMOOTH"
);
},
{
closed = 1;
nodes = (
"203 325 OFFCURVE",
"231 354 OFFCURVE",
"231 391 CURVE SMOOTH",
"231 422 OFFCURVE",
"209 446 OFFCURVE",
"180 446 CURVE SMOOTH",
"149 446 OFFCURVE",
"121 415 OFFCURVE",
"121 382 CURVE SMOOTH",
"121 351 OFFCURVE",
"141 325 OFFCURVE",
"172 325 CURVE SMOOTH"
);
}
);
};
layerId = "BB1A411A-CAFC-47D3-A925-066104B707B4";
paths = (
{
closed = 1;
nodes = (
"145 -84 OFFCURVE",
"156 -66 OFFCURVE",
"165 -45 CURVE SMOOTH",
"181 -7 OFFCURVE",
"199 43 OFFCURVE",
"199 64 CURVE SMOOTH",
"199 92 OFFCURVE",
"176 115 OFFCURVE",
"147 115 CURVE SMOOTH",
"116 115 OFFCURVE",
"88 85 OFFCURVE",
"88 52 CURVE SMOOTH",
"88 40 OFFCURVE",
"91 30 OFFCURVE",
"96 21 CURVE",
"78 -26 LINE SMOOTH",
"76 -31 OFFCURVE",
"75 -35 OFFCURVE",
"75 -42 CURVE SMOOTH",
"75 -65 OFFCURVE",
"94 -84 OFFCURVE",
"119 -84 CURVE SMOOTH"
);
},
{
closed = 1;
nodes = (
"203 325 OFFCURVE",
"231 354 OFFCURVE",
"231 391 CURVE SMOOTH",
"231 422 OFFCURVE",
"209 446 OFFCURVE",
"180 446 CURVE SMOOTH",
"149 446 OFFCURVE",
"121 415 OFFCURVE",
"121 382 CURVE SMOOTH",
"121 351 OFFCURVE",
"141 325 OFFCURVE",
"172 325 CURVE SMOOTH"
);
}
);
userData = {
com.fontlab.hintData = {
hhints = (
{
position = 325;
width = 121;
}
);
vhints = (
{
position = 88;
width = 111;
},
{
position = 121;
width = 110;
}
);
};
};
width = 297;
}
);
leftKerningGroup = comma;
rightKerningGroup = comma;
unicode = 003B;
},
{
glyphname = less;
lastChange = "2019-12-06 19:21:55 +0000";
layers = (
{
background = {
paths = (
{
closed = 1;
nodes = (
"436 8 OFFCURVE",
"445 17 OFFCURVE",
"445 27 CURVE SMOOTH",
"445 33 OFFCURVE",
"441 40 OFFCURVE",
"435 44 CURVE SMOOTH",
"128 247 LINE",
"456 456 LINE SMOOTH",
"462 460 OFFCURVE",
"465 466 OFFCURVE",
"465 472 CURVE SMOOTH",
"465 482 OFFCURVE",
"456 492 OFFCURVE",
"446 492 CURVE SMOOTH",
"444 492 OFFCURVE",
"440 492 OFFCURVE",
"435 489 CURVE SMOOTH",
"83 264 LINE SMOOTH",
"77 260 OFFCURVE",
"73 254 OFFCURVE",
"73 248 CURVE SMOOTH",
"73 240 OFFCURVE",
"76 235 OFFCURVE",
"82 231 CURVE SMOOTH",
"413 13 LINE SMOOTH",
"420 9 OFFCURVE",
"423 8 OFFCURVE",
"426 8 CURVE SMOOTH"
);
}
);
};
layerId = master01;
paths = (
{
closed = 1;
nodes = (
"436 8 OFFCURVE",
"445 17 OFFCURVE",
"445 27 CURVE SMOOTH",
"445 33 OFFCURVE",
"441 40 OFFCURVE",
"435 44 CURVE SMOOTH",
"128 247 LINE",
"456 456 LINE SMOOTH",
"462 460 OFFCURVE",
"465 466 OFFCURVE",
"465 472 CURVE SMOOTH",
"465 482 OFFCURVE",
"456 492 OFFCURVE",
"446 492 CURVE SMOOTH",
"444 492 OFFCURVE",
"440 492 OFFCURVE",
"435 489 CURVE SMOOTH",
"83 264 LINE SMOOTH",
"77 260 OFFCURVE",
"73 254 OFFCURVE",
"73 248 CURVE SMOOTH",
"73 240 OFFCURVE",
"76 235 OFFCURVE",
"82 231 CURVE SMOOTH",
"413 13 LINE SMOOTH",
"420 9 OFFCURVE",
"423 8 OFFCURVE",
"426 8 CURVE SMOOTH"
);
}
);
width = 530;
},
{
background = {
paths = (
{
closed = 1;
nodes = (
"434 8 OFFCURVE",
"447 21 OFFCURVE",
"447 36 CURVE SMOOTH",
"447 45 OFFCURVE",
"442 54 OFFCURVE",
"434 60 CURVE SMOOTH",
"151 247 LINE",
"453 440 LINE SMOOTH",
"461 445 OFFCURVE",
"466 454 OFFCURVE",
"466 463 CURVE SMOOTH",
"466 479 OFFCURVE",
"453 492 OFFCURVE",
"438 492 CURVE SMOOTH",
"433 492 OFFCURVE",
"428 490 OFFCURVE",
"423 487 CURVE SMOOTH",
"85 271 LINE SMOOTH",
"77 266 OFFCURVE",
"72 257 OFFCURVE",
"72 248 CURVE SMOOTH",
"72 238 OFFCURVE",
"76 229 OFFCURVE",
"84 224 CURVE SMOOTH",
"403 13 LINE SMOOTH",
"408 10 OFFCURVE",
"414 8 OFFCURVE",
"419 8 CURVE SMOOTH"
);
}
);
};
layerId = "218416E4-0B36-4DBB-8D0A-D6BB29FB6576";
paths = (
{
closed = 1;
nodes = (
"434 8 OFFCURVE",
"447 21 OFFCURVE",
"447 36 CURVE SMOOTH",
"447 45 OFFCURVE",
"442 54 OFFCURVE",
"434 60 CURVE SMOOTH",
"151 247 LINE",
"453 440 LINE SMOOTH",
"461 445 OFFCURVE",
"466 454 OFFCURVE",
"466 463 CURVE SMOOTH",
"466 479 OFFCURVE",
"453 492 OFFCURVE",
"438 492 CURVE SMOOTH",
"433 492 OFFCURVE",
"428 490 OFFCURVE",
"423 487 CURVE SMOOTH",
"85 271 LINE SMOOTH",
"77 266 OFFCURVE",
"72 257 OFFCURVE",
"72 248 CURVE SMOOTH",
"72 238 OFFCURVE",
"76 229 OFFCURVE",
"84 224 CURVE SMOOTH",
"403 13 LINE SMOOTH",
"408 10 OFFCURVE",
"414 8 OFFCURVE",
"419 8 CURVE SMOOTH"
);
}
);
width = 540;
},
{
background = {
paths = (
{
closed = 1;
nodes = (
"431 7 OFFCURVE",
"454 30 OFFCURVE",
"454 55 CURVE SMOOTH",
"454 71 OFFCURVE",
"446 85 OFFCURVE",
"432 95 CURVE SMOOTH",
"204 247 LINE",
"449 403 LINE SMOOTH",
"462 411 OFFCURVE",
"471 428 OFFCURVE",
"471 443 CURVE SMOOTH",
"471 471 OFFCURVE",
"449 492 OFFCURVE",
"423 492 CURVE SMOOTH",
"414 492 OFFCURVE",
"405 489 OFFCURVE",
"397 484 CURVE SMOOTH",
"90 288 LINE SMOOTH",
"73 277 OFFCURVE",
"68 263 OFFCURVE",
"68 248 CURVE SMOOTH",
"68 231 OFFCURVE",
"74 217 OFFCURVE",
"89 207 CURVE SMOOTH",
"379 15 LINE SMOOTH",
"387 10 OFFCURVE",
"398 7 OFFCURVE",
"406 7 CURVE SMOOTH"
);
}
);
};
layerId = "BB1A411A-CAFC-47D3-A925-066104B707B4";
paths = (
{
closed = 1;
nodes = (
"431 7 OFFCURVE",
"454 30 OFFCURVE",
"454 55 CURVE SMOOTH",
"454 71 OFFCURVE",
"446 85 OFFCURVE",
"432 95 CURVE SMOOTH",
"204 247 LINE",
"449 403 LINE SMOOTH",
"462 411 OFFCURVE",
"471 428 OFFCURVE",
"471 443 CURVE SMOOTH",
"471 471 OFFCURVE",
"449 492 OFFCURVE",
"423 492 CURVE SMOOTH",
"414 492 OFFCURVE",
"405 489 OFFCURVE",
"397 484 CURVE SMOOTH",
"90 288 LINE SMOOTH",
"73 277 OFFCURVE",
"68 263 OFFCURVE",
"68 248 CURVE SMOOTH",
"68 231 OFFCURVE",
"74 217 OFFCURVE",
"89 207 CURVE SMOOTH",
"379 15 LINE SMOOTH",
"387 10 OFFCURVE",
"398 7 OFFCURVE",
"406 7 CURVE SMOOTH"
);
}
);
width = 566;
}
);
unicode = 003C;
},
{
glyphname = equal;
lastChange = "2019-12-07 01:40:46 +0000";
layers = (
{
background = {
paths = (
{
closed = 1;
nodes = (
"396 151 LINE SMOOTH",
"407 151 OFFCURVE",
"415 159 OFFCURVE",
"415 169 CURVE SMOOTH",
"415 179 OFFCURVE",
"407 188 OFFCURVE",
"396 188 CURVE SMOOTH",
"98 188 LINE SMOOTH",
"89 188 OFFCURVE",
"80 179 OFFCURVE",
"80 169 CURVE SMOOTH",
"80 159 OFFCURVE",
"89 151 OFFCURVE",
"98 151 CURVE SMOOTH"
);
},
{
closed = 1;
nodes = (
"396 312 LINE SMOOTH",
"407 312 OFFCURVE",
"415 320 OFFCURVE",
"415 329 CURVE SMOOTH",
"415 340 OFFCURVE",
"407 348 OFFCURVE",
"396 348 CURVE SMOOTH",
"98 348 LINE SMOOTH",
"89 348 OFFCURVE",
"80 340 OFFCURVE",
"80 329 CURVE SMOOTH",
"80 320 OFFCURVE",
"89 312 OFFCURVE",
"98 312 CURVE SMOOTH"
);
}
);
};
layerId = master01;
paths = (
{
closed = 1;
nodes = (
"396 312 LINE SMOOTH",
"407 312 OFFCURVE",
"415 320 OFFCURVE",
"415 329 CURVE SMOOTH",
"415 340 OFFCURVE",
"407 348 OFFCURVE",
"396 348 CURVE SMOOTH",
"98 348 LINE SMOOTH",
"89 348 OFFCURVE",
"80 340 OFFCURVE",
"80 329 CURVE SMOOTH",
"80 320 OFFCURVE",
"89 312 OFFCURVE",
"98 312 CURVE SMOOTH"
);
},
{
closed = 1;
nodes = (
"396 151 LINE SMOOTH",
"407 151 OFFCURVE",
"415 159 OFFCURVE",
"415 169 CURVE SMOOTH",
"415 179 OFFCURVE",
"407 188 OFFCURVE",
"396 188 CURVE SMOOTH",
"98 188 LINE SMOOTH",
"89 188 OFFCURVE",
"80 179 OFFCURVE",
"80 169 CURVE SMOOTH",
"80 159 OFFCURVE",
"89 151 OFFCURVE",
"98 151 CURVE SMOOTH"
);
}
);
userData = {
com.fontlab.hintData = {
hhints = (
{
position = 151;
width = 37;
},
{
position = 312;
width = 36;
}
);
};
};
width = 483;
},
{
background = {
paths = (
{
closed = 1;
nodes = (
"390 299 LINE SMOOTH",
"405 299 OFFCURVE",
"418 311 OFFCURVE",
"418 326 CURVE SMOOTH",
"418 341 OFFCURVE",
"405 354 OFFCURVE",
"390 354 CURVE SMOOTH",
"104 354 LINE SMOOTH",
"89 354 OFFCURVE",
"77 341 OFFCURVE",
"77 326 CURVE SMOOTH",
"77 311 OFFCURVE",
"89 299 OFFCURVE",
"104 299 CURVE SMOOTH"
);
},
{
closed = 1;
nodes = (
"390 145 LINE SMOOTH",
"405 145 OFFCURVE",
"418 157 OFFCURVE",
"418 172 CURVE SMOOTH",
"418 187 OFFCURVE",
"405 200 OFFCURVE",
"390 200 CURVE SMOOTH",
"104 200 LINE SMOOTH",
"89 200 OFFCURVE",
"77 187 OFFCURVE",
"77 172 CURVE SMOOTH",
"77 157 OFFCURVE",
"89 145 OFFCURVE",
"104 145 CURVE SMOOTH"
);
}
);
};
layerId = "218416E4-0B36-4DBB-8D0A-D6BB29FB6576";
paths = (
{
closed = 1;
nodes = (
"390 299 LINE SMOOTH",
"405 299 OFFCURVE",
"418 311 OFFCURVE",
"418 326 CURVE SMOOTH",
"418 341 OFFCURVE",
"405 354 OFFCURVE",
"390 354 CURVE SMOOTH",
"104 354 LINE SMOOTH",
"89 354 OFFCURVE",
"77 341 OFFCURVE",
"77 326 CURVE SMOOTH",
"77 311 OFFCURVE",
"89 299 OFFCURVE",
"104 299 CURVE SMOOTH"
);
},
{
closed = 1;
nodes = (
"390 145 LINE SMOOTH",
"405 145 OFFCURVE",
"418 157 OFFCURVE",
"418 172 CURVE SMOOTH",
"418 187 OFFCURVE",
"405 200 OFFCURVE",
"390 200 CURVE SMOOTH",
"104 200 LINE SMOOTH",
"89 200 OFFCURVE",
"77 187 OFFCURVE",
"77 172 CURVE SMOOTH",
"77 157 OFFCURVE",
"89 145 OFFCURVE",
"104 145 CURVE SMOOTH"
);
}
);
userData = {
com.fontlab.hintData = {
hhints = (
{
position = 145;
width = 55;
},
{
position = 299;
width = 55;
}
);
};
};
width = 493;
},
{
background = {
paths = (
{
closed = 1;
nodes = (
"379 292 LINE SMOOTH",
"404 292 OFFCURVE",
"427 313 OFFCURVE",
"427 339 CURVE SMOOTH",
"427 364 OFFCURVE",
"404 387 OFFCURVE",
"379 387 CURVE SMOOTH",
"119 387 LINE SMOOTH",
"92 387 OFFCURVE",
"72 364 OFFCURVE",
"72 339 CURVE SMOOTH",
"72 313 OFFCURVE",
"92 292 OFFCURVE",
"119 292 CURVE SMOOTH"
);
},
{
closed = 1;
nodes = (
"379 112 LINE SMOOTH",
"404 112 OFFCURVE",
"427 133 OFFCURVE",
"427 159 CURVE SMOOTH",
"427 184 OFFCURVE",
"404 207 OFFCURVE",
"379 207 CURVE SMOOTH",
"119 207 LINE SMOOTH",
"92 207 OFFCURVE",
"72 184 OFFCURVE",
"72 159 CURVE SMOOTH",
"72 133 OFFCURVE",
"92 112 OFFCURVE",
"119 112 CURVE SMOOTH"
);
}
);
};
layerId = "BB1A411A-CAFC-47D3-A925-066104B707B4";
paths = (
{
closed = 1;
nodes = (
"379 292 LINE SMOOTH",
"404 292 OFFCURVE",
"427 313 OFFCURVE",
"427 339 CURVE SMOOTH",
"427 364 OFFCURVE",
"404 387 OFFCURVE",
"379 387 CURVE SMOOTH",
"119 387 LINE SMOOTH",
"92 387 OFFCURVE",
"72 364 OFFCURVE",
"72 339 CURVE SMOOTH",
"72 313 OFFCURVE",
"92 292 OFFCURVE",
"119 292 CURVE SMOOTH"
);
},
{
closed = 1;
nodes = (
"379 112 LINE SMOOTH",
"404 112 OFFCURVE",
"427 133 OFFCURVE",
"427 159 CURVE SMOOTH",
"427 184 OFFCURVE",
"404 207 OFFCURVE",
"379 207 CURVE SMOOTH",
"119 207 LINE SMOOTH",
"92 207 OFFCURVE",
"72 184 OFFCURVE",
"72 159 CURVE SMOOTH",
"72 133 OFFCURVE",
"92 112 OFFCURVE",
"119 112 CURVE SMOOTH"
);
}
);
userData = {
com.fontlab.hintData = {
hhints = (
{
position = 112;
width = 95;
},
{
position = 292;
width = 95;
}
);
};
};
width = 519;
}
);
unicode = 003D;
},
